<svg width="288" height="453" viewBox="0 0 288 453" fill="none" xmlns="http://www.w3.org/2000/svg">
<rect y="263" width="288" height="190" rx="8" fill="white"/>
<path d="M32.816 297.312C32.56 296.048 31.52 294.416 28.848 294.416C26.736 294.416 24.992 295.984 24.992 297.888C24.992 299.584 26.144 300.72 27.872 301.072L29.472 301.408C30.448 301.616 30.992 302.208 30.992 302.944C30.992 303.824 30.288 304.512 28.928 304.512C27.296 304.512 26.448 303.424 26.336 302.24L24.544 302.752C24.72 304.384 26.048 306.24 28.928 306.24C31.52 306.24 32.944 304.56 32.944 302.8C32.944 301.2 31.872 299.936 29.872 299.536L28.24 299.2C27.36 299.008 26.912 298.464 26.912 297.744C26.912 296.88 27.712 296.112 28.864 296.112C30.384 296.112 30.976 297.152 31.088 297.856L32.816 297.312ZM36.5477 301.424C36.5797 300.432 37.1397 299.664 38.1637 299.664C39.3317 299.664 39.7637 300.432 39.7637 301.392V306H41.6197V301.072C41.6197 299.36 40.6917 297.984 38.7717 297.984C37.9557 297.984 37.0757 298.272 36.5477 298.96V294.416H34.6917V306H36.5477V301.424ZM43.2826 303.888C43.2826 305.12 44.2906 306.24 45.9226 306.24C47.1866 306.24 47.9546 305.6 48.3226 305.008C48.3226 305.632 48.3866 305.952 48.4026 306H50.1306C50.1146 305.92 50.0346 305.456 50.0346 304.752V300.88C50.0346 299.328 49.1226 297.968 46.7226 297.968C44.8026 297.968 43.5866 299.168 43.4426 300.512L45.1386 300.896C45.2186 300.112 45.7626 299.488 46.7386 299.488C47.7626 299.488 48.2106 300.016 48.2106 300.672C48.2106 300.944 48.0826 301.168 47.6346 301.232L45.6346 301.536C44.3066 301.728 43.2826 302.496 43.2826 303.888ZM46.2746 304.784C45.5386 304.784 45.1386 304.304 45.1386 303.776C45.1386 303.136 45.6026 302.816 46.1786 302.72L48.2106 302.416V302.768C48.2106 304.288 47.3146 304.784 46.2746 304.784ZM56.7529 298.16C56.6729 298.144 56.4809 298.112 56.2569 298.112C55.2329 298.112 54.3689 298.608 54.0009 299.456V298.208H52.1929V306H54.0489V302.288C54.0489 300.832 54.7049 300 56.1449 300C56.3369 300 56.5449 300.016 56.7529 300.048V298.16ZM59.4374 301.248C59.5014 300.416 60.1734 299.52 61.3414 299.52C62.6214 299.52 63.2294 300.336 63.2614 301.248H59.4374ZM63.4694 303.28C63.2134 304.048 62.6374 304.64 61.5174 304.64C60.3654 304.64 59.4374 303.792 59.3894 302.608H65.0854C65.1014 302.576 65.1334 302.32 65.1334 302.016C65.1334 299.552 63.7254 297.968 61.3254 297.968C59.3574 297.968 57.5334 299.6 57.5334 302.064C57.5334 304.704 59.4054 306.24 61.5174 306.24C63.3894 306.24 64.6214 305.136 65.0374 303.776L63.4694 303.28ZM72.448 306V304.96C72.896 305.712 73.744 306.192 74.848 306.192C77.12 306.192 78.512 304.416 78.512 302.064C78.512 299.776 77.248 298 74.912 298C73.712 298 72.816 298.56 72.464 299.168V294.416H70.64V306H72.448ZM76.64 302.08C76.64 303.616 75.76 304.544 74.544 304.544C73.36 304.544 72.448 303.616 72.448 302.08C72.448 300.528 73.36 299.648 74.544 299.648C75.776 299.648 76.64 300.528 76.64 302.08ZM84.8178 298.16C84.7378 298.144 84.5458 298.112 84.3218 298.112C83.2978 298.112 82.4338 298.608 82.0658 299.456V298.208H80.2578V306H82.1138V302.288C82.1138 300.832 82.7698 300 84.2098 300C84.4018 300 84.6098 300.016 84.8178 300.048V298.16ZM89.6303 304.576C88.4943 304.576 87.4543 303.712 87.4543 302.096C87.4543 300.48 88.4943 299.648 89.6303 299.648C90.7823 299.648 91.8063 300.48 91.8063 302.096C91.8063 303.728 90.7823 304.576 89.6303 304.576ZM89.6303 297.968C87.3103 297.968 85.5983 299.712 85.5983 302.096C85.5983 304.496 87.3103 306.24 89.6303 306.24C91.9663 306.24 93.6783 304.496 93.6783 302.096C93.6783 299.712 91.9663 297.968 89.6303 297.968ZM100.472 305.136C100.472 305.456 100.504 305.824 100.536 306H102.312C102.28 305.712 102.232 305.216 102.232 304.576V298.208H100.376V302.816C100.376 303.84 99.8156 304.56 98.7436 304.56C97.6236 304.56 97.1756 303.744 97.1756 302.784V298.208H95.3196V303.12C95.3196 304.848 96.4076 306.224 98.2636 306.224C99.1756 306.224 100.088 305.84 100.472 305.136ZM107.959 299.68C109.143 299.68 109.671 300.448 109.847 301.136L111.511 300.528C111.191 299.28 110.039 297.968 107.943 297.968C105.703 297.968 103.959 299.696 103.959 302.096C103.959 304.464 105.703 306.24 107.991 306.24C110.039 306.24 111.207 304.912 111.575 303.696L109.943 303.104C109.767 303.696 109.207 304.544 107.991 304.544C106.823 304.544 105.815 303.664 105.815 302.096C105.815 300.528 106.823 299.68 107.959 299.68ZM115.007 301.424C115.039 300.432 115.599 299.664 116.623 299.664C117.791 299.664 118.223 300.432 118.223 301.392V306H120.079V301.072C120.079 299.36 119.151 297.984 117.231 297.984C116.415 297.984 115.535 298.272 115.007 298.96V294.416H113.151V306H115.007V301.424ZM123.63 301.248C123.694 300.416 124.366 299.52 125.534 299.52C126.814 299.52 127.422 300.336 127.454 301.248H123.63ZM127.662 303.28C127.406 304.048 126.83 304.64 125.71 304.64C124.558 304.64 123.63 303.792 123.582 302.608H129.278C129.294 302.576 129.326 302.32 129.326 302.016C129.326 299.552 127.918 297.968 125.518 297.968C123.55 297.968 121.726 299.6 121.726 302.064C121.726 304.704 123.598 306.24 125.71 306.24C127.582 306.24 128.814 305.136 129.23 303.776L127.662 303.28ZM135.603 298.16C135.523 298.144 135.331 298.112 135.107 298.112C134.083 298.112 133.219 298.608 132.851 299.456V298.208H131.043V306H132.899V302.288C132.899 300.832 133.555 300 134.995 300C135.187 300 135.395 300.016 135.603 300.048V298.16Z" fill="#1A202C"/>
<path d="M30.336 328V326.896H26.316V319.492H25.14V328H30.336ZM32.1056 324.52C32.1536 323.776 32.7296 323.044 33.6776 323.044C34.6976 323.044 35.2376 323.692 35.2616 324.52H32.1056ZM35.4296 326.02C35.2136 326.668 34.7456 327.184 33.8096 327.184C32.8376 327.184 32.0936 326.464 32.0696 325.432H36.4136C36.4256 325.36 36.4376 325.216 36.4376 325.072C36.4376 323.272 35.4416 322.048 33.6656 322.048C32.2136 322.048 30.9056 323.284 30.9056 325.096C30.9056 327.052 32.2616 328.18 33.8096 328.18C35.1536 328.18 36.0776 327.376 36.4016 326.356L35.4296 326.02ZM37.4121 326.452C37.4121 327.364 38.1681 328.18 39.3441 328.18C40.3761 328.18 40.9521 327.628 41.2041 327.22C41.2041 327.64 41.2401 327.856 41.2641 328H42.3681C42.3441 327.856 42.2961 327.556 42.2961 327.052V324.16C42.2961 323.032 41.6241 322.048 39.8961 322.048C38.6481 322.048 37.6521 322.816 37.5321 323.92L38.6121 324.172C38.6841 323.5 39.1281 323.008 39.9201 323.008C40.7961 323.008 41.1681 323.476 41.1681 324.04C41.1681 324.244 41.0721 324.424 40.7241 324.472L39.1641 324.7C38.1681 324.844 37.4121 325.42 37.4121 326.452ZM39.5001 327.232C38.9241 327.232 38.5641 326.824 38.5641 326.392C38.5641 325.876 38.9241 325.6 39.4041 325.528L41.1681 325.264V325.528C41.1681 326.788 40.4241 327.232 39.5001 327.232ZM47.2253 322.168C47.1653 322.156 47.0093 322.132 46.8533 322.132C46.2653 322.132 45.5453 322.348 45.1253 323.236V322.228H44.0213V328H45.1493V325.108C45.1493 323.836 45.7853 323.332 46.7333 323.332C46.8893 323.332 47.0573 323.344 47.2253 323.368V322.168ZM49.4527 324.664C49.4527 323.788 49.9087 323.08 50.7967 323.08C51.8047 323.08 52.1407 323.728 52.1407 324.532V328H53.2687V324.34C53.2687 323.056 52.5847 322.06 51.2047 322.06C50.5327 322.06 49.8487 322.336 49.4287 323.056V322.228H48.3247V328H49.4527V324.664ZM59.0553 328V324.52C59.0553 323.656 59.5953 323.056 60.3993 323.056C61.2633 323.056 61.6233 323.632 61.6233 324.376V328H62.7513V324.508C62.7513 323.68 63.2913 323.056 64.0833 323.056C64.9353 323.056 65.3073 323.62 65.3073 324.376V328H66.4233V324.256C66.4233 322.744 65.4393 322.06 64.4313 322.06C63.6993 322.06 62.9553 322.324 62.4993 323.152C62.1873 322.408 61.4913 322.06 60.7713 322.06C60.0993 322.06 59.3793 322.36 59.0193 322.996V322.228H57.9393V328H59.0553ZM68.9415 324.52C68.9895 323.776 69.5655 323.044 70.5135 323.044C71.5335 323.044 72.0735 323.692 72.0975 324.52H68.9415ZM72.2655 326.02C72.0495 326.668 71.5815 327.184 70.6455 327.184C69.6735 327.184 68.9295 326.464 68.9055 325.432H73.2495C73.2615 325.36 73.2735 325.216 73.2735 325.072C73.2735 323.272 72.2775 322.048 70.5015 322.048C69.0495 322.048 67.7415 323.284 67.7415 325.096C67.7415 327.052 69.0975 328.18 70.6455 328.18C71.9895 328.18 72.9135 327.376 73.2375 326.356L72.2655 326.02ZM75.748 328V324.52C75.748 323.656 76.288 323.056 77.092 323.056C77.956 323.056 78.316 323.632 78.316 324.376V328H79.444V324.508C79.444 323.68 79.984 323.056 80.776 323.056C81.628 323.056 82 323.62 82 324.376V328H83.116V324.256C83.116 322.744 82.132 322.06 81.124 322.06C80.392 322.06 79.648 322.324 79.192 323.152C78.88 322.408 78.184 322.06 77.464 322.06C76.792 322.06 76.072 322.36 75.712 322.996V322.228H74.632V328H75.748ZM85.9342 328V327.16C86.2942 327.784 86.9542 328.156 87.8062 328.156C89.5222 328.156 90.4942 326.8 90.4942 325.084C90.4942 323.404 89.5942 322.06 87.8422 322.06C86.8822 322.06 86.2102 322.528 85.9342 323.044V319.312H84.8182V328H85.9342ZM89.3422 325.084C89.3422 326.332 88.6702 327.148 87.6382 327.148C86.6422 327.148 85.9222 326.332 85.9222 325.084C85.9222 323.836 86.6422 323.056 87.6382 323.056C88.6822 323.056 89.3422 323.836 89.3422 325.084ZM92.7032 324.52C92.7512 323.776 93.3272 323.044 94.2752 323.044C95.2952 323.044 95.8352 323.692 95.8592 324.52H92.7032ZM96.0272 326.02C95.8112 326.668 95.3432 327.184 94.4072 327.184C93.4352 327.184 92.6912 326.464 92.6672 325.432H97.0112C97.0232 325.36 97.0352 325.216 97.0352 325.072C97.0352 323.272 96.0392 322.048 94.2632 322.048C92.8112 322.048 91.5032 323.284 91.5032 325.096C91.5032 327.052 92.8592 328.18 94.4072 328.18C95.7512 328.18 96.6752 327.376 96.9992 326.356L96.0272 326.02ZM101.598 322.168C101.538 322.156 101.382 322.132 101.226 322.132C100.638 322.132 99.9177 322.348 99.4977 323.236V322.228H98.3937V328H99.5217V325.108C99.5217 323.836 100.158 323.332 101.106 323.332C101.262 323.332 101.43 323.344 101.598 323.368V322.168ZM102.241 326.5C102.337 327.16 103.009 328.18 104.593 328.18C106.021 328.18 106.705 327.208 106.705 326.392C106.705 325.54 106.153 324.904 105.109 324.676L104.173 324.472C103.729 324.376 103.513 324.124 103.513 323.776C103.513 323.38 103.897 323.008 104.473 323.008C105.385 323.008 105.625 323.668 105.673 323.968L106.669 323.596C106.549 323.08 106.057 322.048 104.473 322.048C103.345 322.048 102.421 322.888 102.421 323.872C102.421 324.688 102.961 325.3 103.861 325.492L104.845 325.708C105.325 325.816 105.589 326.092 105.589 326.452C105.589 326.86 105.241 327.22 104.605 327.22C103.789 327.22 103.333 326.74 103.261 326.14L102.241 326.5ZM112.197 324.604C112.221 323.752 112.677 323.08 113.541 323.08C114.549 323.08 114.885 323.728 114.885 324.532V328H116.013V324.34C116.013 323.056 115.329 322.06 113.949 322.06C113.289 322.06 112.617 322.288 112.197 322.9V319.312H111.069V328H112.197V324.604ZM117.333 326.452C117.333 327.364 118.089 328.18 119.265 328.18C120.297 328.18 120.873 327.628 121.125 327.22C121.125 327.64 121.161 327.856 121.185 328H122.289C122.265 327.856 122.217 327.556 122.217 327.052V324.16C122.217 323.032 121.545 322.048 119.817 322.048C118.569 322.048 117.573 322.816 117.453 323.92L118.533 324.172C118.605 323.5 119.049 323.008 119.841 323.008C120.717 323.008 121.089 323.476 121.089 324.04C121.089 324.244 120.993 324.424 120.645 324.472L119.085 324.7C118.089 324.844 117.333 325.42 117.333 326.452ZM119.421 327.232C118.845 327.232 118.485 326.824 118.485 326.392C118.485 325.876 118.845 325.6 119.325 325.528L121.089 325.264V325.528C121.089 326.788 120.345 327.232 119.421 327.232ZM128.937 322.228H127.725L126.069 326.68L124.425 322.228H123.153L125.493 328H126.633L128.937 322.228ZM130.702 324.52C130.75 323.776 131.326 323.044 132.274 323.044C133.294 323.044 133.834 323.692 133.858 324.52H130.702ZM134.026 326.02C133.81 326.668 133.342 327.184 132.406 327.184C131.434 327.184 130.69 326.464 130.666 325.432H135.01C135.022 325.36 135.034 325.216 135.034 325.072C135.034 323.272 134.038 322.048 132.262 322.048C130.81 322.048 129.502 323.284 129.502 325.096C129.502 327.052 130.858 328.18 132.406 328.18C133.75 328.18 134.674 327.376 134.998 326.356L134.026 326.02ZM138.976 326.452C138.976 327.364 139.732 328.18 140.908 328.18C141.94 328.18 142.516 327.628 142.768 327.22C142.768 327.64 142.804 327.856 142.828 328H143.932C143.908 327.856 143.86 327.556 143.86 327.052V324.16C143.86 323.032 143.188 322.048 141.46 322.048C140.212 322.048 139.216 322.816 139.096 323.92L140.176 324.172C140.248 323.5 140.692 323.008 141.484 323.008C142.36 323.008 142.732 323.476 142.732 324.04C142.732 324.244 142.636 324.424 142.288 324.472L140.728 324.7C139.732 324.844 138.976 325.42 138.976 326.452ZM141.064 327.232C140.488 327.232 140.128 326.824 140.128 326.392C140.128 325.876 140.488 325.6 140.968 325.528L142.732 325.264V325.528C142.732 326.788 141.988 327.232 141.064 327.232ZM148.168 328.312C148.312 329.548 149.392 330.46 150.832 330.46C153.004 330.46 153.724 329.032 153.724 327.568V322.228H152.608V323.032C152.32 322.456 151.72 322.12 150.832 322.12C149.248 322.12 148.18 323.368 148.18 324.928C148.18 326.56 149.296 327.724 150.832 327.724C151.696 327.724 152.32 327.304 152.596 326.776V327.604C152.596 328.852 152.044 329.476 150.832 329.476C149.956 329.476 149.344 328.864 149.26 328.06L148.168 328.312ZM151 326.776C149.98 326.776 149.332 326.056 149.332 324.928C149.332 323.812 150.004 323.08 151 323.08C151.972 323.08 152.644 323.812 152.644 324.928C152.644 326.044 151.972 326.776 151 326.776ZM156.621 328V319.312H155.493V328H156.621ZM160.958 327.172C159.998 327.172 159.158 326.452 159.158 325.108C159.158 323.776 159.998 323.056 160.958 323.056C161.918 323.056 162.758 323.776 162.758 325.108C162.758 326.452 161.918 327.172 160.958 327.172ZM160.958 322.048C159.23 322.048 158.006 323.356 158.006 325.108C158.006 326.872 159.23 328.18 160.958 328.18C162.686 328.18 163.91 326.872 163.91 325.108C163.91 323.356 162.686 322.048 160.958 322.048ZM166.411 328V327.16C166.771 327.784 167.431 328.156 168.283 328.156C169.999 328.156 170.971 326.8 170.971 325.084C170.971 323.404 170.071 322.06 168.319 322.06C167.359 322.06 166.687 322.528 166.411 323.044V319.312H165.295V328H166.411ZM169.819 325.084C169.819 326.332 169.147 327.148 168.115 327.148C167.119 327.148 166.399 326.332 166.399 325.084C166.399 323.836 167.119 323.056 168.115 323.056C169.159 323.056 169.819 323.836 169.819 325.084ZM171.98 326.452C171.98 327.364 172.736 328.18 173.912 328.18C174.944 328.18 175.52 327.628 175.772 327.22C175.772 327.64 175.808 327.856 175.832 328H176.936C176.912 327.856 176.864 327.556 176.864 327.052V324.16C176.864 323.032 176.192 322.048 174.464 322.048C173.216 322.048 172.22 322.816 172.1 323.92L173.18 324.172C173.252 323.5 173.696 323.008 174.488 323.008C175.364 323.008 175.736 323.476 175.736 324.04C175.736 324.244 175.64 324.424 175.292 324.472L173.732 324.7C172.736 324.844 171.98 325.42 171.98 326.452ZM174.068 327.232C173.492 327.232 173.132 326.824 173.132 326.392C173.132 325.876 173.492 325.6 173.972 325.528L175.736 325.264V325.528C175.736 326.788 174.992 327.232 174.068 327.232ZM179.717 328V319.312H178.589V328H179.717ZM184.069 326.452C184.069 327.364 184.825 328.18 186.001 328.18C187.033 328.18 187.609 327.628 187.861 327.22C187.861 327.64 187.897 327.856 187.921 328H189.025C189.001 327.856 188.953 327.556 188.953 327.052V324.16C188.953 323.032 188.281 322.048 186.553 322.048C185.305 322.048 184.309 322.816 184.189 323.92L185.269 324.172C185.341 323.5 185.785 323.008 186.577 323.008C187.453 323.008 187.825 323.476 187.825 324.04C187.825 324.244 187.729 324.424 187.381 324.472L185.821 324.7C184.825 324.844 184.069 325.42 184.069 326.452ZM186.157 327.232C185.581 327.232 185.221 326.824 185.221 326.392C185.221 325.876 185.581 325.6 186.061 325.528L187.825 325.264V325.528C187.825 326.788 187.081 327.232 186.157 327.232ZM193.199 323.092C194.183 323.092 194.603 323.752 194.747 324.316L195.767 323.884C195.527 323.008 194.735 322.048 193.199 322.048C191.555 322.048 190.295 323.308 190.295 325.108C190.295 326.86 191.531 328.18 193.211 328.18C194.711 328.18 195.539 327.208 195.815 326.38L194.819 325.948C194.687 326.404 194.291 327.136 193.211 327.136C192.275 327.136 191.447 326.428 191.447 325.108C191.447 323.764 192.287 323.092 193.199 323.092ZM199.611 323.092C200.595 323.092 201.015 323.752 201.159 324.316L202.179 323.884C201.939 323.008 201.147 322.048 199.611 322.048C197.967 322.048 196.707 323.308 196.707 325.108C196.707 326.86 197.943 328.18 199.623 328.18C201.123 328.18 201.951 327.208 202.227 326.38L201.231 325.948C201.099 326.404 200.703 327.136 199.623 327.136C198.687 327.136 197.859 326.428 197.859 325.108C197.859 323.764 198.699 323.092 199.611 323.092ZM204.32 324.52C204.368 323.776 204.944 323.044 205.892 323.044C206.912 323.044 207.452 323.692 207.476 324.52H204.32ZM207.644 326.02C207.428 326.668 206.96 327.184 206.024 327.184C205.052 327.184 204.308 326.464 204.284 325.432H208.628C208.64 325.36 208.652 325.216 208.652 325.072C208.652 323.272 207.656 322.048 205.88 322.048C204.428 322.048 203.12 323.284 203.12 325.096C203.12 327.052 204.476 328.18 206.024 328.18C207.368 328.18 208.292 327.376 208.616 326.356L207.644 326.02ZM209.555 326.5C209.651 327.16 210.323 328.18 211.907 328.18C213.335 328.18 214.019 327.208 214.019 326.392C214.019 325.54 213.467 324.904 212.423 324.676L211.487 324.472C211.043 324.376 210.827 324.124 210.827 323.776C210.827 323.38 211.211 323.008 211.787 323.008C212.699 323.008 212.939 323.668 212.987 323.968L213.983 323.596C213.863 323.08 213.371 322.048 211.787 322.048C210.659 322.048 209.735 322.888 209.735 323.872C209.735 324.688 210.275 325.3 211.175 325.492L212.159 325.708C212.639 325.816 212.903 326.092 212.903 326.452C212.903 326.86 212.555 327.22 211.919 327.22C211.103 327.22 210.647 326.74 210.575 326.14L209.555 326.5ZM214.96 326.5C215.056 327.16 215.728 328.18 217.312 328.18C218.74 328.18 219.424 327.208 219.424 326.392C219.424 325.54 218.872 324.904 217.828 324.676L216.892 324.472C216.448 324.376 216.232 324.124 216.232 323.776C216.232 323.38 216.616 323.008 217.192 323.008C218.104 323.008 218.344 323.668 218.392 323.968L219.388 323.596C219.268 323.08 218.776 322.048 217.192 322.048C216.064 322.048 215.14 322.888 215.14 323.872C215.14 324.688 215.68 325.3 216.58 325.492L217.564 325.708C218.044 325.816 218.308 326.092 218.308 326.452C218.308 326.86 217.96 327.22 217.324 327.22C216.508 327.22 216.052 326.74 215.98 326.14L214.96 326.5ZM226.356 327.172C225.396 327.172 224.556 326.452 224.556 325.108C224.556 323.776 225.396 323.056 226.356 323.056C227.316 323.056 228.156 323.776 228.156 325.108C228.156 326.452 227.316 327.172 226.356 327.172ZM226.356 322.048C224.628 322.048 223.404 323.356 223.404 325.108C223.404 326.872 224.628 328.18 226.356 328.18C228.084 328.18 229.308 326.872 229.308 325.108C229.308 323.356 228.084 322.048 226.356 322.048ZM233.611 323.248V322.228H232.219V321.316C232.219 320.524 232.735 320.332 233.131 320.332C233.419 320.332 233.563 320.38 233.623 320.404V319.396C233.575 319.36 233.335 319.276 232.951 319.276C231.907 319.276 231.055 319.972 231.055 321.256V322.228H229.987V323.248H231.055V328H232.219V323.248H233.611ZM242.256 322.228H241.044L239.388 326.68L237.744 322.228H236.472L238.812 328H239.952L242.256 322.228ZM244.52 328V322.228H243.404V328H244.52ZM243.152 320.044C243.152 320.488 243.512 320.848 243.956 320.848C244.412 320.848 244.772 320.488 244.772 320.044C244.772 319.588 244.412 319.228 243.956 319.228C243.512 319.228 243.152 319.588 243.152 320.044ZM247.105 324.52C247.153 323.776 247.729 323.044 248.677 323.044C249.697 323.044 250.237 323.692 250.261 324.52H247.105ZM250.429 326.02C250.213 326.668 249.745 327.184 248.809 327.184C247.837 327.184 247.093 326.464 247.069 325.432H251.413C251.425 325.36 251.437 325.216 251.437 325.072C251.437 323.272 250.441 322.048 248.665 322.048C247.213 322.048 245.905 323.284 245.905 325.096C245.905 327.052 247.261 328.18 248.809 328.18C250.153 328.18 251.077 327.376 251.401 326.356L250.429 326.02ZM256.099 322.228L254.599 326.572L253.303 322.228H252.067L253.963 328H255.151L256.651 323.608L258.187 328H259.351L261.223 322.228H260.035L258.763 326.572L257.263 322.228H256.099ZM26.484 339.404H25.452V340.34C25.452 340.844 25.188 341.228 24.564 341.228H24.252V342.248H25.356V345.416C25.356 346.46 25.98 347.06 26.964 347.06C27.348 347.06 27.636 346.988 27.732 346.952V345.992C27.636 346.016 27.432 346.04 27.288 346.04C26.7 346.04 26.484 345.776 26.484 345.248V342.248H27.732V341.228H26.484V339.404ZM30.1442 343.604C30.1682 342.752 30.6242 342.08 31.4882 342.08C32.4962 342.08 32.8322 342.728 32.8322 343.532V347H33.9602V343.34C33.9602 342.056 33.2762 341.06 31.8962 341.06C31.2362 341.06 30.5642 341.288 30.1442 341.9V338.312H29.0162V347H30.1442V343.604ZM36.7793 347V341.228H35.6633V347H36.7793ZM35.4113 339.044C35.4113 339.488 35.7713 339.848 36.2153 339.848C36.6713 339.848 37.0313 339.488 37.0313 339.044C37.0313 338.588 36.6713 338.228 36.2153 338.228C35.7713 338.228 35.4113 338.588 35.4113 339.044ZM38.0927 345.5C38.1887 346.16 38.8607 347.18 40.4447 347.18C41.8727 347.18 42.5567 346.208 42.5567 345.392C42.5567 344.54 42.0047 343.904 40.9607 343.676L40.0247 343.472C39.5807 343.376 39.3647 343.124 39.3647 342.776C39.3647 342.38 39.7487 342.008 40.3247 342.008C41.2367 342.008 41.4767 342.668 41.5247 342.968L42.5207 342.596C42.4007 342.08 41.9087 341.048 40.3247 341.048C39.1967 341.048 38.2727 341.888 38.2727 342.872C38.2727 343.688 38.8127 344.3 39.7127 344.492L40.6967 344.708C41.1767 344.816 41.4407 345.092 41.4407 345.452C41.4407 345.86 41.0927 346.22 40.4567 346.22C39.6407 346.22 39.1847 345.74 39.1127 345.14L38.0927 345.5ZM47.7011 344.096C47.7011 342.908 48.3731 342.068 49.4051 342.068C50.4371 342.068 51.0611 342.884 51.0611 344.072C51.0611 345.26 50.4251 346.16 49.3931 346.16C48.3131 346.16 47.7011 345.284 47.7011 344.096ZM51.0731 346.22C51.0731 346.568 51.1091 346.868 51.1331 347H52.2251C52.2131 346.904 52.1651 346.484 52.1651 345.932V338.312H51.0491V342.044C50.8571 341.576 50.3051 341.072 49.2851 341.072C47.6531 341.072 46.5491 342.464 46.5491 344.096C46.5491 345.812 47.5931 347.156 49.2851 347.156C50.1851 347.156 50.7971 346.676 51.0731 346.124V346.22ZM56.5112 346.172C55.5512 346.172 54.7112 345.452 54.7112 344.108C54.7112 342.776 55.5512 342.056 56.5112 342.056C57.4712 342.056 58.3112 342.776 58.3112 344.108C58.3112 345.452 57.4712 346.172 56.5112 346.172ZM56.5112 341.048C54.7832 341.048 53.5592 342.356 53.5592 344.108C53.5592 345.872 54.7832 347.18 56.5112 347.18C58.2392 347.18 59.4632 345.872 59.4632 344.108C59.4632 342.356 58.2392 341.048 56.5112 341.048ZM63.3681 342.092C64.3521 342.092 64.7721 342.752 64.9161 343.316L65.9361 342.884C65.6961 342.008 64.9041 341.048 63.3681 341.048C61.7241 341.048 60.4641 342.308 60.4641 344.108C60.4641 345.86 61.7001 347.18 63.3801 347.18C64.8801 347.18 65.7081 346.208 65.9841 345.38L64.9881 344.948C64.8561 345.404 64.4601 346.136 63.3801 346.136C62.4441 346.136 61.6161 345.428 61.6161 344.108C61.6161 342.764 62.4561 342.092 63.3681 342.092ZM67.0329 346.232C67.0329 346.748 67.3929 347.048 67.8369 347.048C67.9689 347.048 68.0649 347.012 68.1009 346.988C68.0889 347.564 67.6929 348.152 67.1049 348.284V348.908C67.8489 348.812 68.8809 348.152 68.8809 346.568C68.8809 345.812 68.4249 345.428 67.9089 345.428C67.4049 345.428 67.0329 345.8 67.0329 346.232ZM72.9272 345.5C73.0232 346.16 73.6952 347.18 75.2792 347.18C76.7072 347.18 77.3912 346.208 77.3912 345.392C77.3912 344.54 76.8392 343.904 75.7952 343.676L74.8592 343.472C74.4152 343.376 74.1992 343.124 74.1992 342.776C74.1992 342.38 74.5832 342.008 75.1592 342.008C76.0712 342.008 76.3112 342.668 76.3592 342.968L77.3552 342.596C77.2352 342.08 76.7432 341.048 75.1592 341.048C74.0312 341.048 73.1072 341.888 73.1072 342.872C73.1072 343.688 73.6472 344.3 74.5472 344.492L75.5312 344.708C76.0112 344.816 76.2752 345.092 76.2752 345.452C76.2752 345.86 75.9272 346.22 75.2912 346.22C74.4752 346.22 74.0192 345.74 73.9472 345.14L72.9272 345.5ZM79.9162 343.604C79.9402 342.752 80.3962 342.08 81.2602 342.08C82.2682 342.08 82.6042 342.728 82.6042 343.532V347H83.7322V343.34C83.7322 342.056 83.0482 341.06 81.6682 341.06C81.0082 341.06 80.3362 341.288 79.9162 341.9V338.312H78.7882V347H79.9162V343.604ZM85.0513 345.452C85.0513 346.364 85.8073 347.18 86.9833 347.18C88.0153 347.18 88.5913 346.628 88.8433 346.22C88.8433 346.64 88.8793 346.856 88.9033 347H90.0073C89.9833 346.856 89.9353 346.556 89.9353 346.052V343.16C89.9353 342.032 89.2633 341.048 87.5353 341.048C86.2873 341.048 85.2913 341.816 85.1713 342.92L86.2513 343.172C86.3233 342.5 86.7673 342.008 87.5593 342.008C88.4353 342.008 88.8073 342.476 88.8073 343.04C88.8073 343.244 88.7113 343.424 88.3633 343.472L86.8033 343.7C85.8073 343.844 85.0513 344.42 85.0513 345.452ZM87.1393 346.232C86.5633 346.232 86.2033 345.824 86.2033 345.392C86.2033 344.876 86.5633 344.6 87.0433 344.528L88.8073 344.264V344.528C88.8073 345.788 88.0633 346.232 87.1393 346.232ZM94.8646 341.168C94.8046 341.156 94.6486 341.132 94.4926 341.132C93.9046 341.132 93.1846 341.348 92.7646 342.236V341.228H91.6606V347H92.7886V344.108C92.7886 342.836 93.4246 342.332 94.3726 342.332C94.5286 342.332 94.6966 342.344 94.8646 342.368V341.168ZM96.6745 343.52C96.7225 342.776 97.2985 342.044 98.2465 342.044C99.2665 342.044 99.8065 342.692 99.8305 343.52H96.6745ZM99.9985 345.02C99.7825 345.668 99.3145 346.184 98.3785 346.184C97.4065 346.184 96.6625 345.464 96.6385 344.432H100.982C100.994 344.36 101.006 344.216 101.006 344.072C101.006 342.272 100.01 341.048 98.2345 341.048C96.7825 341.048 95.4745 342.284 95.4745 344.096C95.4745 346.052 96.8305 347.18 98.3785 347.18C99.7225 347.18 100.646 346.376 100.97 345.356L99.9985 345.02ZM106.682 339.404H105.65V340.34C105.65 340.844 105.386 341.228 104.762 341.228H104.45V342.248H105.554V345.416C105.554 346.46 106.178 347.06 107.162 347.06C107.546 347.06 107.834 346.988 107.93 346.952V345.992C107.834 346.016 107.63 346.04 107.486 346.04C106.898 346.04 106.682 345.776 106.682 345.248V342.248H107.93V341.228H106.682V339.404ZM110.342 343.604C110.366 342.752 110.822 342.08 111.686 342.08C112.694 342.08 113.03 342.728 113.03 343.532V347H114.158V343.34C114.158 342.056 113.474 341.06 112.094 341.06C111.434 341.06 110.762 341.288 110.342 341.9V338.312H109.214V347H110.342V343.604ZM116.677 343.52C116.725 342.776 117.301 342.044 118.249 342.044C119.269 342.044 119.809 342.692 119.833 343.52H116.677ZM120.001 345.02C119.785 345.668 119.317 346.184 118.381 346.184C117.409 346.184 116.665 345.464 116.641 344.432H120.985C120.997 344.36 121.009 344.216 121.009 344.072C121.009 342.272 120.013 341.048 118.237 341.048C116.785 341.048 115.477 342.284 115.477 344.096C115.477 346.052 116.833 347.18 118.381 347.18C119.725 347.18 120.649 346.376 120.973 345.356L120.001 345.02ZM126.463 347V338.312H125.335V347H126.463ZM129.348 347V341.228H128.232V347H129.348ZM127.98 339.044C127.98 339.488 128.34 339.848 128.784 339.848C129.24 339.848 129.6 339.488 129.6 339.044C129.6 338.588 129.24 338.228 128.784 338.228C128.34 338.228 127.98 338.588 127.98 339.044ZM132.245 343.664C132.245 342.788 132.701 342.08 133.589 342.08C134.597 342.08 134.933 342.728 134.933 343.532V347H136.061V343.34C136.061 342.056 135.377 341.06 133.997 341.06C133.325 341.06 132.641 341.336 132.221 342.056V341.228H131.117V347H132.245V343.664ZM142.937 341.228H141.377L138.881 343.784V338.312H137.765V347H138.881V345.26L139.685 344.456L141.569 347H142.985L140.477 343.664L142.937 341.228ZM148.342 339.404H147.31V340.34C147.31 340.844 147.046 341.228 146.422 341.228H146.11V342.248H147.214V345.416C147.214 346.46 147.838 347.06 148.822 347.06C149.206 347.06 149.494 346.988 149.59 346.952V345.992C149.494 346.016 149.29 346.04 149.146 346.04C148.558 346.04 148.342 345.776 148.342 345.248V342.248H149.59V341.228H148.342V339.404ZM153.395 346.172C152.435 346.172 151.595 345.452 151.595 344.108C151.595 342.776 152.435 342.056 153.395 342.056C154.355 342.056 155.195 342.776 155.195 344.108C155.195 345.452 154.355 346.172 153.395 346.172ZM153.395 341.048C151.667 341.048 150.443 342.356 150.443 344.108C150.443 345.872 151.667 347.18 153.395 347.18C155.123 347.18 156.347 345.872 156.347 344.108C156.347 342.356 155.123 341.048 153.395 341.048ZM160.315 345.452C160.315 346.364 161.071 347.18 162.247 347.18C163.279 347.18 163.855 346.628 164.107 346.22C164.107 346.64 164.143 346.856 164.167 347H165.271C165.247 346.856 165.199 346.556 165.199 346.052V343.16C165.199 342.032 164.527 341.048 162.799 341.048C161.551 341.048 160.555 341.816 160.435 342.92L161.515 343.172C161.587 342.5 162.031 342.008 162.823 342.008C163.699 342.008 164.071 342.476 164.071 343.04C164.071 343.244 163.975 343.424 163.627 343.472L162.067 343.7C161.071 343.844 160.315 344.42 160.315 345.452ZM162.403 346.232C161.827 346.232 161.467 345.824 161.467 345.392C161.467 344.876 161.827 344.6 162.307 344.528L164.071 344.264V344.528C164.071 345.788 163.327 346.232 162.403 346.232ZM168.053 343.664C168.053 342.788 168.509 342.08 169.397 342.08C170.405 342.08 170.741 342.728 170.741 343.532V347H171.869V343.34C171.869 342.056 171.185 341.06 169.805 341.06C169.133 341.06 168.449 341.336 168.029 342.056V341.228H166.925V347H168.053V343.664ZM175.004 349.412L178.76 341.228H177.548L175.82 345.212L174.02 341.228H172.724L175.208 346.364L173.768 349.412H175.004ZM182.178 346.172C181.218 346.172 180.378 345.452 180.378 344.108C180.378 342.776 181.218 342.056 182.178 342.056C183.138 342.056 183.978 342.776 183.978 344.108C183.978 345.452 183.138 346.172 182.178 346.172ZM182.178 341.048C180.45 341.048 179.226 342.356 179.226 344.108C179.226 345.872 180.45 347.18 182.178 347.18C183.906 347.18 185.13 345.872 185.13 344.108C185.13 342.356 183.906 341.048 182.178 341.048ZM187.643 343.664C187.643 342.788 188.099 342.08 188.987 342.08C189.995 342.08 190.331 342.728 190.331 343.532V347H191.459V343.34C191.459 342.056 190.775 341.06 189.395 341.06C188.723 341.06 188.039 341.336 187.619 342.056V341.228H186.515V347H187.643V343.664ZM193.978 343.52C194.026 342.776 194.602 342.044 195.55 342.044C196.57 342.044 197.11 342.692 197.134 343.52H193.978ZM197.302 345.02C197.086 345.668 196.618 346.184 195.682 346.184C194.71 346.184 193.966 345.464 193.942 344.432H198.286C198.298 344.36 198.31 344.216 198.31 344.072C198.31 342.272 197.314 341.048 195.538 341.048C194.086 341.048 192.778 342.284 192.778 344.096C192.778 346.052 194.134 347.18 195.682 347.18C197.026 347.18 197.95 346.376 198.274 345.356L197.302 345.02ZM203.764 343.664C203.764 342.788 204.22 342.08 205.108 342.08C206.116 342.08 206.452 342.728 206.452 343.532V347H207.58V343.34C207.58 342.056 206.896 341.06 205.516 341.06C204.844 341.06 204.16 341.336 203.74 342.056V341.228H202.636V347H203.764V343.664ZM211.851 346.172C210.891 346.172 210.051 345.452 210.051 344.108C210.051 342.776 210.891 342.056 211.851 342.056C212.811 342.056 213.651 342.776 213.651 344.108C213.651 345.452 212.811 346.172 211.851 346.172ZM211.851 341.048C210.123 341.048 208.899 342.356 208.899 344.108C208.899 345.872 210.123 347.18 211.851 347.18C213.579 347.18 214.803 345.872 214.803 344.108C214.803 342.356 213.579 341.048 211.851 341.048ZM217.666 339.404H216.634V340.34C216.634 340.844 216.37 341.228 215.746 341.228H215.434V342.248H216.538V345.416C216.538 346.46 217.162 347.06 218.146 347.06C218.53 347.06 218.818 346.988 218.914 346.952V345.992C218.818 346.016 218.614 346.04 218.47 346.04C217.882 346.04 217.666 345.776 217.666 345.248V342.248H218.914V341.228H217.666V339.404ZM226.969 346.304C226.969 346.544 226.993 346.868 227.017 347H228.097C228.073 346.796 228.037 346.388 228.037 345.932V341.228H226.909V344.708C226.909 345.584 226.453 346.184 225.541 346.184C224.593 346.184 224.233 345.488 224.233 344.696V341.228H223.105V344.864C223.105 346.172 223.921 347.18 225.265 347.18C225.937 347.18 226.657 346.904 226.969 346.304ZM229.357 345.5C229.453 346.16 230.125 347.18 231.709 347.18C233.137 347.18 233.821 346.208 233.821 345.392C233.821 344.54 233.269 343.904 232.225 343.676L231.289 343.472C230.845 343.376 230.629 343.124 230.629 342.776C230.629 342.38 231.013 342.008 231.589 342.008C232.501 342.008 232.741 342.668 232.789 342.968L233.785 342.596C233.665 342.08 233.173 341.048 231.589 341.048C230.461 341.048 229.537 341.888 229.537 342.872C229.537 343.688 230.077 344.3 230.977 344.492L231.961 344.708C232.441 344.816 232.705 345.092 232.705 345.452C232.705 345.86 232.357 346.22 231.721 346.22C230.905 346.22 230.449 345.74 230.377 345.14L229.357 345.5ZM236.334 347V341.228H235.218V347H236.334ZM234.966 339.044C234.966 339.488 235.326 339.848 235.77 339.848C236.226 339.848 236.586 339.488 236.586 339.044C236.586 338.588 236.226 338.228 235.77 338.228C235.326 338.228 234.966 338.588 234.966 339.044ZM239.231 343.664C239.231 342.788 239.687 342.08 240.575 342.08C241.583 342.08 241.919 342.728 241.919 343.532V347H243.047V343.34C243.047 342.056 242.363 341.06 240.983 341.06C240.311 341.06 239.627 341.336 239.207 342.056V341.228H238.103V347H239.231V343.664ZM244.366 347.312C244.51 348.548 245.59 349.46 247.03 349.46C249.202 349.46 249.922 348.032 249.922 346.568V341.228H248.806V342.032C248.518 341.456 247.918 341.12 247.03 341.12C245.446 341.12 244.378 342.368 244.378 343.928C244.378 345.56 245.494 346.724 247.03 346.724C247.894 346.724 248.518 346.304 248.794 345.776V346.604C248.794 347.852 248.242 348.476 247.03 348.476C246.154 348.476 245.542 347.864 245.458 347.06L244.366 347.312ZM247.198 345.776C246.178 345.776 245.53 345.056 245.53 343.928C245.53 342.812 246.202 342.08 247.198 342.08C248.17 342.08 248.842 342.812 248.842 343.928C248.842 345.044 248.17 345.776 247.198 345.776ZM26.484 358.404H25.452V359.34C25.452 359.844 25.188 360.228 24.564 360.228H24.252V361.248H25.356V364.416C25.356 365.46 25.98 366.06 26.964 366.06C27.348 366.06 27.636 365.988 27.732 365.952V364.992C27.636 365.016 27.432 365.04 27.288 365.04C26.7 365.04 26.484 364.776 26.484 364.248V361.248H27.732V360.228H26.484V358.404ZM30.1442 362.604C30.1682 361.752 30.6242 361.08 31.4882 361.08C32.4962 361.08 32.8322 361.728 32.8322 362.532V366H33.9602V362.34C33.9602 361.056 33.2762 360.06 31.8962 360.06C31.2362 360.06 30.5642 360.288 30.1442 360.9V357.312H29.0162V366H30.1442V362.604ZM36.4793 362.52C36.5273 361.776 37.1033 361.044 38.0513 361.044C39.0713 361.044 39.6113 361.692 39.6353 362.52H36.4793ZM39.8033 364.02C39.5873 364.668 39.1193 365.184 38.1833 365.184C37.2113 365.184 36.4673 364.464 36.4433 363.432H40.7873C40.7993 363.36 40.8113 363.216 40.8113 363.072C40.8113 361.272 39.8153 360.048 38.0393 360.048C36.5873 360.048 35.2793 361.284 35.2793 363.096C35.2793 365.052 36.6353 366.18 38.1833 366.18C39.5273 366.18 40.4513 365.376 40.7753 364.356L39.8033 364.02ZM46.2652 366V357.312H45.1372V366H46.2652ZM48.8503 362.52C48.8983 361.776 49.4743 361.044 50.4223 361.044C51.4423 361.044 51.9823 361.692 52.0063 362.52H48.8503ZM52.1743 364.02C51.9583 364.668 51.4903 365.184 50.5543 365.184C49.5823 365.184 48.8383 364.464 48.8143 363.432H53.1583C53.1703 363.36 53.1823 363.216 53.1823 363.072C53.1823 361.272 52.1863 360.048 50.4103 360.048C48.9583 360.048 47.6503 361.284 47.6503 363.096C47.6503 365.052 49.0063 366.18 50.5543 366.18C51.8983 366.18 52.8223 365.376 53.1463 364.356L52.1743 364.02ZM54.1568 364.452C54.1568 365.364 54.9128 366.18 56.0888 366.18C57.1208 366.18 57.6968 365.628 57.9488 365.22C57.9488 365.64 57.9848 365.856 58.0088 366H59.1128C59.0888 365.856 59.0408 365.556 59.0408 365.052V362.16C59.0408 361.032 58.3688 360.048 56.6408 360.048C55.3928 360.048 54.3968 360.816 54.2768 361.92L55.3568 362.172C55.4288 361.5 55.8728 361.008 56.6648 361.008C57.5408 361.008 57.9128 361.476 57.9128 362.04C57.9128 362.244 57.8168 362.424 57.4688 362.472L55.9088 362.7C54.9128 362.844 54.1568 363.42 54.1568 364.452ZM56.2448 365.232C55.6688 365.232 55.3088 364.824 55.3088 364.392C55.3088 363.876 55.6688 363.6 56.1488 363.528L57.9128 363.264V363.528C57.9128 364.788 57.1688 365.232 56.2448 365.232ZM63.9701 360.168C63.9101 360.156 63.7541 360.132 63.5981 360.132C63.0101 360.132 62.2901 360.348 61.8701 361.236V360.228H60.7661V366H61.8941V363.108C61.8941 361.836 62.5301 361.332 63.4781 361.332C63.6341 361.332 63.8021 361.344 63.9701 361.368V360.168ZM66.1975 362.664C66.1975 361.788 66.6535 361.08 67.5415 361.08C68.5495 361.08 68.8855 361.728 68.8855 362.532V366H70.0135V362.34C70.0135 361.056 69.3295 360.06 67.9495 360.06C67.2775 360.06 66.5935 360.336 66.1735 361.056V360.228H65.0695V366H66.1975V362.664ZM75.8 368.28V365.22C76.112 365.736 76.784 366.156 77.672 366.156C79.364 366.156 80.36 364.824 80.36 363.108C80.36 361.428 79.436 360.096 77.708 360.096C76.772 360.096 76.088 360.552 75.776 361.128V360.228H74.684V368.28H75.8ZM79.208 363.108C79.208 364.296 78.548 365.148 77.504 365.148C76.472 365.148 75.788 364.296 75.788 363.108C75.788 361.956 76.472 361.092 77.504 361.092C78.56 361.092 79.208 361.956 79.208 363.108ZM82.881 366V357.312H81.753V366H82.881ZM84.2662 364.452C84.2662 365.364 85.0222 366.18 86.1982 366.18C87.2302 366.18 87.8062 365.628 88.0582 365.22C88.0582 365.64 88.0942 365.856 88.1182 366H89.2222C89.1982 365.856 89.1502 365.556 89.1502 365.052V362.16C89.1502 361.032 88.4782 360.048 86.7502 360.048C85.5022 360.048 84.5062 360.816 84.3862 361.92L85.4662 362.172C85.5382 361.5 85.9822 361.008 86.7742 361.008C87.6502 361.008 88.0222 361.476 88.0222 362.04C88.0222 362.244 87.9262 362.424 87.5782 362.472L86.0182 362.7C85.0222 362.844 84.2662 363.42 84.2662 364.452ZM86.3542 365.232C85.7782 365.232 85.4182 364.824 85.4182 364.392C85.4182 363.876 85.7782 363.6 86.2582 363.528L88.0222 363.264V363.528C88.0222 364.788 87.2782 365.232 86.3542 365.232ZM92.4005 358.404H91.3685V359.34C91.3685 359.844 91.1045 360.228 90.4805 360.228H90.1685V361.248H91.2725V364.416C91.2725 365.46 91.8965 366.06 92.8805 366.06C93.2645 366.06 93.5525 365.988 93.6485 365.952V364.992C93.5525 365.016 93.3485 365.04 93.2045 365.04C92.6165 365.04 92.4005 364.776 92.4005 364.248V361.248H93.6485V360.228H92.4005V358.404ZM97.9447 361.248V360.228H96.5527V359.316C96.5527 358.524 97.0687 358.332 97.4647 358.332C97.7527 358.332 97.8967 358.38 97.9567 358.404V357.396C97.9087 357.36 97.6687 357.276 97.2847 357.276C96.2407 357.276 95.3887 357.972 95.3887 359.256V360.228H94.3207V361.248H95.3887V366H96.5527V361.248H97.9447ZM101.511 365.172C100.551 365.172 99.7111 364.452 99.7111 363.108C99.7111 361.776 100.551 361.056 101.511 361.056C102.471 361.056 103.311 361.776 103.311 363.108C103.311 364.452 102.471 365.172 101.511 365.172ZM101.511 360.048C99.7831 360.048 98.5591 361.356 98.5591 363.108C98.5591 364.872 99.7831 366.18 101.511 366.18C103.239 366.18 104.463 364.872 104.463 363.108C104.463 361.356 103.239 360.048 101.511 360.048ZM109.052 360.168C108.992 360.156 108.836 360.132 108.68 360.132C108.092 360.132 107.372 360.348 106.952 361.236V360.228H105.848V366H106.976V363.108C106.976 361.836 107.612 361.332 108.56 361.332C108.716 361.332 108.884 361.344 109.052 361.368V360.168ZM111.267 366V362.52C111.267 361.656 111.807 361.056 112.611 361.056C113.475 361.056 113.835 361.632 113.835 362.376V366H114.963V362.508C114.963 361.68 115.503 361.056 116.295 361.056C117.147 361.056 117.519 361.62 117.519 362.376V366H118.635V362.256C118.635 360.744 117.651 360.06 116.643 360.06C115.911 360.06 115.167 360.324 114.711 361.152C114.399 360.408 113.703 360.06 112.983 360.06C112.311 360.06 111.591 360.36 111.231 360.996V360.228H110.151V366H111.267Z" fill="#7C8698"/>
<rect x="24" y="388" width="240" height="41" rx="8" fill="#1A202C"/>
<path d="M99.321 412V407.333H94.81V408.698H97.852C97.774 409.491 97.072 410.765 95.213 410.765C93.627 410.765 92.171 409.634 92.171 407.385C92.171 405.097 93.731 404.031 95.226 404.031C96.695 404.031 97.605 404.915 97.917 405.955L99.386 405.396C98.892 403.875 97.462 402.588 95.226 402.588C92.834 402.588 90.585 404.356 90.585 407.385C90.585 410.427 92.717 412.195 95.122 412.195C96.591 412.195 97.54 411.506 97.943 410.83L98.06 412H99.321ZM102.125 408.139C102.177 407.463 102.723 406.735 103.672 406.735C104.712 406.735 105.206 407.398 105.232 408.139H102.125ZM105.401 409.79C105.193 410.414 104.725 410.895 103.815 410.895C102.879 410.895 102.125 410.206 102.086 409.244H106.714C106.727 409.218 106.753 409.01 106.753 408.763C106.753 406.761 105.609 405.474 103.659 405.474C102.06 405.474 100.578 406.8 100.578 408.802C100.578 410.947 102.099 412.195 103.815 412.195C105.336 412.195 106.337 411.298 106.675 410.193L105.401 409.79ZM109.664 408.347C109.664 407.515 110.119 406.852 110.977 406.852C111.926 406.852 112.277 407.476 112.277 408.256V412H113.785V407.996C113.785 406.605 113.044 405.487 111.497 405.487C110.795 405.487 110.041 405.786 109.625 406.514V405.669H108.156V412H109.664V408.347ZM116.679 408.139C116.731 407.463 117.277 406.735 118.226 406.735C119.266 406.735 119.76 407.398 119.786 408.139H116.679ZM119.955 409.79C119.747 410.414 119.279 410.895 118.369 410.895C117.433 410.895 116.679 410.206 116.64 409.244H121.268C121.281 409.218 121.307 409.01 121.307 408.763C121.307 406.761 120.163 405.474 118.213 405.474C116.614 405.474 115.132 406.8 115.132 408.802C115.132 410.947 116.653 412.195 118.369 412.195C119.89 412.195 120.891 411.298 121.229 410.193L119.955 409.79ZM126.416 405.63C126.351 405.617 126.195 405.591 126.013 405.591C125.181 405.591 124.479 405.994 124.18 406.683V405.669H122.711V412H124.219V408.984C124.219 407.801 124.752 407.125 125.922 407.125C126.078 407.125 126.247 407.138 126.416 407.164V405.63ZM127.161 410.284C127.161 411.285 127.98 412.195 129.306 412.195C130.333 412.195 130.957 411.675 131.256 411.194C131.256 411.701 131.308 411.961 131.321 412H132.725C132.712 411.935 132.647 411.558 132.647 410.986V407.84C132.647 406.579 131.906 405.474 129.956 405.474C128.396 405.474 127.408 406.449 127.291 407.541L128.669 407.853C128.734 407.216 129.176 406.709 129.969 406.709C130.801 406.709 131.165 407.138 131.165 407.671C131.165 407.892 131.061 408.074 130.697 408.126L129.072 408.373C127.993 408.529 127.161 409.153 127.161 410.284ZM129.592 411.012C128.994 411.012 128.669 410.622 128.669 410.193C128.669 409.673 129.046 409.413 129.514 409.335L131.165 409.088V409.374C131.165 410.609 130.437 411.012 129.592 411.012ZM136.347 403.732H134.982V404.681C134.982 405.24 134.683 405.669 134.007 405.669H133.682V407.008H134.852V410.193C134.852 411.376 135.58 412.078 136.75 412.078C137.296 412.078 137.582 411.974 137.673 411.935V410.687C137.608 410.7 137.361 410.739 137.153 410.739C136.594 410.739 136.347 410.505 136.347 409.946V407.008H137.66V405.669H136.347V403.732ZM140.139 408.139C140.191 407.463 140.737 406.735 141.686 406.735C142.726 406.735 143.22 407.398 143.246 408.139H140.139ZM143.415 409.79C143.207 410.414 142.739 410.895 141.829 410.895C140.893 410.895 140.139 410.206 140.1 409.244H144.728C144.741 409.218 144.767 409.01 144.767 408.763C144.767 406.761 143.623 405.474 141.673 405.474C140.074 405.474 138.592 406.8 138.592 408.802C138.592 410.947 140.113 412.195 141.829 412.195C143.35 412.195 144.351 411.298 144.689 410.193L143.415 409.79ZM155.264 412V410.518H151.039V402.783H149.479V412H155.264ZM157.853 412V405.669H156.358V412H157.853ZM156.124 403.446C156.124 403.992 156.566 404.421 157.099 404.421C157.645 404.421 158.087 403.992 158.087 403.446C158.087 402.9 157.645 402.458 157.099 402.458C156.566 402.458 156.124 402.9 156.124 403.446ZM161.169 408.347C161.169 407.515 161.624 406.852 162.482 406.852C163.431 406.852 163.782 407.476 163.782 408.256V412H165.29V407.996C165.29 406.605 164.549 405.487 163.002 405.487C162.3 405.487 161.546 405.786 161.13 406.514V405.669H159.661V412H161.169V408.347ZM172.968 405.669H170.966L168.535 408.23V402.588H167.04V412H168.535V410.232L169.315 409.413L171.174 412H173.02L170.368 408.347L172.968 405.669Z" fill="white"/>
<path d="M185.249 408C185.249 406.575 186.408 405.417 187.833 405.417H191.166V403.833H187.833C185.533 403.833 183.666 405.7 183.666 408C183.666 410.3 185.533 412.167 187.833 412.167H191.166V410.583H187.833C186.408 410.583 185.249 409.425 185.249 408ZM188.666 408.833H195.333V407.167H188.666V408.833ZM196.166 403.833H192.833V405.417H196.166C197.591 405.417 198.749 406.575 198.749 408C198.749 409.425 197.591 410.583 196.166 410.583H192.833V412.167H196.166C198.466 412.167 200.333 410.3 200.333 408C200.333 405.7 198.466 403.833 196.166 403.833Z" fill="white"/>
<rect width="288" height="159" rx="8" fill="#02A971"/>
<path d="M95.344 81.872V78.352H97.344C98.56 78.352 99.296 79.04 99.296 80.128C99.296 81.2 98.56 81.872 97.344 81.872H95.344ZM97.632 83.568C99.808 83.568 101.248 82.112 101.248 80.112C101.248 78.128 99.808 76.656 97.632 76.656H93.424V88H95.344V83.568H97.632ZM101.993 85.888C101.993 87.12 103.001 88.24 104.633 88.24C105.897 88.24 106.665 87.6 107.033 87.008C107.033 87.632 107.097 87.952 107.113 88H108.841C108.825 87.92 108.745 87.456 108.745 86.752V82.88C108.745 81.328 107.833 79.968 105.433 79.968C103.513 79.968 102.297 81.168 102.153 82.512L103.849 82.896C103.929 82.112 104.473 81.488 105.449 81.488C106.473 81.488 106.921 82.016 106.921 82.672C106.921 82.944 106.793 83.168 106.345 83.232L104.345 83.536C103.017 83.728 101.993 84.496 101.993 85.888ZM104.985 86.784C104.249 86.784 103.849 86.304 103.849 85.776C103.849 85.136 104.313 84.816 104.889 84.72L106.921 84.416V84.768C106.921 86.288 106.025 86.784 104.985 86.784ZM113.197 91.152L118.157 80.208H116.189L114.093 85.136L111.853 80.208H109.757L113.085 87.072L111.213 91.152H113.197ZM121.236 88V83.376C121.236 82.384 121.86 81.648 122.852 81.648C123.908 81.648 124.356 82.352 124.356 83.248V88H126.18V83.376C126.18 82.416 126.82 81.648 127.796 81.648C128.836 81.648 129.3 82.336 129.3 83.248V88H131.092V82.944C131.092 80.88 129.748 79.984 128.34 79.984C127.332 79.984 126.42 80.336 125.812 81.36C125.396 80.448 124.5 79.984 123.476 79.984C122.596 79.984 121.62 80.4 121.172 81.2V80.208H119.396V88H121.236ZM134.641 83.248C134.705 82.416 135.377 81.52 136.545 81.52C137.825 81.52 138.433 82.336 138.465 83.248H134.641ZM138.673 85.28C138.417 86.048 137.841 86.64 136.721 86.64C135.569 86.64 134.641 85.792 134.593 84.608H140.289C140.305 84.576 140.337 84.32 140.337 84.016C140.337 81.552 138.929 79.968 136.529 79.968C134.561 79.968 132.737 81.6 132.737 84.064C132.737 86.704 134.609 88.24 136.721 88.24C138.593 88.24 139.825 87.136 140.241 85.776L138.673 85.28ZM143.909 83.504C143.909 82.48 144.469 81.664 145.525 81.664C146.693 81.664 147.125 82.432 147.125 83.392V88H148.981V83.072C148.981 81.36 148.069 79.984 146.165 79.984C145.301 79.984 144.373 80.352 143.861 81.248V80.208H142.053V88H143.909V83.504ZM153.494 77.824H151.814V78.992C151.814 79.68 151.446 80.208 150.614 80.208H150.214V81.856H151.654V85.776C151.654 87.232 152.55 88.096 153.99 88.096C154.662 88.096 155.014 87.968 155.126 87.92V86.384C155.046 86.4 154.742 86.448 154.486 86.448C153.798 86.448 153.494 86.16 153.494 85.472V81.856H155.11V80.208H153.494V77.824ZM161.954 84.08C161.954 82.592 162.85 81.648 164.066 81.648C165.282 81.648 166.114 82.576 166.114 84.064C166.114 85.552 165.266 86.56 164.05 86.56C162.786 86.56 161.954 85.568 161.954 84.08ZM167.906 76.416H166.098V81.12C165.858 80.624 165.17 80 163.81 80C161.618 80 160.098 81.84 160.098 84.08C160.098 86.432 161.602 88.192 163.842 88.192C164.946 88.192 165.762 87.648 166.13 86.992C166.13 87.312 166.178 87.824 166.21 88H167.986C167.97 87.872 167.906 87.28 167.906 86.576V76.416ZM173.654 86.576C172.518 86.576 171.478 85.712 171.478 84.096C171.478 82.48 172.518 81.648 173.654 81.648C174.806 81.648 175.83 82.48 175.83 84.096C175.83 85.728 174.806 86.576 173.654 86.576ZM173.654 79.968C171.334 79.968 169.622 81.712 169.622 84.096C169.622 86.496 171.334 88.24 173.654 88.24C175.99 88.24 177.702 86.496 177.702 84.096C177.702 81.712 175.99 79.968 173.654 79.968ZM181.28 83.504C181.28 82.48 181.84 81.664 182.896 81.664C184.064 81.664 184.496 82.432 184.496 83.392V88H186.352V83.072C186.352 81.36 185.44 79.984 183.536 79.984C182.672 79.984 181.744 80.352 181.232 81.248V80.208H179.424V88H181.28V83.504ZM189.903 83.248C189.967 82.416 190.639 81.52 191.807 81.52C193.087 81.52 193.695 82.336 193.727 83.248H189.903ZM193.935 85.28C193.679 86.048 193.103 86.64 191.983 86.64C190.831 86.64 189.903 85.792 189.855 84.608H195.551C195.567 84.576 195.599 84.32 195.599 84.016C195.599 81.552 194.191 79.968 191.791 79.968C189.823 79.968 187.999 81.6 187.999 84.064C187.999 86.704 189.871 88.24 191.983 88.24C193.855 88.24 195.087 87.136 195.503 85.776L193.935 85.28Z" fill="white"/>
<path d="M31.6581 106.364V110H32.8341V106.364L35.8341 101.492H34.4901L32.2821 105.284L30.0741 101.492H28.6581L31.6581 106.364ZM38.1228 109.172C37.1628 109.172 36.3228 108.452 36.3228 107.108C36.3228 105.776 37.1628 105.056 38.1228 105.056C39.0828 105.056 39.9228 105.776 39.9228 107.108C39.9228 108.452 39.0828 109.172 38.1228 109.172ZM38.1228 104.048C36.3948 104.048 35.1708 105.356 35.1708 107.108C35.1708 108.872 36.3948 110.18 38.1228 110.18C39.8508 110.18 41.0748 108.872 41.0748 107.108C41.0748 105.356 39.8508 104.048 38.1228 104.048ZM46.2637 109.304C46.2637 109.544 46.2877 109.868 46.3117 110H47.3917C47.3677 109.796 47.3317 109.388 47.3317 108.932V104.228H46.2037V107.708C46.2037 108.584 45.7477 109.184 44.8357 109.184C43.8877 109.184 43.5277 108.488 43.5277 107.696V104.228H42.3997V107.864C42.3997 109.172 43.2157 110.18 44.5597 110.18C45.2317 110.18 45.9517 109.904 46.2637 109.304ZM52.3108 104.168C52.2508 104.156 52.0948 104.132 51.9388 104.132C51.3508 104.132 50.6308 104.348 50.2108 105.236V104.228H49.1068V110H50.2348V107.108C50.2348 105.836 50.8708 105.332 51.8188 105.332C51.9748 105.332 52.1428 105.344 52.3108 105.368V104.168ZM57.4692 102.404H56.4372V103.34C56.4372 103.844 56.1732 104.228 55.5492 104.228H55.2372V105.248H56.3412V108.416C56.3412 109.46 56.9652 110.06 57.9492 110.06C58.3332 110.06 58.6212 109.988 58.7172 109.952V108.992C58.6212 109.016 58.4172 109.04 58.2732 109.04C57.6852 109.04 57.4692 108.776 57.4692 108.248V105.248H58.7172V104.228H57.4692V102.404ZM63.2053 104.168C63.1453 104.156 62.9893 104.132 62.8333 104.132C62.2453 104.132 61.5253 104.348 61.1053 105.236V104.228H60.0013V110H61.1293V107.108C61.1293 105.836 61.7653 105.332 62.7133 105.332C62.8693 105.332 63.0373 105.344 63.2053 105.368V104.168ZM63.9207 108.452C63.9207 109.364 64.6767 110.18 65.8527 110.18C66.8847 110.18 67.4607 109.628 67.7127 109.22C67.7127 109.64 67.7487 109.856 67.7727 110H68.8767C68.8527 109.856 68.8047 109.556 68.8047 109.052V106.16C68.8047 105.032 68.1327 104.048 66.4047 104.048C65.1567 104.048 64.1607 104.816 64.0407 105.92L65.1207 106.172C65.1927 105.5 65.6367 105.008 66.4287 105.008C67.3047 105.008 67.6767 105.476 67.6767 106.04C67.6767 106.244 67.5807 106.424 67.2327 106.472L65.6727 106.7C64.6767 106.844 63.9207 107.42 63.9207 108.452ZM66.0087 109.232C65.4327 109.232 65.0727 108.824 65.0727 108.392C65.0727 107.876 65.4327 107.6 65.9127 107.528L67.6767 107.264V107.528C67.6767 108.788 66.9327 109.232 66.0087 109.232ZM71.658 106.664C71.658 105.788 72.114 105.08 73.002 105.08C74.01 105.08 74.346 105.728 74.346 106.532V110H75.474V106.34C75.474 105.056 74.79 104.06 73.41 104.06C72.738 104.06 72.054 104.336 71.634 105.056V104.228H70.53V110H71.658V106.664ZM76.7211 108.5C76.8171 109.16 77.4891 110.18 79.0731 110.18C80.5011 110.18 81.1851 109.208 81.1851 108.392C81.1851 107.54 80.6331 106.904 79.5891 106.676L78.6531 106.472C78.2091 106.376 77.9931 106.124 77.9931 105.776C77.9931 105.38 78.3771 105.008 78.9531 105.008C79.8651 105.008 80.1051 105.668 80.1531 105.968L81.1491 105.596C81.0291 105.08 80.5371 104.048 78.9531 104.048C77.8251 104.048 76.9011 104.888 76.9011 105.872C76.9011 106.688 77.4411 107.3 78.3411 107.492L79.3251 107.708C79.8051 107.816 80.0691 108.092 80.0691 108.452C80.0691 108.86 79.7211 109.22 79.0851 109.22C78.2691 109.22 77.8131 108.74 77.7411 108.14L76.7211 108.5ZM82.198 108.452C82.198 109.364 82.954 110.18 84.13 110.18C85.162 110.18 85.738 109.628 85.99 109.22C85.99 109.64 86.026 109.856 86.05 110H87.154C87.13 109.856 87.082 109.556 87.082 109.052V106.16C87.082 105.032 86.41 104.048 84.682 104.048C83.434 104.048 82.438 104.816 82.318 105.92L83.398 106.172C83.47 105.5 83.914 105.008 84.706 105.008C85.582 105.008 85.954 105.476 85.954 106.04C85.954 106.244 85.858 106.424 85.51 106.472L83.95 106.7C82.954 106.844 82.198 107.42 82.198 108.452ZM84.286 109.232C83.71 109.232 83.35 108.824 83.35 108.392C83.35 107.876 83.71 107.6 84.19 107.528L85.954 107.264V107.528C85.954 108.788 85.21 109.232 84.286 109.232ZM91.3273 105.092C92.3113 105.092 92.7313 105.752 92.8753 106.316L93.8953 105.884C93.6553 105.008 92.8633 104.048 91.3273 104.048C89.6833 104.048 88.4233 105.308 88.4233 107.108C88.4233 108.86 89.6593 110.18 91.3393 110.18C92.8393 110.18 93.6673 109.208 93.9433 108.38L92.9473 107.948C92.8153 108.404 92.4193 109.136 91.3393 109.136C90.4033 109.136 89.5753 108.428 89.5753 107.108C89.5753 105.764 90.4153 105.092 91.3273 105.092ZM96.792 102.404H95.76V103.34C95.76 103.844 95.496 104.228 94.872 104.228H94.56V105.248H95.664V108.416C95.664 109.46 96.288 110.06 97.272 110.06C97.656 110.06 97.944 109.988 98.04 109.952V108.992C97.944 109.016 97.74 109.04 97.596 109.04C97.008 109.04 96.792 108.776 96.792 108.248V105.248H98.04V104.228H96.792V102.404ZM100.44 110V104.228H99.3242V110H100.44ZM99.0722 102.044C99.0722 102.488 99.4322 102.848 99.8762 102.848C100.332 102.848 100.692 102.488 100.692 102.044C100.692 101.588 100.332 101.228 99.8762 101.228C99.4322 101.228 99.0722 101.588 99.0722 102.044ZM104.778 109.172C103.818 109.172 102.978 108.452 102.978 107.108C102.978 105.776 103.818 105.056 104.778 105.056C105.738 105.056 106.578 105.776 106.578 107.108C106.578 108.452 105.738 109.172 104.778 109.172ZM104.778 104.048C103.05 104.048 101.826 105.356 101.826 107.108C101.826 108.872 103.05 110.18 104.778 110.18C106.506 110.18 107.73 108.872 107.73 107.108C107.73 105.356 106.506 104.048 104.778 104.048ZM110.243 106.664C110.243 105.788 110.699 105.08 111.587 105.08C112.595 105.08 112.931 105.728 112.931 106.532V110H114.059V106.34C114.059 105.056 113.375 104.06 111.995 104.06C111.323 104.06 110.639 104.336 110.219 105.056V104.228H109.115V110H110.243V106.664ZM121.903 104.228L120.403 108.572L119.107 104.228H117.871L119.767 110H120.955L122.455 105.608L123.991 110H125.155L127.027 104.228H125.839L124.567 108.572L123.067 104.228H121.903ZM127.711 108.452C127.711 109.364 128.467 110.18 129.643 110.18C130.675 110.18 131.251 109.628 131.503 109.22C131.503 109.64 131.539 109.856 131.563 110H132.667C132.643 109.856 132.595 109.556 132.595 109.052V106.16C132.595 105.032 131.923 104.048 130.195 104.048C128.947 104.048 127.951 104.816 127.831 105.92L128.911 106.172C128.983 105.5 129.427 105.008 130.219 105.008C131.095 105.008 131.467 105.476 131.467 106.04C131.467 106.244 131.371 106.424 131.023 106.472L129.463 106.7C128.467 106.844 127.711 107.42 127.711 108.452ZM129.799 109.232C129.223 109.232 128.863 108.824 128.863 108.392C128.863 107.876 129.223 107.6 129.703 107.528L131.467 107.264V107.528C131.467 108.788 130.723 109.232 129.799 109.232ZM133.864 108.5C133.96 109.16 134.632 110.18 136.216 110.18C137.644 110.18 138.328 109.208 138.328 108.392C138.328 107.54 137.776 106.904 136.732 106.676L135.796 106.472C135.352 106.376 135.136 106.124 135.136 105.776C135.136 105.38 135.52 105.008 136.096 105.008C137.008 105.008 137.248 105.668 137.296 105.968L138.292 105.596C138.172 105.08 137.68 104.048 136.096 104.048C134.968 104.048 134.044 104.888 134.044 105.872C134.044 106.688 134.584 107.3 135.484 107.492L136.468 107.708C136.948 107.816 137.212 108.092 137.212 108.452C137.212 108.86 136.864 109.22 136.228 109.22C135.412 109.22 134.956 108.74 134.884 108.14L133.864 108.5ZM142.237 108.5C142.333 109.16 143.005 110.18 144.589 110.18C146.017 110.18 146.701 109.208 146.701 108.392C146.701 107.54 146.149 106.904 145.105 106.676L144.169 106.472C143.725 106.376 143.509 106.124 143.509 105.776C143.509 105.38 143.893 105.008 144.469 105.008C145.381 105.008 145.621 105.668 145.669 105.968L146.665 105.596C146.545 105.08 146.053 104.048 144.469 104.048C143.341 104.048 142.417 104.888 142.417 105.872C142.417 106.688 142.957 107.3 143.857 107.492L144.841 107.708C145.321 107.816 145.585 108.092 145.585 108.452C145.585 108.86 145.237 109.22 144.601 109.22C143.785 109.22 143.329 108.74 143.257 108.14L142.237 108.5ZM151.902 109.304C151.902 109.544 151.926 109.868 151.95 110H153.03C153.006 109.796 152.97 109.388 152.97 108.932V104.228H151.842V107.708C151.842 108.584 151.386 109.184 150.474 109.184C149.526 109.184 149.166 108.488 149.166 107.696V104.228H148.038V107.864C148.038 109.172 148.854 110.18 150.198 110.18C150.87 110.18 151.59 109.904 151.902 109.304ZM157.265 105.092C158.249 105.092 158.669 105.752 158.813 106.316L159.833 105.884C159.593 105.008 158.801 104.048 157.265 104.048C155.621 104.048 154.361 105.308 154.361 107.108C154.361 108.86 155.597 110.18 157.277 110.18C158.777 110.18 159.605 109.208 159.881 108.38L158.885 107.948C158.753 108.404 158.357 109.136 157.277 109.136C156.341 109.136 155.513 108.428 155.513 107.108C155.513 105.764 156.353 105.092 157.265 105.092ZM163.677 105.092C164.661 105.092 165.081 105.752 165.225 106.316L166.245 105.884C166.005 105.008 165.213 104.048 163.677 104.048C162.033 104.048 160.773 105.308 160.773 107.108C160.773 108.86 162.009 110.18 163.689 110.18C165.189 110.18 166.017 109.208 166.293 108.38L165.297 107.948C165.165 108.404 164.769 109.136 163.689 109.136C162.753 109.136 161.925 108.428 161.925 107.108C161.925 105.764 162.765 105.092 163.677 105.092ZM168.386 106.52C168.434 105.776 169.01 105.044 169.958 105.044C170.978 105.044 171.518 105.692 171.542 106.52H168.386ZM171.71 108.02C171.494 108.668 171.026 109.184 170.09 109.184C169.118 109.184 168.374 108.464 168.35 107.432H172.694C172.706 107.36 172.718 107.216 172.718 107.072C172.718 105.272 171.722 104.048 169.946 104.048C168.494 104.048 167.186 105.284 167.186 107.096C167.186 109.052 168.542 110.18 170.09 110.18C171.434 110.18 172.358 109.376 172.682 108.356L171.71 108.02ZM173.621 108.5C173.717 109.16 174.389 110.18 175.973 110.18C177.401 110.18 178.085 109.208 178.085 108.392C178.085 107.54 177.533 106.904 176.489 106.676L175.553 106.472C175.109 106.376 174.893 106.124 174.893 105.776C174.893 105.38 175.277 105.008 175.853 105.008C176.765 105.008 177.005 105.668 177.053 105.968L178.049 105.596C177.929 105.08 177.437 104.048 175.853 104.048C174.725 104.048 173.801 104.888 173.801 105.872C173.801 106.688 174.341 107.3 175.241 107.492L176.225 107.708C176.705 107.816 176.969 108.092 176.969 108.452C176.969 108.86 176.621 109.22 175.985 109.22C175.169 109.22 174.713 108.74 174.641 108.14L173.621 108.5ZM179.026 108.5C179.122 109.16 179.794 110.18 181.378 110.18C182.806 110.18 183.49 109.208 183.49 108.392C183.49 107.54 182.938 106.904 181.894 106.676L180.958 106.472C180.514 106.376 180.298 106.124 180.298 105.776C180.298 105.38 180.682 105.008 181.258 105.008C182.17 105.008 182.41 105.668 182.458 105.968L183.454 105.596C183.334 105.08 182.842 104.048 181.258 104.048C180.13 104.048 179.206 104.888 179.206 105.872C179.206 106.688 179.746 107.3 180.646 107.492L181.63 107.708C182.11 107.816 182.374 108.092 182.374 108.452C182.374 108.86 182.026 109.22 181.39 109.22C180.574 109.22 180.118 108.74 180.046 108.14L179.026 108.5ZM187.899 105.248V104.228H186.507V103.316C186.507 102.524 187.023 102.332 187.419 102.332C187.707 102.332 187.851 102.38 187.911 102.404V101.396C187.863 101.36 187.623 101.276 187.239 101.276C186.195 101.276 185.343 101.972 185.343 103.256V104.228H184.275V105.248H185.343V110H186.507V105.248H187.899ZM192.818 109.304C192.818 109.544 192.842 109.868 192.866 110H193.946C193.922 109.796 193.886 109.388 193.886 108.932V104.228H192.758V107.708C192.758 108.584 192.302 109.184 191.39 109.184C190.442 109.184 190.082 108.488 190.082 107.696V104.228H188.954V107.864C188.954 109.172 189.77 110.18 191.114 110.18C191.786 110.18 192.506 109.904 192.818 109.304ZM196.789 110V101.312H195.661V110H196.789ZM201.142 108.452C201.142 109.364 201.898 110.18 203.074 110.18C204.106 110.18 204.682 109.628 204.934 109.22C204.934 109.64 204.97 109.856 204.994 110H206.098C206.074 109.856 206.026 109.556 206.026 109.052V106.16C206.026 105.032 205.354 104.048 203.626 104.048C202.378 104.048 201.382 104.816 201.262 105.92L202.342 106.172C202.414 105.5 202.858 105.008 203.65 105.008C204.526 105.008 204.898 105.476 204.898 106.04C204.898 106.244 204.802 106.424 204.454 106.472L202.894 106.7C201.898 106.844 201.142 107.42 201.142 108.452ZM203.23 109.232C202.654 109.232 202.294 108.824 202.294 108.392C202.294 107.876 202.654 107.6 203.134 107.528L204.898 107.264V107.528C204.898 108.788 204.154 109.232 203.23 109.232ZM208.879 106.664C208.879 105.788 209.335 105.08 210.223 105.08C211.231 105.08 211.567 105.728 211.567 106.532V110H212.695V106.34C212.695 105.056 212.011 104.06 210.631 104.06C209.959 104.06 209.275 104.336 208.855 105.056V104.228H207.751V110H208.879V106.664ZM215.178 107.096C215.178 105.908 215.85 105.068 216.882 105.068C217.914 105.068 218.538 105.884 218.538 107.072C218.538 108.26 217.902 109.16 216.87 109.16C215.79 109.16 215.178 108.284 215.178 107.096ZM218.55 109.22C218.55 109.568 218.586 109.868 218.61 110H219.702C219.69 109.904 219.642 109.484 219.642 108.932V101.312H218.526V105.044C218.334 104.576 217.782 104.072 216.762 104.072C215.13 104.072 214.026 105.464 214.026 107.096C214.026 108.812 215.07 110.156 216.762 110.156C217.662 110.156 218.274 109.676 218.55 109.124V109.22ZM225.504 110V106.52C225.504 105.656 226.044 105.056 226.848 105.056C227.712 105.056 228.072 105.632 228.072 106.376V110H229.2V106.508C229.2 105.68 229.74 105.056 230.532 105.056C231.384 105.056 231.756 105.62 231.756 106.376V110H232.872V106.256C232.872 104.744 231.888 104.06 230.88 104.06C230.148 104.06 229.404 104.324 228.948 105.152C228.636 104.408 227.94 104.06 227.22 104.06C226.548 104.06 225.828 104.36 225.468 104.996V104.228H224.388V110H225.504ZM237.142 109.172C236.182 109.172 235.342 108.452 235.342 107.108C235.342 105.776 236.182 105.056 237.142 105.056C238.102 105.056 238.942 105.776 238.942 107.108C238.942 108.452 238.102 109.172 237.142 109.172ZM237.142 104.048C235.414 104.048 234.19 105.356 234.19 107.108C234.19 108.872 235.414 110.18 237.142 110.18C238.87 110.18 240.094 108.872 240.094 107.108C240.094 105.356 238.87 104.048 237.142 104.048ZM242.607 106.664C242.607 105.788 243.063 105.08 243.951 105.08C244.959 105.08 245.295 105.728 245.295 106.532V110H246.423V106.34C246.423 105.056 245.739 104.06 244.359 104.06C243.687 104.06 243.003 104.336 242.583 105.056V104.228H241.479V110H242.607V106.664ZM248.942 106.52C248.99 105.776 249.566 105.044 250.514 105.044C251.534 105.044 252.074 105.692 252.098 106.52H248.942ZM252.266 108.02C252.05 108.668 251.582 109.184 250.646 109.184C249.674 109.184 248.93 108.464 248.906 107.432H253.25C253.262 107.36 253.274 107.216 253.274 107.072C253.274 105.272 252.278 104.048 250.502 104.048C249.05 104.048 247.742 105.284 247.742 107.096C247.742 109.052 249.098 110.18 250.646 110.18C251.99 110.18 252.914 109.376 253.238 108.356L252.266 108.02ZM256.03 112.412L259.786 104.228H258.574L256.846 108.212L255.046 104.228H253.75L256.234 109.364L254.794 112.412H256.03ZM41.5415 125.604C41.5655 124.752 42.0215 124.08 42.8855 124.08C43.8935 124.08 44.2295 124.728 44.2295 125.532V129H45.3575V125.34C45.3575 124.056 44.6735 123.06 43.2935 123.06C42.6335 123.06 41.9615 123.288 41.5415 123.9V120.312H40.4135V129H41.5415V125.604ZM46.6766 127.452C46.6766 128.364 47.4326 129.18 48.6086 129.18C49.6406 129.18 50.2166 128.628 50.4686 128.22C50.4686 128.64 50.5046 128.856 50.5286 129H51.6326C51.6086 128.856 51.5606 128.556 51.5606 128.052V125.16C51.5606 124.032 50.8886 123.048 49.1606 123.048C47.9126 123.048 46.9166 123.816 46.7966 124.92L47.8766 125.172C47.9486 124.5 48.3926 124.008 49.1846 124.008C50.0606 124.008 50.4326 124.476 50.4326 125.04C50.4326 125.244 50.3366 125.424 49.9886 125.472L48.4286 125.7C47.4326 125.844 46.6766 126.42 46.6766 127.452ZM48.7646 128.232C48.1886 128.232 47.8286 127.824 47.8286 127.392C47.8286 126.876 48.1886 126.6 48.6686 126.528L50.4326 126.264V126.528C50.4326 127.788 49.6886 128.232 48.7646 128.232ZM52.8299 127.5C52.9259 128.16 53.5979 129.18 55.1819 129.18C56.6099 129.18 57.2939 128.208 57.2939 127.392C57.2939 126.54 56.7419 125.904 55.6979 125.676L54.7619 125.472C54.3179 125.376 54.1019 125.124 54.1019 124.776C54.1019 124.38 54.4859 124.008 55.0619 124.008C55.9739 124.008 56.2139 124.668 56.2619 124.968L57.2579 124.596C57.1379 124.08 56.6459 123.048 55.0619 123.048C53.9339 123.048 53.0099 123.888 53.0099 124.872C53.0099 125.688 53.5499 126.3 54.4499 126.492L55.4339 126.708C55.9139 126.816 56.1779 127.092 56.1779 127.452C56.1779 127.86 55.8299 128.22 55.1939 128.22C54.3779 128.22 53.9219 127.74 53.8499 127.14L52.8299 127.5ZM62.7743 129V128.16C63.1343 128.784 63.7943 129.156 64.6463 129.156C66.3623 129.156 67.3343 127.8 67.3343 126.084C67.3343 124.404 66.4343 123.06 64.6823 123.06C63.7223 123.06 63.0503 123.528 62.7743 124.044V120.312H61.6583V129H62.7743ZM66.1823 126.084C66.1823 127.332 65.5103 128.148 64.4783 128.148C63.4823 128.148 62.7623 127.332 62.7623 126.084C62.7623 124.836 63.4823 124.056 64.4783 124.056C65.5223 124.056 66.1823 124.836 66.1823 126.084ZM69.5433 125.52C69.5913 124.776 70.1673 124.044 71.1153 124.044C72.1353 124.044 72.6753 124.692 72.6993 125.52H69.5433ZM72.8673 127.02C72.6513 127.668 72.1833 128.184 71.2473 128.184C70.2753 128.184 69.5313 127.464 69.5073 126.432H73.8513C73.8633 126.36 73.8753 126.216 73.8753 126.072C73.8753 124.272 72.8793 123.048 71.1033 123.048C69.6513 123.048 68.3433 124.284 68.3433 126.096C68.3433 128.052 69.6993 129.18 71.2473 129.18C72.5913 129.18 73.5153 128.376 73.8393 127.356L72.8673 127.02ZM76.0498 125.52C76.0978 124.776 76.6738 124.044 77.6218 124.044C78.6418 124.044 79.1818 124.692 79.2058 125.52H76.0498ZM79.3738 127.02C79.1578 127.668 78.6898 128.184 77.7538 128.184C76.7818 128.184 76.0378 127.464 76.0138 126.432H80.3578C80.3698 126.36 80.3818 126.216 80.3818 126.072C80.3818 124.272 79.3858 123.048 77.6098 123.048C76.1578 123.048 74.8498 124.284 74.8498 126.096C74.8498 128.052 76.2058 129.18 77.7538 129.18C79.0978 129.18 80.0218 128.376 80.3458 127.356L79.3738 127.02ZM82.8683 125.664C82.8683 124.788 83.3243 124.08 84.2123 124.08C85.2203 124.08 85.5563 124.728 85.5563 125.532V129H86.6843V125.34C86.6843 124.056 86.0003 123.06 84.6203 123.06C83.9483 123.06 83.2643 123.336 82.8443 124.056V123.228H81.7403V129H82.8683V125.664ZM92.1348 126.096C92.1348 124.908 92.8068 124.068 93.8388 124.068C94.8708 124.068 95.4948 124.884 95.4948 126.072C95.4948 127.26 94.8588 128.16 93.8268 128.16C92.7468 128.16 92.1348 127.284 92.1348 126.096ZM95.5068 128.22C95.5068 128.568 95.5428 128.868 95.5668 129H96.6588C96.6468 128.904 96.5988 128.484 96.5988 127.932V120.312H95.4828V124.044C95.2908 123.576 94.7388 123.072 93.7188 123.072C92.0868 123.072 90.9828 124.464 90.9828 126.096C90.9828 127.812 92.0268 129.156 93.7188 129.156C94.6188 129.156 95.2308 128.676 95.5068 128.124V128.22ZM99.1929 125.52C99.2409 124.776 99.8169 124.044 100.765 124.044C101.785 124.044 102.325 124.692 102.349 125.52H99.1929ZM102.517 127.02C102.301 127.668 101.833 128.184 100.897 128.184C99.9249 128.184 99.1809 127.464 99.1569 126.432H103.501C103.513 126.36 103.525 126.216 103.525 126.072C103.525 124.272 102.529 123.048 100.753 123.048C99.3009 123.048 97.9929 124.284 97.9929 126.096C97.9929 128.052 99.3489 129.18 100.897 129.18C102.241 129.18 103.165 128.376 103.489 127.356L102.517 127.02ZM105.999 131.28V128.22C106.311 128.736 106.983 129.156 107.871 129.156C109.563 129.156 110.559 127.824 110.559 126.108C110.559 124.428 109.635 123.096 107.907 123.096C106.971 123.096 106.287 123.552 105.975 124.128V123.228H104.883V131.28H105.999ZM109.407 126.108C109.407 127.296 108.747 128.148 107.703 128.148C106.671 128.148 105.987 127.296 105.987 126.108C105.987 124.956 106.671 124.092 107.703 124.092C108.759 124.092 109.407 124.956 109.407 126.108ZM114.52 128.172C113.56 128.172 112.72 127.452 112.72 126.108C112.72 124.776 113.56 124.056 114.52 124.056C115.48 124.056 116.32 124.776 116.32 126.108C116.32 127.452 115.48 128.172 114.52 128.172ZM114.52 123.048C112.792 123.048 111.568 124.356 111.568 126.108C111.568 127.872 112.792 129.18 114.52 129.18C116.248 129.18 117.472 127.872 117.472 126.108C117.472 124.356 116.248 123.048 114.52 123.048ZM118.401 127.5C118.497 128.16 119.169 129.18 120.753 129.18C122.181 129.18 122.865 128.208 122.865 127.392C122.865 126.54 122.313 125.904 121.269 125.676L120.333 125.472C119.889 125.376 119.673 125.124 119.673 124.776C119.673 124.38 120.057 124.008 120.633 124.008C121.545 124.008 121.785 124.668 121.833 124.968L122.829 124.596C122.709 124.08 122.217 123.048 120.633 123.048C119.505 123.048 118.581 123.888 118.581 124.872C118.581 125.688 119.121 126.3 120.021 126.492L121.005 126.708C121.485 126.816 121.749 127.092 121.749 127.452C121.749 127.86 121.401 128.22 120.765 128.22C119.949 128.22 119.493 127.74 119.421 127.14L118.401 127.5ZM125.378 129V123.228H124.262V129H125.378ZM124.01 121.044C124.01 121.488 124.37 121.848 124.814 121.848C125.27 121.848 125.63 121.488 125.63 121.044C125.63 120.588 125.27 120.228 124.814 120.228C124.37 120.228 124.01 120.588 124.01 121.044ZM128.72 121.404H127.688V122.34C127.688 122.844 127.424 123.228 126.8 123.228H126.488V124.248H127.592V127.416C127.592 128.46 128.216 129.06 129.2 129.06C129.584 129.06 129.872 128.988 129.968 128.952V127.992C129.872 128.016 129.668 128.04 129.524 128.04C128.936 128.04 128.72 127.776 128.72 127.248V124.248H129.968V123.228H128.72V121.404ZM132.021 125.52C132.069 124.776 132.645 124.044 133.593 124.044C134.613 124.044 135.153 124.692 135.177 125.52H132.021ZM135.345 127.02C135.129 127.668 134.661 128.184 133.725 128.184C132.753 128.184 132.009 127.464 131.985 126.432H136.329C136.341 126.36 136.353 126.216 136.353 126.072C136.353 124.272 135.357 123.048 133.581 123.048C132.129 123.048 130.821 124.284 130.821 126.096C130.821 128.052 132.177 129.18 133.725 129.18C135.069 129.18 135.993 128.376 136.317 127.356L135.345 127.02ZM138.491 126.096C138.491 124.908 139.163 124.068 140.195 124.068C141.227 124.068 141.851 124.884 141.851 126.072C141.851 127.26 141.215 128.16 140.183 128.16C139.103 128.16 138.491 127.284 138.491 126.096ZM141.863 128.22C141.863 128.568 141.899 128.868 141.923 129H143.015C143.003 128.904 142.955 128.484 142.955 127.932V120.312H141.839V124.044C141.647 123.576 141.095 123.072 140.075 123.072C138.443 123.072 137.339 124.464 137.339 126.096C137.339 127.812 138.383 129.156 140.075 129.156C140.975 129.156 141.587 128.676 141.863 128.124V128.22ZM149.05 121.404H148.018V122.34C148.018 122.844 147.754 123.228 147.13 123.228H146.818V124.248H147.922V127.416C147.922 128.46 148.546 129.06 149.53 129.06C149.914 129.06 150.202 128.988 150.298 128.952V127.992C150.202 128.016 149.998 128.04 149.854 128.04C149.266 128.04 149.05 127.776 149.05 127.248V124.248H150.298V123.228H149.05V121.404ZM154.104 128.172C153.144 128.172 152.304 127.452 152.304 126.108C152.304 124.776 153.144 124.056 154.104 124.056C155.064 124.056 155.904 124.776 155.904 126.108C155.904 127.452 155.064 128.172 154.104 128.172ZM154.104 123.048C152.376 123.048 151.152 124.356 151.152 126.108C151.152 127.872 152.376 129.18 154.104 129.18C155.832 129.18 157.056 127.872 157.056 126.108C157.056 124.356 155.832 123.048 154.104 123.048ZM162.7 131.412L166.456 123.228H165.244L163.516 127.212L161.716 123.228H160.42L162.904 128.364L161.464 131.412H162.7ZM169.873 128.172C168.913 128.172 168.073 127.452 168.073 126.108C168.073 124.776 168.913 124.056 169.873 124.056C170.833 124.056 171.673 124.776 171.673 126.108C171.673 127.452 170.833 128.172 169.873 128.172ZM169.873 123.048C168.145 123.048 166.921 124.356 166.921 126.108C166.921 127.872 168.145 129.18 169.873 129.18C171.601 129.18 172.825 127.872 172.825 126.108C172.825 124.356 171.601 123.048 169.873 123.048ZM178.014 128.304C178.014 128.544 178.038 128.868 178.062 129H179.142C179.118 128.796 179.082 128.388 179.082 127.932V123.228H177.954V126.708C177.954 127.584 177.498 128.184 176.586 128.184C175.638 128.184 175.278 127.488 175.278 126.696V123.228H174.15V126.864C174.15 128.172 174.966 129.18 176.31 129.18C176.982 129.18 177.702 128.904 178.014 128.304ZM184.061 123.168C184.001 123.156 183.845 123.132 183.689 123.132C183.101 123.132 182.381 123.348 181.961 124.236V123.228H180.857V129H181.985V126.108C181.985 124.836 182.621 124.332 183.569 124.332C183.725 124.332 183.893 124.344 184.061 124.368V123.168ZM188.998 129V120.312H187.87V129H188.998ZM191.583 125.52C191.631 124.776 192.207 124.044 193.155 124.044C194.175 124.044 194.715 124.692 194.739 125.52H191.583ZM194.907 127.02C194.691 127.668 194.223 128.184 193.287 128.184C192.315 128.184 191.571 127.464 191.547 126.432H195.891C195.903 126.36 195.915 126.216 195.915 126.072C195.915 124.272 194.919 123.048 193.143 123.048C191.691 123.048 190.383 124.284 190.383 126.096C190.383 128.052 191.739 129.18 193.287 129.18C194.631 129.18 195.555 128.376 195.879 127.356L194.907 127.02ZM196.89 127.452C196.89 128.364 197.646 129.18 198.822 129.18C199.854 129.18 200.43 128.628 200.682 128.22C200.682 128.64 200.718 128.856 200.742 129H201.846C201.822 128.856 201.774 128.556 201.774 128.052V125.16C201.774 124.032 201.102 123.048 199.374 123.048C198.126 123.048 197.13 123.816 197.01 124.92L198.09 125.172C198.162 124.5 198.606 124.008 199.398 124.008C200.274 124.008 200.646 124.476 200.646 125.04C200.646 125.244 200.55 125.424 200.202 125.472L198.642 125.7C197.646 125.844 196.89 126.42 196.89 127.452ZM198.978 128.232C198.402 128.232 198.042 127.824 198.042 127.392C198.042 126.876 198.402 126.6 198.882 126.528L200.646 126.264V126.528C200.646 127.788 199.902 128.232 198.978 128.232ZM206.703 123.168C206.643 123.156 206.487 123.132 206.331 123.132C205.743 123.132 205.023 123.348 204.603 124.236V123.228H203.499V129H204.627V126.108C204.627 124.836 205.263 124.332 206.211 124.332C206.367 124.332 206.535 124.344 206.703 124.368V123.168ZM208.931 125.664C208.931 124.788 209.387 124.08 210.275 124.08C211.283 124.08 211.619 124.728 211.619 125.532V129H212.747V125.34C212.747 124.056 212.063 123.06 210.683 123.06C210.011 123.06 209.327 123.336 208.907 124.056V123.228H207.803V129H208.931V125.664ZM220.591 123.228L219.091 127.572L217.795 123.228H216.559L218.455 129H219.643L221.143 124.608L222.679 129H223.843L225.715 123.228H224.527L223.255 127.572L221.755 123.228H220.591ZM226.399 127.452C226.399 128.364 227.155 129.18 228.331 129.18C229.363 129.18 229.939 128.628 230.191 128.22C230.191 128.64 230.227 128.856 230.251 129H231.355C231.331 128.856 231.283 128.556 231.283 128.052V125.16C231.283 124.032 230.611 123.048 228.883 123.048C227.635 123.048 226.639 123.816 226.519 124.92L227.599 125.172C227.671 124.5 228.115 124.008 228.907 124.008C229.783 124.008 230.155 124.476 230.155 125.04C230.155 125.244 230.059 125.424 229.711 125.472L228.151 125.7C227.155 125.844 226.399 126.42 226.399 127.452ZM228.487 128.232C227.911 128.232 227.551 127.824 227.551 127.392C227.551 126.876 227.911 126.6 228.391 126.528L230.155 126.264V126.528C230.155 127.788 229.411 128.232 228.487 128.232ZM234.136 129V120.312H233.008V129H234.136ZM237.033 129V120.312H235.905V129H237.033ZM239.618 125.52C239.666 124.776 240.242 124.044 241.19 124.044C242.21 124.044 242.75 124.692 242.774 125.52H239.618ZM242.942 127.02C242.726 127.668 242.258 128.184 241.322 128.184C240.35 128.184 239.606 127.464 239.582 126.432H243.926C243.938 126.36 243.95 126.216 243.95 126.072C243.95 124.272 242.954 123.048 241.178 123.048C239.726 123.048 238.418 124.284 238.418 126.096C238.418 128.052 239.774 129.18 241.322 129.18C242.666 129.18 243.59 128.376 243.914 127.356L242.942 127.02ZM246.822 121.404H245.79V122.34C245.79 122.844 245.526 123.228 244.902 123.228H244.59V124.248H245.694V127.416C245.694 128.46 246.318 129.06 247.302 129.06C247.686 129.06 247.974 128.988 248.07 128.952V127.992C247.974 128.016 247.77 128.04 247.626 128.04C247.038 128.04 246.822 127.776 246.822 127.248V124.248H248.07V123.228H246.822V121.404Z" fill="#CCEEE3"/>
<path d="M144 24.3644C136.272 24.3644 130 30.6795 130 38.4607C130 46.2418 136.272 52.5569 144 52.5569C151.728 52.5569 158 46.2418 158 38.4607C158 30.6795 151.728 24.3644 144 24.3644ZM141.2 45.5088L134.2 38.4607L136.174 36.4731L141.2 41.5195L151.826 30.8205L153.8 32.8222L141.2 45.5088Z" fill="white"/>
<rect y="179" width="288" height="64" rx="32" fill="#1F1F1F"/>
<rect x="16" y="191" width="110" height="40" rx="20" fill="#EEEFF2"/>
<path d="M40.824 215.18C42.996 215.18 44.292 213.8 44.676 212.36L43.356 211.928C43.068 212.888 42.252 213.8 40.824 213.8C39.372 213.8 38.004 212.744 38.004 210.752C38.004 208.688 39.408 207.668 40.812 207.668C42.24 207.668 43.032 208.496 43.284 209.528L44.64 209.072C44.256 207.584 42.972 206.312 40.812 206.312C38.604 206.312 36.528 207.98 36.528 210.752C36.528 213.524 38.532 215.18 40.824 215.18ZM47.2117 215V206.312H45.8197V215H47.2117ZM48.5209 213.416C48.5209 214.34 49.2769 215.18 50.5009 215.18C51.4489 215.18 52.0249 214.7 52.3009 214.256C52.3009 214.724 52.3489 214.964 52.3609 215H53.6569C53.6449 214.94 53.5849 214.592 53.5849 214.064V211.16C53.5849 209.996 52.9009 208.976 51.1009 208.976C49.6609 208.976 48.7489 209.876 48.6409 210.884L49.9129 211.172C49.9729 210.584 50.3809 210.116 51.1129 210.116C51.8809 210.116 52.2169 210.512 52.2169 211.004C52.2169 211.208 52.1209 211.376 51.7849 211.424L50.2849 211.652C49.2889 211.796 48.5209 212.372 48.5209 213.416ZM50.7649 214.088C50.2129 214.088 49.9129 213.728 49.9129 213.332C49.9129 212.852 50.2609 212.612 50.6929 212.54L52.2169 212.312V212.576C52.2169 213.716 51.5449 214.088 50.7649 214.088ZM54.8036 213.416C54.8756 214.076 55.5236 215.18 57.2156 215.18C58.7036 215.18 59.4236 214.196 59.4236 213.308C59.4236 212.444 58.8476 211.772 57.7436 211.532L56.8556 211.352C56.4956 211.28 56.2676 211.052 56.2676 210.74C56.2676 210.38 56.6156 210.068 57.1076 210.068C57.8876 210.068 58.1396 210.608 58.1876 210.944L59.3636 210.608C59.2676 210.032 58.7396 208.976 57.1076 208.976C55.8956 208.976 54.9596 209.84 54.9596 210.86C54.9596 211.664 55.4996 212.336 56.5316 212.564L57.3956 212.756C57.8636 212.852 58.0796 213.092 58.0796 213.404C58.0796 213.764 57.7796 214.076 57.2036 214.076C56.4596 214.076 56.0636 213.608 56.0156 213.08L54.8036 213.416ZM60.3257 213.416C60.3977 214.076 61.0457 215.18 62.7377 215.18C64.2257 215.18 64.9457 214.196 64.9457 213.308C64.9457 212.444 64.3697 211.772 63.2657 211.532L62.3777 211.352C62.0177 211.28 61.7897 211.052 61.7897 210.74C61.7897 210.38 62.1377 210.068 62.6297 210.068C63.4097 210.068 63.6617 210.608 63.7097 210.944L64.8857 210.608C64.7897 210.032 64.2617 208.976 62.6297 208.976C61.4177 208.976 60.4817 209.84 60.4817 210.86C60.4817 211.664 61.0217 212.336 62.0537 212.564L62.9177 212.756C63.3857 212.852 63.6017 213.092 63.6017 213.404C63.6017 213.764 63.3017 214.076 62.7257 214.076C61.9817 214.076 61.5857 213.608 61.5377 213.08L60.3257 213.416ZM70.7501 213.68V207.812H72.2741C73.7501 207.812 74.9621 208.772 74.9621 210.764C74.9621 212.732 73.7381 213.68 72.2621 213.68H70.7501ZM72.3101 215C74.6141 215 76.4621 213.488 76.4621 210.764C76.4621 208.028 74.6381 206.492 72.3221 206.492H69.3101V215H72.3101ZM78.8835 211.436C78.9315 210.812 79.4355 210.14 80.3115 210.14C81.2715 210.14 81.7275 210.752 81.7515 211.436H78.8835ZM81.9075 212.96C81.7155 213.536 81.2835 213.98 80.4435 213.98C79.5795 213.98 78.8835 213.344 78.8475 212.456H83.1195C83.1315 212.432 83.1555 212.24 83.1555 212.012C83.1555 210.164 82.0995 208.976 80.2995 208.976C78.8235 208.976 77.4555 210.2 77.4555 212.048C77.4555 214.028 78.8595 215.18 80.4435 215.18C81.8475 215.18 82.7715 214.352 83.0835 213.332L81.9075 212.96ZM86.2286 207.368H84.9686V208.244C84.9686 208.76 84.6926 209.156 84.0686 209.156H83.7686V210.392H84.8486V213.332C84.8486 214.424 85.5206 215.072 86.6006 215.072C87.1046 215.072 87.3686 214.976 87.4526 214.94V213.788C87.3926 213.8 87.1646 213.836 86.9726 213.836C86.4566 213.836 86.2286 213.62 86.2286 213.104V210.392H87.4406V209.156H86.2286V207.368ZM88.3594 213.416C88.3594 214.34 89.1154 215.18 90.3394 215.18C91.2874 215.18 91.8634 214.7 92.1394 214.256C92.1394 214.724 92.1874 214.964 92.1994 215H93.4954C93.4834 214.94 93.4234 214.592 93.4234 214.064V211.16C93.4234 209.996 92.7394 208.976 90.9394 208.976C89.4994 208.976 88.5874 209.876 88.4794 210.884L89.7514 211.172C89.8114 210.584 90.2194 210.116 90.9514 210.116C91.7194 210.116 92.0554 210.512 92.0554 211.004C92.0554 211.208 91.9594 211.376 91.6234 211.424L90.1234 211.652C89.1274 211.796 88.3594 212.372 88.3594 213.416ZM90.6034 214.088C90.0514 214.088 89.7514 213.728 89.7514 213.332C89.7514 212.852 90.0994 212.612 90.5314 212.54L92.0554 212.312V212.576C92.0554 213.716 91.3834 214.088 90.6034 214.088ZM96.4301 215V209.156H95.0501V215H96.4301ZM94.8341 207.104C94.8341 207.608 95.2421 208.004 95.7341 208.004C96.2381 208.004 96.6461 207.608 96.6461 207.104C96.6461 206.6 96.2381 206.192 95.7341 206.192C95.2421 206.192 94.8341 206.6 94.8341 207.104ZM99.4916 215V206.312H98.0996V215H99.4916ZM100.753 213.416C100.825 214.076 101.473 215.18 103.165 215.18C104.653 215.18 105.373 214.196 105.373 213.308C105.373 212.444 104.797 211.772 103.693 211.532L102.805 211.352C102.445 211.28 102.217 211.052 102.217 210.74C102.217 210.38 102.565 210.068 103.057 210.068C103.837 210.068 104.089 210.608 104.137 210.944L105.313 210.608C105.217 210.032 104.689 208.976 103.057 208.976C101.845 208.976 100.909 209.84 100.909 210.86C100.909 211.664 101.449 212.336 102.481 212.564L103.345 212.756C103.813 212.852 104.029 213.092 104.029 213.404C104.029 213.764 103.729 214.076 103.153 214.076C102.409 214.076 102.013 213.608 101.965 213.08L100.753 213.416Z" fill="#1A202C"/>
<rect x="126" y="191" width="146" height="40" rx="20" fill="#1F1F1F"/>
<path d="M152.876 215H154.448L151.136 206.492H149.468L146.156 215H147.68L148.472 212.864H152.072L152.876 215ZM150.272 208.052L151.568 211.532H148.976L150.272 208.052ZM156.766 215V214.22C157.102 214.784 157.738 215.144 158.566 215.144C160.27 215.144 161.314 213.812 161.314 212.048C161.314 210.332 160.366 209 158.614 209C157.714 209 157.042 209.42 156.778 209.876V206.312H155.41V215H156.766ZM159.91 212.06C159.91 213.212 159.25 213.908 158.338 213.908C157.45 213.908 156.766 213.212 156.766 212.06C156.766 210.896 157.45 210.236 158.338 210.236C159.262 210.236 159.91 210.896 159.91 212.06ZM165.283 213.932C164.431 213.932 163.651 213.284 163.651 212.072C163.651 210.86 164.431 210.236 165.283 210.236C166.147 210.236 166.915 210.86 166.915 212.072C166.915 213.296 166.147 213.932 165.283 213.932ZM165.283 208.976C163.543 208.976 162.259 210.284 162.259 212.072C162.259 213.872 163.543 215.18 165.283 215.18C167.035 215.18 168.319 213.872 168.319 212.072C168.319 210.284 167.035 208.976 165.283 208.976ZM173.422 214.352C173.422 214.592 173.446 214.868 173.47 215H174.802C174.778 214.784 174.742 214.412 174.742 213.932V209.156H173.35V212.612C173.35 213.38 172.93 213.92 172.126 213.92C171.286 213.92 170.95 213.308 170.95 212.588V209.156H169.558V212.84C169.558 214.136 170.374 215.168 171.766 215.168C172.45 215.168 173.134 214.88 173.422 214.352ZM178.253 207.368H176.993V208.244C176.993 208.76 176.717 209.156 176.093 209.156H175.793V210.392H176.873V213.332C176.873 214.424 177.545 215.072 178.625 215.072C179.129 215.072 179.393 214.976 179.477 214.94V213.788C179.417 213.8 179.189 213.836 178.997 213.836C178.481 213.836 178.253 213.62 178.253 213.104V210.392H179.465V209.156H178.253V207.368ZM185.208 207.368H183.948V208.244C183.948 208.76 183.672 209.156 183.048 209.156H182.748V210.392H183.828V213.332C183.828 214.424 184.5 215.072 185.58 215.072C186.084 215.072 186.348 214.976 186.432 214.94V213.788C186.372 213.8 186.144 213.836 185.952 213.836C185.436 213.836 185.208 213.62 185.208 213.104V210.392H186.42V209.156H185.208V207.368ZM189.091 211.568C189.115 210.824 189.535 210.248 190.303 210.248C191.179 210.248 191.503 210.824 191.503 211.544V215H192.895V211.304C192.895 210.02 192.199 208.988 190.759 208.988C190.147 208.988 189.487 209.204 189.091 209.72V206.312H187.699V215H189.091V211.568ZM195.566 211.436C195.614 210.812 196.118 210.14 196.994 210.14C197.954 210.14 198.41 210.752 198.434 211.436H195.566ZM198.59 212.96C198.398 213.536 197.966 213.98 197.126 213.98C196.262 213.98 195.566 213.344 195.53 212.456H199.802C199.814 212.432 199.838 212.24 199.838 212.012C199.838 210.164 198.782 208.976 196.982 208.976C195.506 208.976 194.138 210.2 194.138 212.048C194.138 214.028 195.542 215.18 197.126 215.18C198.53 215.18 199.454 214.352 199.766 213.332L198.59 212.96ZM203.576 213.416C203.648 214.076 204.296 215.18 205.988 215.18C207.476 215.18 208.196 214.196 208.196 213.308C208.196 212.444 207.62 211.772 206.516 211.532L205.628 211.352C205.268 211.28 205.04 211.052 205.04 210.74C205.04 210.38 205.388 210.068 205.88 210.068C206.66 210.068 206.912 210.608 206.96 210.944L208.136 210.608C208.04 210.032 207.512 208.976 205.88 208.976C204.668 208.976 203.732 209.84 203.732 210.86C203.732 211.664 204.272 212.336 205.304 212.564L206.168 212.756C206.636 212.852 206.852 213.092 206.852 213.404C206.852 213.764 206.552 214.076 205.976 214.076C205.232 214.076 204.836 213.608 204.788 213.08L203.576 213.416ZM210.886 217.28V214.34C211.186 214.784 211.822 215.144 212.662 215.144C214.342 215.144 215.41 213.824 215.41 212.072C215.41 210.344 214.438 209.024 212.71 209.024C211.81 209.024 211.138 209.444 210.85 209.948V209.156H209.506V217.28H210.886ZM214.018 212.072C214.018 213.188 213.37 213.908 212.446 213.908C211.534 213.908 210.874 213.188 210.874 212.072C210.874 210.98 211.534 210.26 212.446 210.26C213.382 210.26 214.018 210.98 214.018 212.072ZM217.783 211.436C217.831 210.812 218.335 210.14 219.211 210.14C220.171 210.14 220.627 210.752 220.651 211.436H217.783ZM220.807 212.96C220.615 213.536 220.183 213.98 219.343 213.98C218.479 213.98 217.783 213.344 217.747 212.456H222.019C222.031 212.432 222.055 212.24 222.055 212.012C222.055 210.164 220.999 208.976 219.199 208.976C217.723 208.976 216.355 210.2 216.355 212.048C216.355 214.028 217.759 215.18 219.343 215.18C220.747 215.18 221.671 214.352 221.983 213.332L220.807 212.96ZM222.991 213.416C222.991 214.34 223.747 215.18 224.971 215.18C225.919 215.18 226.495 214.7 226.771 214.256C226.771 214.724 226.819 214.964 226.831 215H228.127C228.115 214.94 228.055 214.592 228.055 214.064V211.16C228.055 209.996 227.371 208.976 225.571 208.976C224.131 208.976 223.219 209.876 223.111 210.884L224.383 211.172C224.443 210.584 224.851 210.116 225.583 210.116C226.351 210.116 226.687 210.512 226.687 211.004C226.687 211.208 226.591 211.376 226.255 211.424L224.755 211.652C223.759 211.796 222.991 212.372 222.991 213.416ZM225.235 214.088C224.683 214.088 224.383 213.728 224.383 213.332C224.383 212.852 224.731 212.612 225.163 212.54L226.687 212.312V212.576C226.687 213.716 226.015 214.088 225.235 214.088ZM235.154 209.156H233.306L231.062 211.52V206.312H229.682V215H231.062V213.368L231.782 212.612L233.498 215H235.202L232.754 211.628L235.154 209.156ZM236.893 211.436C236.941 210.812 237.445 210.14 238.321 210.14C239.281 210.14 239.737 210.752 239.761 211.436H236.893ZM239.917 212.96C239.725 213.536 239.293 213.98 238.453 213.98C237.589 213.98 236.893 213.344 236.857 212.456H241.129C241.141 212.432 241.165 212.24 241.165 212.012C241.165 210.164 240.109 208.976 238.309 208.976C236.833 208.976 235.465 210.2 235.465 212.048C235.465 214.028 236.869 215.18 238.453 215.18C239.857 215.18 240.781 214.352 241.093 213.332L239.917 212.96ZM245.88 209.12C245.82 209.108 245.676 209.084 245.508 209.084C244.74 209.084 244.092 209.456 243.816 210.092V209.156H242.46V215H243.852V212.216C243.852 211.124 244.344 210.5 245.424 210.5C245.568 210.5 245.724 210.512 245.88 210.536V209.12ZM246.52 213.416C246.592 214.076 247.24 215.18 248.932 215.18C250.42 215.18 251.14 214.196 251.14 213.308C251.14 212.444 250.564 211.772 249.46 211.532L248.572 211.352C248.212 211.28 247.984 211.052 247.984 210.74C247.984 210.38 248.332 210.068 248.824 210.068C249.604 210.068 249.856 210.608 249.904 210.944L251.08 210.608C250.984 210.032 250.456 208.976 248.824 208.976C247.612 208.976 246.676 209.84 246.676 210.86C246.676 211.664 247.216 212.336 248.248 212.564L249.112 212.756C249.58 212.852 249.796 213.092 249.796 213.404C249.796 213.764 249.496 214.076 248.92 214.076C248.176 214.076 247.78 213.608 247.732 213.08L246.52 213.416Z" fill="white"/>
</svg>
