<svg width="389" height="581" viewBox="0 0 389 581" fill="none" xmlns="http://www.w3.org/2000/svg">
<rect x="0.5" y="0.5" width="388" height="100" rx="7.5" fill="#1F1F1F"/>
<path d="M26.388 29.928L23.84 22.074H22.398L19.906 29.844L17.722 22.074H16.308L19.178 32H20.55L23.112 23.95L25.702 32H27.116L29.944 22.074H28.53L26.388 29.928ZM31.5859 27.94C31.6419 27.072 32.3139 26.218 33.4199 26.218C34.6099 26.218 35.2399 26.974 35.2679 27.94H31.5859ZM35.4639 29.69C35.2119 30.446 34.6659 31.048 33.5739 31.048C32.4399 31.048 31.5719 30.208 31.5439 29.004H36.6119C36.6259 28.92 36.6399 28.752 36.6399 28.584C36.6399 26.484 35.4779 25.056 33.4059 25.056C31.7119 25.056 30.1859 26.498 30.1859 28.612C30.1859 30.894 31.7679 32.21 33.5739 32.21C35.1419 32.21 36.2199 31.272 36.5979 30.082L35.4639 29.69ZM41.2201 30.194C41.2201 31.258 42.1021 32.21 43.4741 32.21C44.6781 32.21 45.3501 31.566 45.6441 31.09C45.6441 31.58 45.6861 31.832 45.7141 32H47.0021C46.9741 31.832 46.9181 31.482 46.9181 30.894V27.52C46.9181 26.204 46.1341 25.056 44.1181 25.056C42.6621 25.056 41.5001 25.952 41.3601 27.24L42.6201 27.534C42.7041 26.75 43.2221 26.176 44.1461 26.176C45.1681 26.176 45.6021 26.722 45.6021 27.38C45.6021 27.618 45.4901 27.828 45.0841 27.884L43.2641 28.15C42.1021 28.318 41.2201 28.99 41.2201 30.194ZM43.6561 31.104C42.9841 31.104 42.5641 30.628 42.5641 30.124C42.5641 29.522 42.9841 29.2 43.5441 29.116L45.6021 28.808V29.116C45.6021 30.586 44.7341 31.104 43.6561 31.104ZM52.6596 25.196C52.5896 25.182 52.4076 25.154 52.2256 25.154C51.5396 25.154 50.6996 25.406 50.2096 26.442V25.266H48.9216V32H50.2376V28.626C50.2376 27.142 50.9796 26.554 52.0856 26.554C52.2676 26.554 52.4636 26.568 52.6596 26.596V25.196ZM54.7618 27.94C54.8178 27.072 55.4898 26.218 56.5958 26.218C57.7858 26.218 58.4158 26.974 58.4438 27.94H54.7618ZM58.6398 29.69C58.3878 30.446 57.8418 31.048 56.7498 31.048C55.6158 31.048 54.7478 30.208 54.7198 29.004H59.7878C59.8018 28.92 59.8158 28.752 59.8158 28.584C59.8158 26.484 58.6538 25.056 56.5818 25.056C54.8878 25.056 53.3618 26.498 53.3618 28.612C53.3618 30.894 54.9438 32.21 56.7498 32.21C58.3178 32.21 59.3958 31.272 59.7738 30.082L58.6398 29.69ZM64.3121 30.25C64.4241 31.02 65.2081 32.21 67.0561 32.21C68.7221 32.21 69.5201 31.076 69.5201 30.124C69.5201 29.13 68.8761 28.388 67.6581 28.122L66.5661 27.884C66.0481 27.772 65.7961 27.478 65.7961 27.072C65.7961 26.61 66.2441 26.176 66.9161 26.176C67.9801 26.176 68.2601 26.946 68.3161 27.296L69.4781 26.862C69.3381 26.26 68.7641 25.056 66.9161 25.056C65.6001 25.056 64.5221 26.036 64.5221 27.184C64.5221 28.136 65.1521 28.85 66.2021 29.074L67.3501 29.326C67.9101 29.452 68.2181 29.774 68.2181 30.194C68.2181 30.67 67.8121 31.09 67.0701 31.09C66.1181 31.09 65.5861 30.53 65.5021 29.83L64.3121 30.25ZM72.9745 23.138H71.7705V24.23C71.7705 24.818 71.4625 25.266 70.7345 25.266H70.3705V26.456H71.6585V30.152C71.6585 31.37 72.3865 32.07 73.5345 32.07C73.9825 32.07 74.3185 31.986 74.4305 31.944V30.824C74.3185 30.852 74.0805 30.88 73.9125 30.88C73.2265 30.88 72.9745 30.572 72.9745 29.956V26.456H74.4305V25.266H72.9745V23.138ZM77.2213 32V25.266H75.9193V32H77.2213ZM75.6253 22.718C75.6253 23.236 76.0453 23.656 76.5633 23.656C77.0953 23.656 77.5153 23.236 77.5153 22.718C77.5153 22.186 77.0953 21.766 76.5633 21.766C76.0453 21.766 75.6253 22.186 75.6253 22.718ZM80.5923 32V21.864H79.2763V32H80.5923ZM83.963 32V21.864H82.647V32H83.963ZM93.2083 25.196C93.1383 25.182 92.9563 25.154 92.7743 25.154C92.0883 25.154 91.2483 25.406 90.7583 26.442V25.266H89.4703V32H90.7863V28.626C90.7863 27.142 91.5283 26.554 92.6343 26.554C92.8163 26.554 93.0123 26.568 93.2083 26.596V25.196ZM98.9196 31.188C98.9196 31.468 98.9476 31.846 98.9756 32H100.236C100.208 31.762 100.166 31.286 100.166 30.754V25.266H98.8496V29.326C98.8496 30.348 98.3176 31.048 97.2536 31.048C96.1476 31.048 95.7276 30.236 95.7276 29.312V25.266H94.4116V29.508C94.4116 31.034 95.3636 32.21 96.9316 32.21C97.7156 32.21 98.5556 31.888 98.9196 31.188ZM103.543 28.108C103.543 27.086 104.075 26.26 105.111 26.26C106.287 26.26 106.679 27.016 106.679 27.954V32H107.995V27.73C107.995 26.232 107.197 25.07 105.587 25.07C104.803 25.07 104.005 25.392 103.515 26.232V25.266H102.227V32H103.543V28.108ZM111.289 28.108C111.289 27.086 111.821 26.26 112.857 26.26C114.033 26.26 114.425 27.016 114.425 27.954V32H115.741V27.73C115.741 26.232 114.943 25.07 113.333 25.07C112.549 25.07 111.751 25.392 111.261 26.232V25.266H109.973V32H111.289V28.108ZM119.02 32V25.266H117.718V32H119.02ZM117.424 22.718C117.424 23.236 117.844 23.656 118.362 23.656C118.894 23.656 119.314 23.236 119.314 22.718C119.314 22.186 118.894 21.766 118.362 21.766C117.844 21.766 117.424 22.186 117.424 22.718ZM122.391 28.108C122.391 27.086 122.923 26.26 123.959 26.26C125.135 26.26 125.527 27.016 125.527 27.954V32H126.843V27.73C126.843 26.232 126.045 25.07 124.435 25.07C123.651 25.07 122.853 25.392 122.363 26.232V25.266H121.075V32H122.391V28.108ZM128.373 32.364C128.541 33.806 129.801 34.87 131.481 34.87C134.015 34.87 134.855 33.204 134.855 31.496V25.266H133.553V26.204C133.217 25.532 132.517 25.14 131.481 25.14C129.633 25.14 128.387 26.596 128.387 28.416C128.387 30.32 129.689 31.678 131.481 31.678C132.489 31.678 133.217 31.188 133.539 30.572V31.538C133.539 32.994 132.895 33.722 131.481 33.722C130.459 33.722 129.745 33.008 129.647 32.07L128.373 32.364ZM131.677 30.572C130.487 30.572 129.731 29.732 129.731 28.416C129.731 27.114 130.515 26.26 131.677 26.26C132.811 26.26 133.595 27.114 133.595 28.416C133.595 29.718 132.811 30.572 131.677 30.572ZM141.663 32V25.266H140.361V32H141.663ZM140.067 22.718C140.067 23.236 140.487 23.656 141.005 23.656C141.537 23.656 141.957 23.236 141.957 22.718C141.957 22.186 141.537 21.766 141.005 21.766C140.487 21.766 140.067 22.186 140.067 22.718ZM145.034 28.108C145.034 27.086 145.566 26.26 146.602 26.26C147.778 26.26 148.17 27.016 148.17 27.954V32H149.486V27.73C149.486 26.232 148.688 25.07 147.078 25.07C146.294 25.07 145.496 25.392 145.006 26.232V25.266H143.718V32H145.034V28.108ZM156.219 32V31.02C156.639 31.748 157.409 32.182 158.403 32.182C160.405 32.182 161.539 30.6 161.539 28.598C161.539 26.638 160.489 25.07 158.445 25.07C157.325 25.07 156.541 25.616 156.219 26.218V21.864H154.917V32H156.219ZM160.195 28.598C160.195 30.054 159.411 31.006 158.207 31.006C157.045 31.006 156.205 30.054 156.205 28.598C156.205 27.142 157.045 26.232 158.207 26.232C159.425 26.232 160.195 27.142 160.195 28.598ZM164.106 27.94C164.162 27.072 164.834 26.218 165.94 26.218C167.13 26.218 167.76 26.974 167.788 27.94H164.106ZM167.984 29.69C167.732 30.446 167.186 31.048 166.094 31.048C164.96 31.048 164.092 30.208 164.064 29.004H169.132C169.146 28.92 169.16 28.752 169.16 28.584C169.16 26.484 167.998 25.056 165.926 25.056C164.232 25.056 162.706 26.498 162.706 28.612C162.706 30.894 164.288 32.21 166.094 32.21C167.662 32.21 168.74 31.272 169.118 30.082L167.984 29.69ZM172.502 23.138H171.298V24.23C171.298 24.818 170.99 25.266 170.262 25.266H169.898V26.456H171.186V30.152C171.186 31.37 171.914 32.07 173.062 32.07C173.51 32.07 173.846 31.986 173.958 31.944V30.824C173.846 30.852 173.608 30.88 173.44 30.88C172.754 30.88 172.502 30.572 172.502 29.956V26.456H173.958V25.266H172.502V23.138ZM174.998 30.194C174.998 31.258 175.88 32.21 177.252 32.21C178.456 32.21 179.128 31.566 179.422 31.09C179.422 31.58 179.464 31.832 179.492 32H180.78C180.752 31.832 180.696 31.482 180.696 30.894V27.52C180.696 26.204 179.912 25.056 177.896 25.056C176.44 25.056 175.278 25.952 175.138 27.24L176.398 27.534C176.482 26.75 177 26.176 177.924 26.176C178.946 26.176 179.38 26.722 179.38 27.38C179.38 27.618 179.268 27.828 178.862 27.884L177.042 28.15C175.88 28.318 174.998 28.99 174.998 30.194ZM177.434 31.104C176.762 31.104 176.342 30.628 176.342 30.124C176.342 29.522 176.762 29.2 177.322 29.116L179.38 28.808V29.116C179.38 30.586 178.512 31.104 177.434 31.104ZM185.705 30.194C185.705 31.258 186.587 32.21 187.959 32.21C189.163 32.21 189.835 31.566 190.129 31.09C190.129 31.58 190.171 31.832 190.199 32H191.487C191.459 31.832 191.403 31.482 191.403 30.894V27.52C191.403 26.204 190.619 25.056 188.603 25.056C187.147 25.056 185.985 25.952 185.845 27.24L187.105 27.534C187.189 26.75 187.707 26.176 188.631 26.176C189.653 26.176 190.087 26.722 190.087 27.38C190.087 27.618 189.975 27.828 189.569 27.884L187.749 28.15C186.587 28.318 185.705 28.99 185.705 30.194ZM188.141 31.104C187.469 31.104 187.049 30.628 187.049 30.124C187.049 29.522 187.469 29.2 188.029 29.116L190.087 28.808V29.116C190.087 30.586 189.219 31.104 188.141 31.104ZM194.722 28.108C194.722 27.086 195.254 26.26 196.29 26.26C197.466 26.26 197.858 27.016 197.858 27.954V32H199.174V27.73C199.174 26.232 198.376 25.07 196.766 25.07C195.982 25.07 195.184 25.392 194.694 26.232V25.266H193.406V32H194.722V28.108ZM202.062 28.612C202.062 27.226 202.846 26.246 204.05 26.246C205.254 26.246 205.982 27.198 205.982 28.584C205.982 29.97 205.24 31.02 204.036 31.02C202.776 31.02 202.062 29.998 202.062 28.612ZM205.996 31.09C205.996 31.496 206.038 31.846 206.066 32H207.34C207.326 31.888 207.27 31.398 207.27 30.754V21.864H205.968V26.218C205.744 25.672 205.1 25.084 203.91 25.084C202.006 25.084 200.718 26.708 200.718 28.612C200.718 30.614 201.936 32.182 203.91 32.182C204.96 32.182 205.674 31.622 205.996 30.978V31.09ZM213.697 28.612C213.697 27.226 214.481 26.246 215.685 26.246C216.889 26.246 217.617 27.198 217.617 28.584C217.617 29.97 216.875 31.02 215.671 31.02C214.411 31.02 213.697 29.998 213.697 28.612ZM217.631 31.09C217.631 31.496 217.673 31.846 217.701 32H218.975C218.961 31.888 218.905 31.398 218.905 30.754V21.864H217.603V26.218C217.379 25.672 216.735 25.084 215.545 25.084C213.641 25.084 212.353 26.708 212.353 28.612C212.353 30.614 213.571 32.182 215.545 32.182C216.595 32.182 217.309 31.622 217.631 30.978V31.09ZM223.967 31.034C222.847 31.034 221.867 30.194 221.867 28.626C221.867 27.072 222.847 26.232 223.967 26.232C225.087 26.232 226.067 27.072 226.067 28.626C226.067 30.194 225.087 31.034 223.967 31.034ZM223.967 25.056C221.951 25.056 220.523 26.582 220.523 28.626C220.523 30.684 221.951 32.21 223.967 32.21C225.983 32.21 227.411 30.684 227.411 28.626C227.411 26.582 225.983 25.056 223.967 25.056ZM230.333 28.108C230.333 27.086 230.865 26.26 231.901 26.26C233.077 26.26 233.469 27.016 233.469 27.954V32H234.785V27.73C234.785 26.232 233.987 25.07 232.377 25.07C231.593 25.07 230.795 25.392 230.305 26.232V25.266H229.017V32H230.333V28.108ZM238.542 23.138H237.338V24.23C237.338 24.818 237.03 25.266 236.302 25.266H235.938V26.456H237.226V30.152C237.226 31.37 237.954 32.07 239.102 32.07C239.55 32.07 239.886 31.986 239.998 31.944V30.824C239.886 30.852 239.648 30.88 239.48 30.88C238.794 30.88 238.542 30.572 238.542 29.956V26.456H239.998V25.266H238.542V23.138ZM247.88 26.274C249.028 26.274 249.518 27.044 249.686 27.702L250.876 27.198C250.596 26.176 249.672 25.056 247.88 25.056C245.962 25.056 244.492 26.526 244.492 28.626C244.492 30.67 245.934 32.21 247.894 32.21C249.644 32.21 250.61 31.076 250.932 30.11L249.77 29.606C249.616 30.138 249.154 30.992 247.894 30.992C246.802 30.992 245.836 30.166 245.836 28.626C245.836 27.058 246.816 26.274 247.88 26.274ZM251.964 30.194C251.964 31.258 252.846 32.21 254.218 32.21C255.422 32.21 256.094 31.566 256.388 31.09C256.388 31.58 256.43 31.832 256.458 32H257.746C257.718 31.832 257.662 31.482 257.662 30.894V27.52C257.662 26.204 256.878 25.056 254.862 25.056C253.406 25.056 252.244 25.952 252.104 27.24L253.364 27.534C253.448 26.75 253.966 26.176 254.89 26.176C255.912 26.176 256.346 26.722 256.346 27.38C256.346 27.618 256.234 27.828 255.828 27.884L254.008 28.15C252.846 28.318 251.964 28.99 251.964 30.194ZM254.4 31.104C253.728 31.104 253.308 30.628 253.308 30.124C253.308 29.522 253.728 29.2 254.288 29.116L256.346 28.808V29.116C256.346 30.586 255.478 31.104 254.4 31.104ZM261.445 23.138H260.241V24.23C260.241 24.818 259.933 25.266 259.205 25.266H258.841V26.456H260.129V30.152C260.129 31.37 260.857 32.07 262.005 32.07C262.453 32.07 262.789 31.986 262.901 31.944V30.824C262.789 30.852 262.551 30.88 262.383 30.88C261.697 30.88 261.445 30.572 261.445 29.956V26.456H262.901V25.266H261.445V23.138ZM265.287 27.94C265.343 27.072 266.015 26.218 267.121 26.218C268.311 26.218 268.941 26.974 268.969 27.94H265.287ZM269.165 29.69C268.913 30.446 268.367 31.048 267.275 31.048C266.141 31.048 265.273 30.208 265.245 29.004H270.313C270.327 28.92 270.341 28.752 270.341 28.584C270.341 26.484 269.179 25.056 267.107 25.056C265.413 25.056 263.887 26.498 263.887 28.612C263.887 30.894 265.469 32.21 267.275 32.21C268.843 32.21 269.921 31.272 270.299 30.082L269.165 29.69ZM275.654 25.196C275.584 25.182 275.402 25.154 275.22 25.154C274.534 25.154 273.694 25.406 273.204 26.442V25.266H271.916V32H273.232V28.626C273.232 27.142 273.974 26.554 275.08 26.554C275.262 26.554 275.458 26.568 275.654 26.596V25.196ZM281.654 23.138H280.45V24.23C280.45 24.818 280.142 25.266 279.414 25.266H279.05V26.456H280.338V30.152C280.338 31.37 281.066 32.07 282.214 32.07C282.662 32.07 282.998 31.986 283.11 31.944V30.824C282.998 30.852 282.76 30.88 282.592 30.88C281.906 30.88 281.654 30.572 281.654 29.956V26.456H283.11V25.266H281.654V23.138ZM287.54 31.034C286.42 31.034 285.44 30.194 285.44 28.626C285.44 27.072 286.42 26.232 287.54 26.232C288.66 26.232 289.64 27.072 289.64 28.626C289.64 30.194 288.66 31.034 287.54 31.034ZM287.54 25.056C285.524 25.056 284.096 26.582 284.096 28.626C284.096 30.684 285.524 32.21 287.54 32.21C289.556 32.21 290.984 30.684 290.984 28.626C290.984 26.582 289.556 25.056 287.54 25.056ZM296.995 27.94C297.051 27.072 297.723 26.218 298.829 26.218C300.019 26.218 300.649 26.974 300.677 27.94H296.995ZM300.873 29.69C300.621 30.446 300.075 31.048 298.983 31.048C297.849 31.048 296.981 30.208 296.953 29.004H302.021C302.035 28.92 302.049 28.752 302.049 28.584C302.049 26.484 300.887 25.056 298.815 25.056C297.121 25.056 295.595 26.498 295.595 28.612C295.595 30.894 297.177 32.21 298.983 32.21C300.551 32.21 301.629 31.272 302.007 30.082L300.873 29.69ZM309.384 25.266H307.97L306.038 30.46L304.12 25.266H302.636L305.366 32H306.696L309.384 25.266ZM311.434 27.94C311.49 27.072 312.162 26.218 313.268 26.218C314.458 26.218 315.088 26.974 315.116 27.94H311.434ZM315.312 29.69C315.06 30.446 314.514 31.048 313.422 31.048C312.288 31.048 311.42 30.208 311.392 29.004H316.46C316.474 28.92 316.488 28.752 316.488 28.584C316.488 26.484 315.326 25.056 313.254 25.056C311.56 25.056 310.034 26.498 310.034 28.612C310.034 30.894 311.616 32.21 313.422 32.21C314.99 32.21 316.068 31.272 316.446 30.082L315.312 29.69ZM319.379 28.108C319.379 27.086 319.911 26.26 320.947 26.26C322.123 26.26 322.515 27.016 322.515 27.954V32H323.831V27.73C323.831 26.232 323.033 25.07 321.423 25.07C320.639 25.07 319.841 25.392 319.351 26.232V25.266H318.063V32H319.379V28.108ZM327.588 23.138H326.384V24.23C326.384 24.818 326.076 25.266 325.348 25.266H324.984V26.456H326.272V30.152C326.272 31.37 327 32.07 328.148 32.07C328.596 32.07 328.932 31.986 329.044 31.944V30.824C328.932 30.852 328.694 30.88 328.526 30.88C327.84 30.88 327.588 30.572 327.588 29.956V26.456H329.044V25.266H327.588V23.138ZM330.001 30.25C330.113 31.02 330.897 32.21 332.745 32.21C334.411 32.21 335.209 31.076 335.209 30.124C335.209 29.13 334.565 28.388 333.347 28.122L332.255 27.884C331.737 27.772 331.485 27.478 331.485 27.072C331.485 26.61 331.933 26.176 332.605 26.176C333.669 26.176 333.949 26.946 334.005 27.296L335.167 26.862C335.027 26.26 334.453 25.056 332.605 25.056C331.289 25.056 330.211 26.036 330.211 27.184C330.211 28.136 330.841 28.85 331.891 29.074L333.039 29.326C333.599 29.452 333.907 29.774 333.907 30.194C333.907 30.67 333.501 31.09 332.759 31.09C331.807 31.09 331.275 30.53 331.191 29.83L330.001 30.25ZM18.38 55V44.864H17.064V55H18.38ZM21.7366 55V48.266H20.4346V55H21.7366ZM20.1406 45.718C20.1406 46.236 20.5606 46.656 21.0786 46.656C21.6106 46.656 22.0306 46.236 22.0306 45.718C22.0306 45.186 21.6106 44.766 21.0786 44.766C20.5606 44.766 20.1406 45.186 20.1406 45.718ZM29.8256 48.266H28.0056L25.0936 51.248V44.864H23.7916V55H25.0936V52.97L26.0316 52.032L28.2296 55H29.8816L26.9556 51.108L29.8256 48.266ZM31.669 50.94C31.725 50.072 32.397 49.218 33.503 49.218C34.693 49.218 35.323 49.974 35.351 50.94H31.669ZM35.547 52.69C35.295 53.446 34.749 54.048 33.657 54.048C32.523 54.048 31.655 53.208 31.627 52.004H36.695C36.709 51.92 36.723 51.752 36.723 51.584C36.723 49.484 35.561 48.056 33.489 48.056C31.795 48.056 30.269 49.498 30.269 51.612C30.269 53.894 31.851 55.21 33.657 55.21C35.225 55.21 36.303 54.272 36.681 53.082L35.547 52.69ZM48.0512 55V53.726H43.3892V50.688H47.6172V49.4H43.3892V46.348H48.0512V45.074H42.0172V55H48.0512ZM48.9856 55H50.5536L52.2616 52.522L53.9976 55H55.5796C55.1736 54.454 53.5076 52.116 53.1016 51.57L55.4956 48.266H53.9416L52.3176 50.632L50.6656 48.266H49.0696L51.4916 51.57L48.9856 55ZM56.2613 53.194C56.2613 54.258 57.1433 55.21 58.5153 55.21C59.7193 55.21 60.3913 54.566 60.6853 54.09C60.6853 54.58 60.7273 54.832 60.7553 55H62.0433C62.0153 54.832 61.9593 54.482 61.9593 53.894V50.52C61.9593 49.204 61.1753 48.056 59.1593 48.056C57.7033 48.056 56.5413 48.952 56.4013 50.24L57.6613 50.534C57.7453 49.75 58.2633 49.176 59.1873 49.176C60.2093 49.176 60.6433 49.722 60.6433 50.38C60.6433 50.618 60.5313 50.828 60.1253 50.884L58.3053 51.15C57.1433 51.318 56.2613 51.99 56.2613 53.194ZM58.6973 54.104C58.0253 54.104 57.6053 53.628 57.6053 53.124C57.6053 52.522 58.0253 52.2 58.5853 52.116L60.6433 51.808V52.116C60.6433 53.586 59.7753 54.104 58.6973 54.104ZM65.2648 55V50.94C65.2648 49.932 65.8948 49.232 66.8328 49.232C67.8408 49.232 68.2608 49.904 68.2608 50.772V55H69.5768V50.926C69.5768 49.96 70.2068 49.232 71.1308 49.232C72.1248 49.232 72.5588 49.89 72.5588 50.772V55H73.8608V50.632C73.8608 48.868 72.7128 48.07 71.5368 48.07C70.6828 48.07 69.8148 48.378 69.2828 49.344C68.9188 48.476 68.1068 48.07 67.2668 48.07C66.4828 48.07 65.6428 48.42 65.2228 49.162V48.266H63.9628V55H65.2648ZM75.3053 53.25C75.4173 54.02 76.2013 55.21 78.0493 55.21C79.7153 55.21 80.5133 54.076 80.5133 53.124C80.5133 52.13 79.8693 51.388 78.6513 51.122L77.5593 50.884C77.0413 50.772 76.7893 50.478 76.7893 50.072C76.7893 49.61 77.2373 49.176 77.9093 49.176C78.9733 49.176 79.2533 49.946 79.3093 50.296L80.4713 49.862C80.3313 49.26 79.7573 48.056 77.9093 48.056C76.5933 48.056 75.5153 49.036 75.5153 50.184C75.5153 51.136 76.1453 51.85 77.1953 52.074L78.3433 52.326C78.9033 52.452 79.2113 52.774 79.2113 53.194C79.2113 53.67 78.8053 54.09 78.0633 54.09C77.1113 54.09 76.5793 53.53 76.4953 52.83L75.3053 53.25ZM81.8677 54.104C81.8677 54.706 82.2877 55.056 82.8057 55.056C82.9597 55.056 83.0717 55.014 83.1137 54.986C83.0997 55.658 82.6377 56.344 81.9517 56.498V57.226C82.8197 57.114 84.0237 56.344 84.0237 54.496C84.0237 53.614 83.4917 53.166 82.8897 53.166C82.3017 53.166 81.8677 53.6 81.8677 54.104ZM95.7538 47.328C95.5298 46.25 94.6338 44.864 92.3938 44.864C90.5598 44.864 89.1178 46.264 89.1178 47.818C89.1178 49.302 90.1258 50.226 91.5398 50.534L92.9538 50.842C93.9478 51.052 94.4378 51.668 94.4378 52.382C94.4378 53.25 93.7658 53.964 92.3938 53.964C90.8958 53.964 90.1118 52.942 90.0138 51.836L88.6978 52.256C88.8798 53.67 90.0138 55.21 92.4078 55.21C94.5218 55.21 95.8378 53.81 95.8378 52.27C95.8378 50.884 94.9138 49.848 93.2618 49.484L91.7778 49.162C90.9378 48.98 90.5038 48.434 90.5038 47.72C90.5038 46.796 91.3018 46.068 92.4218 46.068C93.8078 46.068 94.4098 47.048 94.5218 47.762L95.7538 47.328ZM103.53 48.266H101.71L98.7977 51.248V44.864H97.4957V55H98.7977V52.97L99.7357 52.032L101.934 55H103.586L100.66 51.108L103.53 48.266ZM106.092 55V48.266H104.79V55H106.092ZM104.496 45.718C104.496 46.236 104.916 46.656 105.434 46.656C105.966 46.656 106.386 46.236 106.386 45.718C106.386 45.186 105.966 44.766 105.434 44.766C104.916 44.766 104.496 45.186 104.496 45.718ZM109.463 55V44.864H108.147V55H109.463ZM112.834 55V44.864H111.518V55H112.834ZM125.099 55H126.583L122.635 45.074H121.053L117.105 55H118.575L119.625 52.228H124.021L125.099 55ZM121.809 46.502L123.531 50.954H120.115L121.809 46.502ZM127.195 53.25C127.307 54.02 128.091 55.21 129.939 55.21C131.605 55.21 132.403 54.076 132.403 53.124C132.403 52.13 131.759 51.388 130.541 51.122L129.449 50.884C128.931 50.772 128.679 50.478 128.679 50.072C128.679 49.61 129.127 49.176 129.799 49.176C130.863 49.176 131.143 49.946 131.199 50.296L132.361 49.862C132.221 49.26 131.647 48.056 129.799 48.056C128.483 48.056 127.405 49.036 127.405 50.184C127.405 51.136 128.035 51.85 129.085 52.074L130.233 52.326C130.793 52.452 131.101 52.774 131.101 53.194C131.101 53.67 130.695 54.09 129.953 54.09C129.001 54.09 128.469 53.53 128.385 52.83L127.195 53.25ZM133.492 53.25C133.604 54.02 134.388 55.21 136.236 55.21C137.902 55.21 138.7 54.076 138.7 53.124C138.7 52.13 138.056 51.388 136.838 51.122L135.746 50.884C135.228 50.772 134.976 50.478 134.976 50.072C134.976 49.61 135.424 49.176 136.096 49.176C137.16 49.176 137.44 49.946 137.496 50.296L138.658 49.862C138.518 49.26 137.944 48.056 136.096 48.056C134.78 48.056 133.702 49.036 133.702 50.184C133.702 51.136 134.332 51.85 135.382 52.074L136.53 52.326C137.09 52.452 137.398 52.774 137.398 53.194C137.398 53.67 136.992 54.09 136.25 54.09C135.298 54.09 134.766 53.53 134.682 52.83L133.492 53.25ZM141.272 50.94C141.328 50.072 142 49.218 143.106 49.218C144.296 49.218 144.926 49.974 144.954 50.94H141.272ZM145.15 52.69C144.898 53.446 144.352 54.048 143.26 54.048C142.126 54.048 141.258 53.208 141.23 52.004H146.298C146.312 51.92 146.326 51.752 146.326 51.584C146.326 49.484 145.164 48.056 143.092 48.056C141.398 48.056 139.872 49.498 139.872 51.612C139.872 53.894 141.454 55.21 143.26 55.21C144.828 55.21 145.906 54.272 146.284 53.082L145.15 52.69ZM147.37 53.25C147.482 54.02 148.266 55.21 150.114 55.21C151.78 55.21 152.578 54.076 152.578 53.124C152.578 52.13 151.934 51.388 150.716 51.122L149.624 50.884C149.106 50.772 148.854 50.478 148.854 50.072C148.854 49.61 149.302 49.176 149.974 49.176C151.038 49.176 151.318 49.946 151.374 50.296L152.536 49.862C152.396 49.26 151.822 48.056 149.974 48.056C148.658 48.056 147.58 49.036 147.58 50.184C147.58 51.136 148.21 51.85 149.26 52.074L150.408 52.326C150.968 52.452 151.276 52.774 151.276 53.194C151.276 53.67 150.87 54.09 150.128 54.09C149.176 54.09 148.644 53.53 148.56 52.83L147.37 53.25ZM153.666 53.25C153.778 54.02 154.562 55.21 156.41 55.21C158.076 55.21 158.874 54.076 158.874 53.124C158.874 52.13 158.23 51.388 157.012 51.122L155.92 50.884C155.402 50.772 155.15 50.478 155.15 50.072C155.15 49.61 155.598 49.176 156.27 49.176C157.334 49.176 157.614 49.946 157.67 50.296L158.832 49.862C158.692 49.26 158.118 48.056 156.27 48.056C154.954 48.056 153.876 49.036 153.876 50.184C153.876 51.136 154.506 51.85 155.556 52.074L156.704 52.326C157.264 52.452 157.572 52.774 157.572 53.194C157.572 53.67 157.166 54.09 156.424 54.09C155.472 54.09 154.94 53.53 154.856 52.83L153.666 53.25ZM161.797 55V50.94C161.797 49.932 162.427 49.232 163.365 49.232C164.373 49.232 164.793 49.904 164.793 50.772V55H166.109V50.926C166.109 49.96 166.739 49.232 167.663 49.232C168.657 49.232 169.091 49.89 169.091 50.772V55H170.393V50.632C170.393 48.868 169.245 48.07 168.069 48.07C167.215 48.07 166.347 48.378 165.815 49.344C165.451 48.476 164.639 48.07 163.799 48.07C163.015 48.07 162.175 48.42 161.755 49.162V48.266H160.495V55H161.797ZM173.321 50.94C173.377 50.072 174.049 49.218 175.155 49.218C176.345 49.218 176.975 49.974 177.003 50.94H173.321ZM177.199 52.69C176.947 53.446 176.401 54.048 175.309 54.048C174.175 54.048 173.307 53.208 173.279 52.004H178.347C178.361 51.92 178.375 51.752 178.375 51.584C178.375 49.484 177.213 48.056 175.141 48.056C173.447 48.056 171.921 49.498 171.921 51.612C171.921 53.894 173.503 55.21 175.309 55.21C176.877 55.21 177.955 54.272 178.333 53.082L177.199 52.69ZM181.267 51.108C181.267 50.086 181.799 49.26 182.835 49.26C184.011 49.26 184.403 50.016 184.403 50.954V55H185.719V50.73C185.719 49.232 184.921 48.07 183.311 48.07C182.527 48.07 181.729 48.392 181.239 49.232V48.266H179.951V55H181.267V51.108ZM189.476 46.138H188.272V47.23C188.272 47.818 187.964 48.266 187.236 48.266H186.872V49.456H188.16V53.152C188.16 54.37 188.888 55.07 190.036 55.07C190.484 55.07 190.82 54.986 190.932 54.944V53.824C190.82 53.852 190.582 53.88 190.414 53.88C189.728 53.88 189.476 53.572 189.476 52.956V49.456H190.932V48.266H189.476V46.138ZM202.659 46.348V45.074H194.651V46.348H197.969V55H199.341V46.348H202.659ZM203.231 50.94C203.287 50.072 203.959 49.218 205.065 49.218C206.255 49.218 206.885 49.974 206.913 50.94H203.231ZM207.109 52.69C206.857 53.446 206.311 54.048 205.219 54.048C204.085 54.048 203.217 53.208 203.189 52.004H208.257C208.271 51.92 208.285 51.752 208.285 51.584C208.285 49.484 207.123 48.056 205.051 48.056C203.357 48.056 201.831 49.498 201.831 51.612C201.831 53.894 203.413 55.21 205.219 55.21C206.787 55.21 207.865 54.272 208.243 53.082L207.109 52.69ZM209.329 53.25C209.441 54.02 210.225 55.21 212.073 55.21C213.739 55.21 214.537 54.076 214.537 53.124C214.537 52.13 213.893 51.388 212.675 51.122L211.583 50.884C211.065 50.772 210.813 50.478 210.813 50.072C210.813 49.61 211.261 49.176 211.933 49.176C212.997 49.176 213.277 49.946 213.333 50.296L214.495 49.862C214.355 49.26 213.781 48.056 211.933 48.056C210.617 48.056 209.539 49.036 209.539 50.184C209.539 51.136 210.169 51.85 211.219 52.074L212.367 52.326C212.927 52.452 213.235 52.774 213.235 53.194C213.235 53.67 212.829 54.09 212.087 54.09C211.135 54.09 210.603 53.53 210.519 52.83L209.329 53.25ZM217.991 46.138H216.787V47.23C216.787 47.818 216.479 48.266 215.751 48.266H215.387V49.456H216.675V53.152C216.675 54.37 217.403 55.07 218.551 55.07C218.999 55.07 219.335 54.986 219.447 54.944V53.824C219.335 53.852 219.097 53.88 218.929 53.88C218.243 53.88 217.991 53.572 217.991 52.956V49.456H219.447V48.266H217.991V46.138ZM220.67 54.104C220.67 54.706 221.09 55.056 221.608 55.056C221.762 55.056 221.874 55.014 221.916 54.986C221.902 55.658 221.44 56.344 220.754 56.498V57.226C221.622 57.114 222.826 56.344 222.826 54.496C222.826 53.614 222.294 53.166 221.692 53.166C221.104 53.166 220.67 53.6 220.67 54.104ZM239.05 55V45.074H237.216L233.688 53.152L230.188 45.074H228.326V55H229.684V47.272L233.044 55H234.304L237.692 47.272V55H239.05ZM242.172 50.94C242.228 50.072 242.9 49.218 244.006 49.218C245.196 49.218 245.826 49.974 245.854 50.94H242.172ZM246.05 52.69C245.798 53.446 245.252 54.048 244.16 54.048C243.026 54.048 242.158 53.208 242.13 52.004H247.198C247.212 51.92 247.226 51.752 247.226 51.584C247.226 49.484 246.064 48.056 243.992 48.056C242.298 48.056 240.772 49.498 240.772 51.612C240.772 53.894 242.354 55.21 244.16 55.21C245.728 55.21 246.806 54.272 247.184 53.082L246.05 52.69ZM250.117 51.108C250.117 50.086 250.649 49.26 251.685 49.26C252.861 49.26 253.253 50.016 253.253 50.954V55H254.569V50.73C254.569 49.232 253.771 48.07 252.161 48.07C251.377 48.07 250.579 48.392 250.089 49.232V48.266H248.801V55H250.117V51.108ZM258.326 46.138H257.122V47.23C257.122 47.818 256.814 48.266 256.086 48.266H255.722V49.456H257.01V53.152C257.01 54.37 257.738 55.07 258.886 55.07C259.334 55.07 259.67 54.986 259.782 54.944V53.824C259.67 53.852 259.432 53.88 259.264 53.88C258.578 53.88 258.326 53.572 258.326 52.956V49.456H259.782V48.266H258.326V46.138ZM264.212 54.034C263.092 54.034 262.112 53.194 262.112 51.626C262.112 50.072 263.092 49.232 264.212 49.232C265.332 49.232 266.312 50.072 266.312 51.626C266.312 53.194 265.332 54.034 264.212 54.034ZM264.212 48.056C262.196 48.056 260.768 49.582 260.768 51.626C260.768 53.684 262.196 55.21 264.212 55.21C266.228 55.21 267.656 53.684 267.656 51.626C267.656 49.582 266.228 48.056 264.212 48.056ZM273.001 48.196C272.931 48.182 272.749 48.154 272.567 48.154C271.881 48.154 271.041 48.406 270.551 49.442V48.266H269.263V55H270.579V51.626C270.579 50.142 271.321 49.554 272.427 49.554C272.609 49.554 272.805 49.568 273.001 49.596V48.196ZM275.576 55V48.266H274.274V55H275.576ZM273.98 45.718C273.98 46.236 274.4 46.656 274.918 46.656C275.45 46.656 275.87 46.236 275.87 45.718C275.87 45.186 275.45 44.766 274.918 44.766C274.4 44.766 273.98 45.186 273.98 45.718ZM278.947 51.108C278.947 50.086 279.479 49.26 280.515 49.26C281.691 49.26 282.083 50.016 282.083 50.954V55H283.399V50.73C283.399 49.232 282.601 48.07 280.991 48.07C280.207 48.07 279.409 48.392 278.919 49.232V48.266H277.631V55H278.947V51.108ZM284.929 55.364C285.097 56.806 286.357 57.87 288.037 57.87C290.571 57.87 291.411 56.204 291.411 54.496V48.266H290.109V49.204C289.773 48.532 289.073 48.14 288.037 48.14C286.189 48.14 284.943 49.596 284.943 51.416C284.943 53.32 286.245 54.678 288.037 54.678C289.045 54.678 289.773 54.188 290.095 53.572V54.538C290.095 55.994 289.451 56.722 288.037 56.722C287.015 56.722 286.301 56.008 286.203 55.07L284.929 55.364ZM288.233 53.572C287.043 53.572 286.287 52.732 286.287 51.416C286.287 50.114 287.071 49.26 288.233 49.26C289.367 49.26 290.151 50.114 290.151 51.416C290.151 52.718 289.367 53.572 288.233 53.572ZM296.469 53.194C296.469 54.258 297.351 55.21 298.723 55.21C299.927 55.21 300.599 54.566 300.893 54.09C300.893 54.58 300.935 54.832 300.963 55H302.251C302.223 54.832 302.167 54.482 302.167 53.894V50.52C302.167 49.204 301.383 48.056 299.367 48.056C297.911 48.056 296.749 48.952 296.609 50.24L297.869 50.534C297.953 49.75 298.471 49.176 299.395 49.176C300.417 49.176 300.851 49.722 300.851 50.38C300.851 50.618 300.739 50.828 300.333 50.884L298.513 51.15C297.351 51.318 296.469 51.99 296.469 53.194ZM298.905 54.104C298.233 54.104 297.813 53.628 297.813 53.124C297.813 52.522 298.233 52.2 298.793 52.116L300.851 51.808V52.116C300.851 53.586 299.983 54.104 298.905 54.104ZM305.486 51.108C305.486 50.086 306.018 49.26 307.054 49.26C308.23 49.26 308.622 50.016 308.622 50.954V55H309.938V50.73C309.938 49.232 309.14 48.07 307.53 48.07C306.746 48.07 305.948 48.392 305.458 49.232V48.266H304.17V55H305.486V51.108ZM312.826 51.612C312.826 50.226 313.61 49.246 314.814 49.246C316.018 49.246 316.746 50.198 316.746 51.584C316.746 52.97 316.004 54.02 314.8 54.02C313.54 54.02 312.826 52.998 312.826 51.612ZM316.76 54.09C316.76 54.496 316.802 54.846 316.83 55H318.104C318.09 54.888 318.034 54.398 318.034 53.754V44.864H316.732V49.218C316.508 48.672 315.864 48.084 314.674 48.084C312.77 48.084 311.482 49.708 311.482 51.612C311.482 53.614 312.7 55.182 314.674 55.182C315.724 55.182 316.438 54.622 316.76 53.978V54.09ZM20.578 72.456V71.266H18.954V70.202C18.954 69.278 19.556 69.054 20.018 69.054C20.354 69.054 20.522 69.11 20.592 69.138V67.962C20.536 67.92 20.256 67.822 19.808 67.822C18.59 67.822 17.596 68.634 17.596 70.132V71.266H16.35V72.456H17.596V78H18.954V72.456H20.578ZM22.6855 73.94C22.7415 73.072 23.4135 72.218 24.5195 72.218C25.7095 72.218 26.3395 72.974 26.3675 73.94H22.6855ZM26.5635 75.69C26.3115 76.446 25.7655 77.048 24.6735 77.048C23.5395 77.048 22.6715 76.208 22.6435 75.004H27.7115C27.7255 74.92 27.7395 74.752 27.7395 74.584C27.7395 72.484 26.5775 71.056 24.5055 71.056C22.8115 71.056 21.2855 72.498 21.2855 74.612C21.2855 76.894 22.8675 78.21 24.6735 78.21C26.2415 78.21 27.3195 77.272 27.6975 76.082L26.5635 75.69ZM33.1687 71.266L31.4187 76.334L29.9067 71.266H28.4647L30.6767 78H32.0627L33.8127 72.876L35.6047 78H36.9627L39.1467 71.266H37.7607L36.2767 76.334L34.5267 71.266H33.1687ZM46.6676 77.034C45.5476 77.034 44.5676 76.194 44.5676 74.626C44.5676 73.072 45.5476 72.232 46.6676 72.232C47.7876 72.232 48.7676 73.072 48.7676 74.626C48.7676 76.194 47.7876 77.034 46.6676 77.034ZM46.6676 71.056C44.6516 71.056 43.2236 72.582 43.2236 74.626C43.2236 76.684 44.6516 78.21 46.6676 78.21C48.6836 78.21 50.1116 76.684 50.1116 74.626C50.1116 72.582 48.6836 71.056 46.6676 71.056ZM53.4426 69.138H52.2386V70.23C52.2386 70.818 51.9306 71.266 51.2026 71.266H50.8386V72.456H52.1266V76.152C52.1266 77.37 52.8546 78.07 54.0026 78.07C54.4506 78.07 54.7866 77.986 54.8986 77.944V76.824C54.7866 76.852 54.5486 76.88 54.3806 76.88C53.6946 76.88 53.4426 76.572 53.4426 75.956V72.456H54.8986V71.266H53.4426V69.138ZM57.7035 74.038C57.7315 73.044 58.2635 72.26 59.2715 72.26C60.4475 72.26 60.8395 73.016 60.8395 73.954V78H62.1555V73.73C62.1555 72.232 61.3575 71.07 59.7475 71.07C58.9775 71.07 58.1935 71.336 57.7035 72.05V67.864H56.3875V78H57.7035V74.038ZM65.0851 73.94C65.1411 73.072 65.8131 72.218 66.9191 72.218C68.1091 72.218 68.7391 72.974 68.7671 73.94H65.0851ZM68.9631 75.69C68.7111 76.446 68.1651 77.048 67.0731 77.048C65.9391 77.048 65.0711 76.208 65.0431 75.004H70.1111C70.1251 74.92 70.1391 74.752 70.1391 74.584C70.1391 72.484 68.9771 71.056 66.9051 71.056C65.2111 71.056 63.6851 72.498 63.6851 74.612C63.6851 76.894 65.2671 78.21 67.0731 78.21C68.6411 78.21 69.7191 77.272 70.0971 76.082L68.9631 75.69ZM75.4527 71.196C75.3827 71.182 75.2007 71.154 75.0187 71.154C74.3327 71.154 73.4927 71.406 73.0027 72.442V71.266H71.7147V78H73.0307V74.626C73.0307 73.142 73.7727 72.554 74.8787 72.554C75.0607 72.554 75.2567 72.568 75.4527 72.596V71.196ZM75.7901 77.104C75.7901 77.706 76.2101 78.056 76.7281 78.056C76.8821 78.056 76.9941 78.014 77.0361 77.986C77.0221 78.658 76.5601 79.344 75.8741 79.498V80.226C76.7421 80.114 77.9461 79.344 77.9461 77.496C77.9461 76.614 77.4141 76.166 76.8121 76.166C76.2241 76.166 75.7901 76.6 75.7901 77.104ZM84.4822 80.66V77.09C84.8462 77.692 85.6302 78.182 86.6662 78.182C88.6402 78.182 89.8022 76.628 89.8022 74.626C89.8022 72.666 88.7242 71.112 86.7082 71.112C85.6162 71.112 84.8182 71.644 84.4542 72.316V71.266H83.1802V80.66H84.4822ZM88.4582 74.626C88.4582 76.012 87.6882 77.006 86.4702 77.006C85.2662 77.006 84.4682 76.012 84.4682 74.626C84.4682 73.282 85.2662 72.274 86.4702 72.274C87.7022 72.274 88.4582 73.282 88.4582 74.626ZM92.734 78V67.864H91.418V78H92.734ZM95.7406 73.94C95.7966 73.072 96.4686 72.218 97.5746 72.218C98.7646 72.218 99.3946 72.974 99.4226 73.94H95.7406ZM99.6186 75.69C99.3666 76.446 98.8206 77.048 97.7286 77.048C96.5946 77.048 95.7266 76.208 95.6986 75.004H100.767C100.781 74.92 100.795 74.752 100.795 74.584C100.795 72.484 99.6326 71.056 97.5606 71.056C95.8666 71.056 94.3406 72.498 94.3406 74.612C94.3406 76.894 95.9226 78.21 97.7286 78.21C99.2966 78.21 100.375 77.272 100.753 76.082L99.6186 75.69ZM101.922 76.194C101.922 77.258 102.804 78.21 104.176 78.21C105.38 78.21 106.052 77.566 106.346 77.09C106.346 77.58 106.388 77.832 106.416 78H107.704C107.676 77.832 107.62 77.482 107.62 76.894V73.52C107.62 72.204 106.836 71.056 104.82 71.056C103.364 71.056 102.202 71.952 102.062 73.24L103.322 73.534C103.406 72.75 103.924 72.176 104.848 72.176C105.87 72.176 106.304 72.722 106.304 73.38C106.304 73.618 106.192 73.828 105.786 73.884L103.966 74.15C102.804 74.318 101.922 74.99 101.922 76.194ZM104.358 77.104C103.686 77.104 103.266 76.628 103.266 76.124C103.266 75.522 103.686 75.2 104.246 75.116L106.304 74.808V75.116C106.304 76.586 105.436 77.104 104.358 77.104ZM109.092 76.25C109.204 77.02 109.988 78.21 111.836 78.21C113.502 78.21 114.3 77.076 114.3 76.124C114.3 75.13 113.656 74.388 112.438 74.122L111.346 73.884C110.828 73.772 110.576 73.478 110.576 73.072C110.576 72.61 111.024 72.176 111.696 72.176C112.76 72.176 113.04 72.946 113.096 73.296L114.258 72.862C114.118 72.26 113.544 71.056 111.696 71.056C110.38 71.056 109.302 72.036 109.302 73.184C109.302 74.136 109.932 74.85 110.982 75.074L112.13 75.326C112.69 75.452 112.998 75.774 112.998 76.194C112.998 76.67 112.592 77.09 111.85 77.09C110.898 77.09 110.366 76.53 110.282 75.83L109.092 76.25ZM116.872 73.94C116.928 73.072 117.6 72.218 118.706 72.218C119.896 72.218 120.526 72.974 120.554 73.94H116.872ZM120.75 75.69C120.498 76.446 119.952 77.048 118.86 77.048C117.726 77.048 116.858 76.208 116.83 75.004H121.898C121.912 74.92 121.926 74.752 121.926 74.584C121.926 72.484 120.764 71.056 118.692 71.056C116.998 71.056 115.472 72.498 115.472 74.612C115.472 76.894 117.054 78.21 118.86 78.21C120.428 78.21 121.506 77.272 121.884 76.082L120.75 75.69ZM131.392 77.188C131.392 77.468 131.42 77.846 131.448 78H132.708C132.68 77.762 132.638 77.286 132.638 76.754V71.266H131.322V75.326C131.322 76.348 130.79 77.048 129.726 77.048C128.62 77.048 128.2 76.236 128.2 75.312V71.266H126.884V75.508C126.884 77.034 127.836 78.21 129.404 78.21C130.188 78.21 131.028 77.888 131.392 77.188ZM134.168 76.25C134.28 77.02 135.064 78.21 136.912 78.21C138.578 78.21 139.376 77.076 139.376 76.124C139.376 75.13 138.732 74.388 137.514 74.122L136.422 73.884C135.904 73.772 135.652 73.478 135.652 73.072C135.652 72.61 136.1 72.176 136.772 72.176C137.836 72.176 138.116 72.946 138.172 73.296L139.334 72.862C139.194 72.26 138.62 71.056 136.772 71.056C135.456 71.056 134.378 72.036 134.378 73.184C134.378 74.136 135.008 74.85 136.058 75.074L137.206 75.326C137.766 75.452 138.074 75.774 138.074 76.194C138.074 76.67 137.668 77.09 136.926 77.09C135.974 77.09 135.442 76.53 135.358 75.83L134.168 76.25ZM141.948 73.94C142.004 73.072 142.676 72.218 143.782 72.218C144.972 72.218 145.602 72.974 145.63 73.94H141.948ZM145.826 75.69C145.574 76.446 145.028 77.048 143.936 77.048C142.802 77.048 141.934 76.208 141.906 75.004H146.974C146.988 74.92 147.002 74.752 147.002 74.584C147.002 72.484 145.84 71.056 143.768 71.056C142.074 71.056 140.548 72.498 140.548 74.612C140.548 76.894 142.13 78.21 143.936 78.21C145.504 78.21 146.582 77.272 146.96 76.082L145.826 75.69ZM155.734 71.266L153.984 76.334L152.472 71.266H151.03L153.242 78H154.628L156.378 72.876L158.17 78H159.528L161.712 71.266H160.326L158.842 76.334L157.092 71.266H155.734ZM164.387 78V71.266H163.085V78H164.387ZM162.791 68.718C162.791 69.236 163.211 69.656 163.729 69.656C164.261 69.656 164.681 69.236 164.681 68.718C164.681 68.186 164.261 67.766 163.729 67.766C163.211 67.766 162.791 68.186 162.791 68.718ZM168.276 69.138H167.072V70.23C167.072 70.818 166.764 71.266 166.036 71.266H165.672V72.456H166.96V76.152C166.96 77.37 167.688 78.07 168.836 78.07C169.284 78.07 169.62 77.986 169.732 77.944V76.824C169.62 76.852 169.382 76.88 169.214 76.88C168.528 76.88 168.276 76.572 168.276 75.956V72.456H169.732V71.266H168.276V69.138ZM172.537 74.038C172.565 73.044 173.097 72.26 174.105 72.26C175.281 72.26 175.673 73.016 175.673 73.954V78H176.989V73.73C176.989 72.232 176.191 71.07 174.581 71.07C173.811 71.07 173.027 71.336 172.537 72.05V67.864H171.221V78H172.537V74.038ZM183.735 78V67.864H182.419V78H183.735ZM187.092 78V71.266H185.79V78H187.092ZM185.496 68.718C185.496 69.236 185.916 69.656 186.434 69.656C186.966 69.656 187.386 69.236 187.386 68.718C187.386 68.186 186.966 67.766 186.434 67.766C185.916 67.766 185.496 68.186 185.496 68.718ZM190.449 78V73.94C190.449 72.932 191.079 72.232 192.017 72.232C193.025 72.232 193.445 72.904 193.445 73.772V78H194.761V73.926C194.761 72.96 195.391 72.232 196.315 72.232C197.309 72.232 197.743 72.89 197.743 73.772V78H199.045V73.632C199.045 71.868 197.897 71.07 196.721 71.07C195.867 71.07 194.999 71.378 194.467 72.344C194.103 71.476 193.291 71.07 192.451 71.07C191.667 71.07 190.827 71.42 190.407 72.162V71.266H189.147V78H190.449ZM202.323 78V71.266H201.021V78H202.323ZM200.727 68.718C200.727 69.236 201.147 69.656 201.665 69.656C202.197 69.656 202.617 69.236 202.617 68.718C202.617 68.186 202.197 67.766 201.665 67.766C201.147 67.766 200.727 68.186 200.727 68.718ZM206.212 69.138H205.008V70.23C205.008 70.818 204.7 71.266 203.972 71.266H203.608V72.456H204.896V76.152C204.896 77.37 205.624 78.07 206.772 78.07C207.22 78.07 207.556 77.986 207.668 77.944V76.824C207.556 76.852 207.318 76.88 207.15 76.88C206.464 76.88 206.212 76.572 206.212 75.956V72.456H207.668V71.266H206.212V69.138ZM208.709 76.194C208.709 77.258 209.591 78.21 210.963 78.21C212.167 78.21 212.839 77.566 213.133 77.09C213.133 77.58 213.175 77.832 213.203 78H214.491C214.463 77.832 214.407 77.482 214.407 76.894V73.52C214.407 72.204 213.623 71.056 211.607 71.056C210.151 71.056 208.989 71.952 208.849 73.24L210.109 73.534C210.193 72.75 210.711 72.176 211.635 72.176C212.657 72.176 213.091 72.722 213.091 73.38C213.091 73.618 212.979 73.828 212.573 73.884L210.753 74.15C209.591 74.318 208.709 74.99 208.709 76.194ZM211.145 77.104C210.473 77.104 210.053 76.628 210.053 76.124C210.053 75.522 210.473 75.2 211.033 75.116L213.091 74.808V75.116C213.091 76.586 212.223 77.104 211.145 77.104ZM218.19 69.138H216.986V70.23C216.986 70.818 216.678 71.266 215.95 71.266H215.586V72.456H216.874V76.152C216.874 77.37 217.602 78.07 218.75 78.07C219.198 78.07 219.534 77.986 219.646 77.944V76.824C219.534 76.852 219.296 76.88 219.128 76.88C218.442 76.88 218.19 76.572 218.19 75.956V72.456H219.646V71.266H218.19V69.138ZM222.437 78V71.266H221.135V78H222.437ZM220.841 68.718C220.841 69.236 221.261 69.656 221.779 69.656C222.311 69.656 222.731 69.236 222.731 68.718C222.731 68.186 222.311 67.766 221.779 67.766C221.261 67.766 220.841 68.186 220.841 68.718ZM227.488 77.034C226.368 77.034 225.388 76.194 225.388 74.626C225.388 73.072 226.368 72.232 227.488 72.232C228.608 72.232 229.588 73.072 229.588 74.626C229.588 76.194 228.608 77.034 227.488 77.034ZM227.488 71.056C225.472 71.056 224.044 72.582 224.044 74.626C224.044 76.684 225.472 78.21 227.488 78.21C229.504 78.21 230.932 76.684 230.932 74.626C230.932 72.582 229.504 71.056 227.488 71.056ZM233.854 74.108C233.854 73.086 234.386 72.26 235.422 72.26C236.598 72.26 236.99 73.016 236.99 73.954V78H238.306V73.73C238.306 72.232 237.508 71.07 235.898 71.07C235.114 71.07 234.316 71.392 233.826 72.232V71.266H232.538V78H233.854V74.108Z" fill="#DFE1E6"/>
<path d="M369.667 20.2734L368.727 19.3334L365.001 23.06L361.274 19.3334L360.334 20.2734L364.061 24L360.334 27.7267L361.274 28.6667L365.001 24.94L368.727 28.6667L369.667 27.7267L365.941 24L369.667 20.2734Z" fill="#4A5568"/>
<rect x="0.5" y="0.5" width="388" height="100" rx="7.5" stroke="#2D2D2D"/>
<rect y="121" width="389" height="460" rx="12" fill="#7C8698"/>
<path d="M41.156 478.888V476.402H28.374V478.888H33.434V492H36.074V478.888H41.156ZM44.6317 485.708C44.6757 484.344 45.4457 483.288 46.8537 483.288C48.4597 483.288 49.0537 484.344 49.0537 485.664V492H51.6057V485.224C51.6057 482.87 50.3297 480.978 47.6897 480.978C46.5677 480.978 45.3577 481.374 44.6317 482.32V476.072H42.0797V492H44.6317V485.708ZM56.2535 485.466C56.3415 484.322 57.2655 483.09 58.8715 483.09C60.6315 483.09 61.4675 484.212 61.5115 485.466H56.2535ZM61.7975 488.26C61.4455 489.316 60.6535 490.13 59.1135 490.13C57.5295 490.13 56.2535 488.964 56.1875 487.336H64.0195C64.0415 487.292 64.0855 486.94 64.0855 486.522C64.0855 483.134 62.1495 480.956 58.8495 480.956C56.1435 480.956 53.6355 483.2 53.6355 486.588C53.6355 490.218 56.2095 492.33 59.1135 492.33C61.6875 492.33 63.3815 490.812 63.9535 488.942L61.7975 488.26ZM70.5277 489.096C70.5277 490.79 71.9137 492.33 74.1577 492.33C75.8957 492.33 76.9517 491.45 77.4577 490.636C77.4577 491.494 77.5457 491.934 77.5677 492H79.9437C79.9217 491.89 79.8117 491.252 79.8117 490.284V484.96C79.8117 482.826 78.5577 480.956 75.2577 480.956C72.6177 480.956 70.9457 482.606 70.7477 484.454L73.0797 484.982C73.1897 483.904 73.9377 483.046 75.2797 483.046C76.6877 483.046 77.3037 483.772 77.3037 484.674C77.3037 485.048 77.1277 485.356 76.5117 485.444L73.7617 485.862C71.9357 486.126 70.5277 487.182 70.5277 489.096ZM74.6417 490.328C73.6297 490.328 73.0797 489.668 73.0797 488.942C73.0797 488.062 73.7177 487.622 74.5097 487.49L77.3037 487.072V487.556C77.3037 489.646 76.0717 490.328 74.6417 490.328ZM88.8147 481.22C88.7047 481.198 88.4407 481.154 88.1327 481.154C86.7247 481.154 85.5367 481.836 85.0307 483.002V481.286H82.5447V492H85.0967V486.896C85.0967 484.894 85.9987 483.75 87.9787 483.75C88.2427 483.75 88.5287 483.772 88.8147 483.816V481.22ZM93.8517 478.008H91.5417V479.614C91.5417 480.56 91.0357 481.286 89.8917 481.286H89.3417V483.552H91.3217V488.942C91.3217 490.944 92.5537 492.132 94.5337 492.132C95.4577 492.132 95.9417 491.956 96.0957 491.89V489.778C95.9857 489.8 95.5677 489.866 95.2157 489.866C94.2697 489.866 93.8517 489.47 93.8517 488.524V483.552H96.0737V481.286H93.8517V478.008ZM108.007 490.042C106.445 490.042 105.015 488.854 105.015 486.632C105.015 484.41 106.445 483.266 108.007 483.266C109.591 483.266 110.999 484.41 110.999 486.632C110.999 488.876 109.591 490.042 108.007 490.042ZM108.007 480.956C104.817 480.956 102.463 483.354 102.463 486.632C102.463 489.932 104.817 492.33 108.007 492.33C111.219 492.33 113.573 489.932 113.573 486.632C113.573 483.354 111.219 480.956 108.007 480.956ZM120.572 478.25C121.056 478.25 121.342 478.316 121.496 478.36V476.182C121.32 476.094 120.792 475.962 120.154 475.962C117.954 475.962 116.414 477.414 116.414 479.812V481.286H114.544V483.508H116.414V492H118.988V483.508H121.474V481.286H118.988V479.878C118.988 478.558 119.89 478.25 120.572 478.25ZM130.185 492V485.642C130.185 484.278 131.043 483.266 132.407 483.266C133.859 483.266 134.475 484.234 134.475 485.466V492H136.983V485.642C136.983 484.322 137.863 483.266 139.205 483.266C140.635 483.266 141.273 484.212 141.273 485.466V492H143.737V485.048C143.737 482.21 141.889 480.978 139.953 480.978C138.567 480.978 137.313 481.462 136.477 482.87C135.905 481.616 134.673 480.978 133.265 480.978C132.055 480.978 130.713 481.55 130.097 482.65V481.286H127.655V492H130.185ZM151.308 490.042C149.746 490.042 148.316 488.854 148.316 486.632C148.316 484.41 149.746 483.266 151.308 483.266C152.892 483.266 154.3 484.41 154.3 486.632C154.3 488.876 152.892 490.042 151.308 490.042ZM151.308 480.956C148.118 480.956 145.764 483.354 145.764 486.632C145.764 489.932 148.118 492.33 151.308 492.33C154.52 492.33 156.874 489.932 156.874 486.632C156.874 483.354 154.52 480.956 151.308 480.956ZM168.519 481.286H165.835L163.063 488.942L160.225 481.286H157.409L161.765 492H164.317L168.519 481.286ZM172.721 492V481.286H170.191V492H172.721ZM169.795 477.524C169.795 478.448 170.543 479.174 171.445 479.174C172.369 479.174 173.117 478.448 173.117 477.524C173.117 476.6 172.369 475.852 171.445 475.852C170.543 475.852 169.795 476.6 169.795 477.524ZM177.469 485.466C177.557 484.322 178.481 483.09 180.087 483.09C181.847 483.09 182.683 484.212 182.727 485.466H177.469ZM183.013 488.26C182.661 489.316 181.869 490.13 180.329 490.13C178.745 490.13 177.469 488.964 177.403 487.336H185.235C185.257 487.292 185.301 486.94 185.301 486.522C185.301 483.134 183.365 480.956 180.065 480.956C177.359 480.956 174.851 483.2 174.851 486.588C174.851 490.218 177.425 492.33 180.329 492.33C182.903 492.33 184.597 490.812 185.169 488.942L183.013 488.26ZM194.933 492V485.642C194.933 484.278 195.791 483.266 197.155 483.266C198.607 483.266 199.223 484.234 199.223 485.466V492H201.731V485.642C201.731 484.322 202.611 483.266 203.953 483.266C205.383 483.266 206.021 484.212 206.021 485.466V492H208.485V485.048C208.485 482.21 206.637 480.978 204.701 480.978C203.315 480.978 202.061 481.462 201.225 482.87C200.653 481.616 199.421 480.978 198.013 480.978C196.803 480.978 195.461 481.55 194.845 482.65V481.286H192.403V492H194.933ZM210.533 489.096C210.533 490.79 211.919 492.33 214.163 492.33C215.901 492.33 216.957 491.45 217.463 490.636C217.463 491.494 217.551 491.934 217.573 492H219.949C219.927 491.89 219.817 491.252 219.817 490.284V484.96C219.817 482.826 218.563 480.956 215.263 480.956C212.623 480.956 210.951 482.606 210.753 484.454L213.085 484.982C213.195 483.904 213.943 483.046 215.285 483.046C216.693 483.046 217.309 483.772 217.309 484.674C217.309 485.048 217.133 485.356 216.517 485.444L213.767 485.862C211.941 486.126 210.533 487.182 210.533 489.096ZM214.647 490.328C213.635 490.328 213.085 489.668 213.085 488.942C213.085 488.062 213.723 487.622 214.515 487.49L217.309 487.072V487.556C217.309 489.646 216.077 490.328 214.647 490.328ZM232.582 481.286H229.194L225.08 485.62V476.072H222.55V492H225.08V489.008L226.4 487.622L229.546 492H232.67L228.182 485.818L232.582 481.286ZM236.695 492V481.286H234.165V492H236.695ZM233.769 477.524C233.769 478.448 234.517 479.174 235.419 479.174C236.343 479.174 237.091 478.448 237.091 477.524C237.091 476.6 236.343 475.852 235.419 475.852C234.517 475.852 233.769 476.6 233.769 477.524ZM242.058 485.818C242.058 484.41 242.828 483.288 244.28 483.288C245.886 483.288 246.48 484.344 246.48 485.664V492H249.032V485.224C249.032 482.87 247.778 480.978 245.16 480.978C243.972 480.978 242.696 481.484 241.992 482.716V481.286H239.506V492H242.058V485.818ZM251.062 492.594C251.348 494.75 253.328 496.51 256.166 496.51C260.192 496.51 261.666 493.848 261.666 490.988V481.286H259.202V482.65C258.74 481.77 257.706 481.088 256.034 481.088C253.086 481.088 251.084 483.442 251.084 486.302C251.084 489.316 253.174 491.516 256.034 491.516C257.596 491.516 258.674 490.79 259.136 489.954V491.076C259.136 493.254 258.124 494.288 256.1 494.288C254.626 494.288 253.592 493.298 253.416 491.978L251.062 492.594ZM256.452 489.338C254.78 489.338 253.658 488.172 253.658 486.302C253.658 484.476 254.824 483.288 256.452 483.288C258.036 483.288 259.202 484.476 259.202 486.302C259.202 488.15 258.08 489.338 256.452 489.338Z" fill="#1A202C"/>
<path opacity="0.7" d="M36.448 522V520.528H31.088V510.656H29.52V522H36.448ZM38.6901 517.36C38.7541 516.368 39.5221 515.392 40.7861 515.392C42.1461 515.392 42.8661 516.256 42.8981 517.36H38.6901ZM43.1221 519.36C42.8341 520.224 42.2101 520.912 40.9621 520.912C39.6661 520.912 38.6741 519.952 38.6421 518.576H44.4341C44.4501 518.48 44.4661 518.288 44.4661 518.096C44.4661 515.696 43.1381 514.064 40.7701 514.064C38.8341 514.064 37.0901 515.712 37.0901 518.128C37.0901 520.736 38.8981 522.24 40.9621 522.24C42.7541 522.24 43.9861 521.168 44.4181 519.808L43.1221 519.36ZM45.6481 519.936C45.6481 521.152 46.6561 522.24 48.2241 522.24C49.6001 522.24 50.3681 521.504 50.7041 520.96C50.7041 521.52 50.7521 521.808 50.7841 522H52.2561C52.2241 521.808 52.1601 521.408 52.1601 520.736V516.88C52.1601 515.376 51.2641 514.064 48.9601 514.064C47.2961 514.064 45.9681 515.088 45.8081 516.56L47.2481 516.896C47.3441 516 47.9361 515.344 48.9921 515.344C50.1601 515.344 50.6561 515.968 50.6561 516.72C50.6561 516.992 50.5281 517.232 50.0641 517.296L47.9841 517.6C46.6561 517.792 45.6481 518.56 45.6481 519.936ZM48.4321 520.976C47.6641 520.976 47.1841 520.432 47.1841 519.856C47.1841 519.168 47.6641 518.8 48.3041 518.704L50.6561 518.352V518.704C50.6561 520.384 49.6641 520.976 48.4321 520.976ZM58.6151 514.224C58.5351 514.208 58.3271 514.176 58.1191 514.176C57.3351 514.176 56.3751 514.464 55.8151 515.648V514.304H54.3431V522H55.8471V518.144C55.8471 516.448 56.6951 515.776 57.9591 515.776C58.1671 515.776 58.3911 515.792 58.6151 515.824V514.224ZM61.4676 517.552C61.4676 516.384 62.0756 515.44 63.2596 515.44C64.6036 515.44 65.0516 516.304 65.0516 517.376V522H66.5556V517.12C66.5556 515.408 65.6436 514.08 63.8036 514.08C62.9076 514.08 61.9956 514.448 61.4356 515.408V514.304H59.9636V522H61.4676V517.552ZM76.4081 515.664V514.304H74.5521V513.088C74.5521 512.032 75.2401 511.776 75.7681 511.776C76.1521 511.776 76.3441 511.84 76.4241 511.872V510.528C76.3601 510.48 76.0401 510.368 75.5281 510.368C74.1361 510.368 73.0001 511.296 73.0001 513.008V514.304H71.5761V515.664H73.0001V522H74.5521V515.664H76.4081ZM82.0502 514.224C81.9702 514.208 81.7622 514.176 81.5542 514.176C80.7702 514.176 79.8102 514.464 79.2502 515.648V514.304H77.7782V522H79.2822V518.144C79.2822 516.448 80.1302 515.776 81.3942 515.776C81.6022 515.776 81.8262 515.792 82.0502 515.824V514.224ZM86.6821 520.896C85.4021 520.896 84.2821 519.936 84.2821 518.144C84.2821 516.368 85.4021 515.408 86.6821 515.408C87.9621 515.408 89.0821 516.368 89.0821 518.144C89.0821 519.936 87.9621 520.896 86.6821 520.896ZM86.6821 514.064C84.3781 514.064 82.7461 515.808 82.7461 518.144C82.7461 520.496 84.3781 522.24 86.6821 522.24C88.9861 522.24 90.6181 520.496 90.6181 518.144C90.6181 515.808 88.9861 514.064 86.6821 514.064ZM93.8354 522V517.36C93.8354 516.208 94.5554 515.408 95.6274 515.408C96.7794 515.408 97.2594 516.176 97.2594 517.168V522H98.7634V517.344C98.7634 516.24 99.4834 515.408 100.539 515.408C101.675 515.408 102.171 516.16 102.171 517.168V522H103.659V517.008C103.659 514.992 102.347 514.08 101.003 514.08C100.027 514.08 99.0354 514.432 98.4274 515.536C98.0114 514.544 97.0834 514.08 96.1234 514.08C95.2274 514.08 94.2674 514.48 93.7874 515.328V514.304H92.3474V522H93.8354ZM111.45 511.872H110.074V513.12C110.074 513.792 109.722 514.304 108.89 514.304H108.474V515.664H109.946V519.888C109.946 521.28 110.778 522.08 112.09 522.08C112.602 522.08 112.986 521.984 113.114 521.936V520.656C112.986 520.688 112.714 520.72 112.522 520.72C111.738 520.72 111.45 520.368 111.45 519.664V515.664H113.114V514.304H111.45V511.872ZM116.213 517.472C116.245 516.336 116.853 515.44 118.005 515.44C119.349 515.44 119.797 516.304 119.797 517.376V522H121.301V517.12C121.301 515.408 120.389 514.08 118.549 514.08C117.669 514.08 116.773 514.384 116.213 515.2V510.416H114.709V522H116.213V517.472ZM124.542 517.36C124.606 516.368 125.374 515.392 126.638 515.392C127.998 515.392 128.718 516.256 128.75 517.36H124.542ZM128.974 519.36C128.686 520.224 128.062 520.912 126.814 520.912C125.518 520.912 124.526 519.952 124.494 518.576H130.286C130.302 518.48 130.318 518.288 130.318 518.096C130.318 515.696 128.99 514.064 126.622 514.064C124.686 514.064 122.942 515.712 122.942 518.128C122.942 520.736 124.75 522.24 126.814 522.24C128.606 522.24 129.838 521.168 130.27 519.808L128.974 519.36ZM142.293 514.304H140.677L138.469 520.24L136.277 514.304H134.581L137.701 522H139.221L142.293 514.304ZM144.529 517.36C144.593 516.368 145.361 515.392 146.625 515.392C147.985 515.392 148.705 516.256 148.737 517.36H144.529ZM148.961 519.36C148.673 520.224 148.049 520.912 146.801 520.912C145.505 520.912 144.513 519.952 144.481 518.576H150.273C150.289 518.48 150.305 518.288 150.305 518.096C150.305 515.696 148.977 514.064 146.609 514.064C144.673 514.064 142.929 515.712 142.929 518.128C142.929 520.736 144.737 522.24 146.801 522.24C148.593 522.24 149.825 521.168 150.257 519.808L148.961 519.36ZM156.271 514.224C156.191 514.208 155.983 514.176 155.775 514.176C154.991 514.176 154.031 514.464 153.471 515.648V514.304H151.999V522H153.503V518.144C153.503 516.448 154.351 515.776 155.615 515.776C155.823 515.776 156.047 515.792 156.271 515.824V514.224ZM159.763 525.216L164.771 514.304H163.155L160.851 519.616L158.451 514.304H156.723L160.035 521.152L158.115 525.216H159.763ZM170.958 522V520.88C171.438 521.712 172.318 522.208 173.454 522.208C175.742 522.208 177.038 520.4 177.038 518.112C177.038 515.872 175.838 514.08 173.502 514.08C172.222 514.08 171.326 514.704 170.958 515.392V510.416H169.47V522H170.958ZM175.502 518.112C175.502 519.776 174.606 520.864 173.23 520.864C171.902 520.864 170.942 519.776 170.942 518.112C170.942 516.448 171.902 515.408 173.23 515.408C174.622 515.408 175.502 516.448 175.502 518.112ZM179.866 517.36C179.93 516.368 180.698 515.392 181.962 515.392C183.322 515.392 184.042 516.256 184.074 517.36H179.866ZM184.298 519.36C184.01 520.224 183.386 520.912 182.138 520.912C180.842 520.912 179.85 519.952 179.818 518.576H185.61C185.626 518.48 185.642 518.288 185.642 518.096C185.642 515.696 184.314 514.064 181.946 514.064C180.01 514.064 178.266 515.712 178.266 518.128C178.266 520.736 180.074 522.24 182.138 522.24C183.93 522.24 185.162 521.168 185.594 519.808L184.298 519.36ZM186.728 520C186.856 520.88 187.752 522.24 189.864 522.24C191.768 522.24 192.68 520.944 192.68 519.856C192.68 518.72 191.944 517.872 190.552 517.568L189.304 517.296C188.712 517.168 188.424 516.832 188.424 516.368C188.424 515.84 188.936 515.344 189.704 515.344C190.92 515.344 191.24 516.224 191.304 516.624L192.632 516.128C192.472 515.44 191.816 514.064 189.704 514.064C188.2 514.064 186.968 515.184 186.968 516.496C186.968 517.584 187.688 518.4 188.888 518.656L190.2 518.944C190.84 519.088 191.192 519.456 191.192 519.936C191.192 520.48 190.728 520.96 189.88 520.96C188.792 520.96 188.184 520.32 188.088 519.52L186.728 520ZM196.521 511.872H195.145V513.12C195.145 513.792 194.793 514.304 193.961 514.304H193.545V515.664H195.017V519.888C195.017 521.28 195.849 522.08 197.161 522.08C197.673 522.08 198.057 521.984 198.185 521.936V520.656C198.057 520.688 197.785 520.72 197.593 520.72C196.809 520.72 196.521 520.368 196.521 519.664V515.664H198.185V514.304H196.521V511.872ZM205.107 522V514.304H203.619V522H205.107ZM203.283 511.392C203.283 511.984 203.763 512.464 204.355 512.464C204.963 512.464 205.443 511.984 205.443 511.392C205.443 510.784 204.963 510.304 204.355 510.304C203.763 510.304 203.283 510.784 203.283 511.392ZM208.853 517.552C208.853 516.384 209.461 515.44 210.645 515.44C211.989 515.44 212.437 516.304 212.437 517.376V522H213.941V517.12C213.941 515.408 213.029 514.08 211.189 514.08C210.293 514.08 209.381 514.448 208.821 515.408V514.304H207.349V522H208.853V517.552ZM223.294 515.456C224.606 515.456 225.166 516.336 225.358 517.088L226.718 516.512C226.398 515.344 225.342 514.064 223.294 514.064C221.102 514.064 219.422 515.744 219.422 518.144C219.422 520.48 221.07 522.24 223.31 522.24C225.31 522.24 226.414 520.944 226.782 519.84L225.454 519.264C225.278 519.872 224.75 520.848 223.31 520.848C222.062 520.848 220.958 519.904 220.958 518.144C220.958 516.352 222.078 515.456 223.294 515.456ZM229.871 522V510.416H228.367V522H229.871ZM231.6 519.936C231.6 521.152 232.608 522.24 234.176 522.24C235.552 522.24 236.32 521.504 236.656 520.96C236.656 521.52 236.704 521.808 236.736 522H238.208C238.176 521.808 238.112 521.408 238.112 520.736V516.88C238.112 515.376 237.216 514.064 234.912 514.064C233.248 514.064 231.92 515.088 231.76 516.56L233.2 516.896C233.296 516 233.888 515.344 234.944 515.344C236.112 515.344 236.608 515.968 236.608 516.72C236.608 516.992 236.48 517.232 236.016 517.296L233.936 517.6C232.608 517.792 231.6 518.56 231.6 519.936ZM234.384 520.976C233.616 520.976 233.136 520.432 233.136 519.856C233.136 519.168 233.616 518.8 234.256 518.704L236.608 518.352V518.704C236.608 520.384 235.616 520.976 234.384 520.976ZM239.687 520C239.815 520.88 240.711 522.24 242.823 522.24C244.727 522.24 245.639 520.944 245.639 519.856C245.639 518.72 244.903 517.872 243.511 517.568L242.263 517.296C241.671 517.168 241.383 516.832 241.383 516.368C241.383 515.84 241.895 515.344 242.663 515.344C243.879 515.344 244.199 516.224 244.263 516.624L245.591 516.128C245.431 515.44 244.775 514.064 242.663 514.064C241.159 514.064 239.927 515.184 239.927 516.496C239.927 517.584 240.647 518.4 241.847 518.656L243.159 518.944C243.799 519.088 244.151 519.456 244.151 519.936C244.151 520.48 243.687 520.96 242.839 520.96C241.751 520.96 241.143 520.32 241.047 519.52L239.687 520ZM246.777 520C246.905 520.88 247.801 522.24 249.913 522.24C251.817 522.24 252.729 520.944 252.729 519.856C252.729 518.72 251.993 517.872 250.601 517.568L249.353 517.296C248.761 517.168 248.473 516.832 248.473 516.368C248.473 515.84 248.985 515.344 249.753 515.344C250.969 515.344 251.289 516.224 251.353 516.624L252.681 516.128C252.521 515.44 251.865 514.064 249.753 514.064C248.249 514.064 247.017 515.184 247.017 516.496C247.017 517.584 247.737 518.4 248.937 518.656L250.249 518.944C250.889 519.088 251.241 519.456 251.241 519.936C251.241 520.48 250.777 520.96 249.929 520.96C248.841 520.96 248.233 520.32 248.137 519.52L246.777 520ZM259.801 522V517.36C259.801 516.208 260.521 515.408 261.593 515.408C262.745 515.408 263.225 516.176 263.225 517.168V522H264.729V517.344C264.729 516.24 265.449 515.408 266.505 515.408C267.641 515.408 268.137 516.16 268.137 517.168V522H269.625V517.008C269.625 514.992 268.313 514.08 266.969 514.08C265.993 514.08 265.001 514.432 264.393 515.536C263.977 514.544 263.049 514.08 262.089 514.08C261.193 514.08 260.233 514.48 259.753 515.328V514.304H258.313V522H259.801ZM275.201 520.896C273.921 520.896 272.801 519.936 272.801 518.144C272.801 516.368 273.921 515.408 275.201 515.408C276.481 515.408 277.601 516.368 277.601 518.144C277.601 519.936 276.481 520.896 275.201 520.896ZM275.201 514.064C272.897 514.064 271.265 515.808 271.265 518.144C271.265 520.496 272.897 522.24 275.201 522.24C277.505 522.24 279.137 520.496 279.137 518.144C279.137 515.808 277.505 514.064 275.201 514.064ZM287.449 514.304H285.833L283.625 520.24L281.433 514.304H279.737L282.857 522H284.377L287.449 514.304ZM290.35 522V514.304H288.862V522H290.35ZM288.526 511.392C288.526 511.984 289.006 512.464 289.598 512.464C290.206 512.464 290.686 511.984 290.686 511.392C290.686 510.784 290.206 510.304 289.598 510.304C289.006 510.304 288.526 510.784 288.526 511.392ZM293.68 517.36C293.744 516.368 294.512 515.392 295.776 515.392C297.136 515.392 297.856 516.256 297.888 517.36H293.68ZM298.112 519.36C297.824 520.224 297.2 520.912 295.952 520.912C294.656 520.912 293.664 519.952 293.632 518.576H299.424C299.44 518.48 299.456 518.288 299.456 518.096C299.456 515.696 298.128 514.064 295.76 514.064C293.824 514.064 292.08 515.712 292.08 518.128C292.08 520.736 293.888 522.24 295.952 522.24C297.744 522.24 298.976 521.168 299.408 519.808L298.112 519.36ZM30.256 542.128C30.256 540.544 31.152 539.424 32.528 539.424C33.904 539.424 34.736 540.512 34.736 542.096C34.736 543.68 33.888 544.88 32.512 544.88C31.072 544.88 30.256 543.712 30.256 542.128ZM34.752 544.96C34.752 545.424 34.8 545.824 34.832 546H36.288C36.272 545.872 36.208 545.312 36.208 544.576V534.416H34.72V539.392C34.464 538.768 33.728 538.096 32.368 538.096C30.192 538.096 28.72 539.952 28.72 542.128C28.72 544.416 30.112 546.208 32.368 546.208C33.568 546.208 34.384 545.568 34.752 544.832V544.96ZM39.9495 546V538.304H38.4615V546H39.9495ZM38.1255 535.392C38.1255 535.984 38.6055 536.464 39.1975 536.464C39.8055 536.464 40.2855 535.984 40.2855 535.392C40.2855 534.784 39.8055 534.304 39.1975 534.304C38.6055 534.304 38.1255 534.784 38.1255 535.392ZM46.4634 538.224C46.3834 538.208 46.1754 538.176 45.9674 538.176C45.1834 538.176 44.2234 538.464 43.6634 539.648V538.304H42.1914V546H43.6954V542.144C43.6954 540.448 44.5434 539.776 45.8074 539.776C46.0154 539.776 46.2394 539.792 46.4634 539.824V538.224ZM48.7592 541.36C48.8232 540.368 49.5912 539.392 50.8552 539.392C52.2153 539.392 52.9353 540.256 52.9672 541.36H48.7592ZM53.1913 543.36C52.9033 544.224 52.2793 544.912 51.0312 544.912C49.7352 544.912 48.7432 543.952 48.7112 542.576H54.5033C54.5192 542.48 54.5352 542.288 54.5352 542.096C54.5352 539.696 53.2073 538.064 50.8393 538.064C48.9032 538.064 47.1592 539.712 47.1592 542.128C47.1592 544.736 48.9672 546.24 51.0312 546.24C52.8233 546.24 54.0553 545.168 54.4873 543.808L53.1913 543.36ZM59.5893 539.456C60.9013 539.456 61.4613 540.336 61.6533 541.088L63.0133 540.512C62.6933 539.344 61.6373 538.064 59.5893 538.064C57.3973 538.064 55.7173 539.744 55.7173 542.144C55.7173 544.48 57.3653 546.24 59.6053 546.24C61.6053 546.24 62.7093 544.944 63.0773 543.84L61.7493 543.264C61.5733 543.872 61.0453 544.848 59.6053 544.848C58.3573 544.848 57.2533 543.904 57.2533 542.144C57.2533 540.352 58.3733 539.456 59.5893 539.456ZM66.7583 535.872H65.3823V537.12C65.3823 537.792 65.0303 538.304 64.1983 538.304H63.7823V539.664H65.2543V543.888C65.2543 545.28 66.0863 546.08 67.3983 546.08C67.9103 546.08 68.2943 545.984 68.4223 545.936V544.656C68.2943 544.688 68.0223 544.72 67.8303 544.72C67.0463 544.72 66.7583 544.368 66.7583 543.664V539.664H68.4223V538.304H66.7583V535.872ZM73.3786 544.896C72.0986 544.896 70.9786 543.936 70.9786 542.144C70.9786 540.368 72.0986 539.408 73.3786 539.408C74.6586 539.408 75.7786 540.368 75.7786 542.144C75.7786 543.936 74.6586 544.896 73.3786 544.896ZM73.3786 538.064C71.0746 538.064 69.4426 539.808 69.4426 542.144C69.4426 544.496 71.0746 546.24 73.3786 546.24C75.6826 546.24 77.3146 544.496 77.3146 542.144C77.3146 539.808 75.6826 538.064 73.3786 538.064ZM83.3159 538.224C83.2359 538.208 83.0279 538.176 82.8199 538.176C82.0359 538.176 81.0759 538.464 80.5159 539.648V538.304H79.0439V546H80.5479V542.144C80.5479 540.448 81.3959 539.776 82.6599 539.776C82.8679 539.776 83.0919 539.792 83.3159 539.824V538.224ZM84.0564 544C84.1844 544.88 85.0804 546.24 87.1924 546.24C89.0964 546.24 90.0084 544.944 90.0084 543.856C90.0084 542.72 89.2724 541.872 87.8804 541.568L86.6324 541.296C86.0404 541.168 85.7524 540.832 85.7524 540.368C85.7524 539.84 86.2644 539.344 87.0324 539.344C88.2484 539.344 88.5684 540.224 88.6324 540.624L89.9604 540.128C89.8004 539.44 89.1444 538.064 87.0324 538.064C85.5284 538.064 84.2964 539.184 84.2964 540.496C84.2964 541.584 85.0164 542.4 86.2164 542.656L87.5284 542.944C88.1684 543.088 88.5204 543.456 88.5204 543.936C88.5204 544.48 88.0564 544.96 87.2084 544.96C86.1204 544.96 85.5124 544.32 85.4164 543.52L84.0564 544ZM95.0809 543.936C95.0809 545.152 96.0889 546.24 97.6569 546.24C99.0329 546.24 99.8009 545.504 100.137 544.96C100.137 545.52 100.185 545.808 100.217 546H101.689C101.657 545.808 101.593 545.408 101.593 544.736V540.88C101.593 539.376 100.697 538.064 98.3929 538.064C96.7289 538.064 95.4009 539.088 95.2409 540.56L96.6809 540.896C96.7769 540 97.3689 539.344 98.4249 539.344C99.5929 539.344 100.089 539.968 100.089 540.72C100.089 540.992 99.9609 541.232 99.4969 541.296L97.4169 541.6C96.0889 541.792 95.0809 542.56 95.0809 543.936ZM97.8649 544.976C97.0969 544.976 96.6169 544.432 96.6169 543.856C96.6169 543.168 97.0969 542.8 97.7369 542.704L100.089 542.352V542.704C100.089 544.384 99.0969 544.976 97.8649 544.976ZM105.28 541.552C105.28 540.384 105.888 539.44 107.072 539.44C108.416 539.44 108.864 540.304 108.864 541.376V546H110.368V541.12C110.368 539.408 109.456 538.08 107.616 538.08C106.72 538.08 105.808 538.448 105.248 539.408V538.304H103.776V546H105.28V541.552ZM113.561 542.128C113.561 540.544 114.457 539.424 115.833 539.424C117.209 539.424 118.041 540.512 118.041 542.096C118.041 543.68 117.193 544.88 115.817 544.88C114.377 544.88 113.561 543.712 113.561 542.128ZM118.057 544.96C118.057 545.424 118.105 545.824 118.137 546H119.593C119.577 545.872 119.513 545.312 119.513 544.576V534.416H118.025V539.392C117.769 538.768 117.033 538.096 115.673 538.096C113.497 538.096 112.025 539.952 112.025 542.128C112.025 544.416 113.417 546.208 115.673 546.208C116.873 546.208 117.689 545.568 118.057 544.832V544.96ZM127.094 549.04V544.96C127.51 545.648 128.406 546.208 129.59 546.208C131.846 546.208 133.174 544.432 133.174 542.144C133.174 539.904 131.942 538.128 129.638 538.128C128.39 538.128 127.478 538.736 127.062 539.504V538.304H125.606V549.04H127.094ZM131.638 542.144C131.638 543.728 130.758 544.864 129.366 544.864C127.99 544.864 127.078 543.728 127.078 542.144C127.078 540.608 127.99 539.456 129.366 539.456C130.774 539.456 131.638 540.608 131.638 542.144ZM139.186 538.224C139.106 538.208 138.898 538.176 138.69 538.176C137.906 538.176 136.946 538.464 136.386 539.648V538.304H134.914V546H136.418V542.144C136.418 540.448 137.266 539.776 138.53 539.776C138.738 539.776 138.962 539.792 139.186 539.824V538.224ZM143.818 544.896C142.538 544.896 141.418 543.936 141.418 542.144C141.418 540.368 142.538 539.408 143.818 539.408C145.098 539.408 146.218 540.368 146.218 542.144C146.218 543.936 145.098 544.896 143.818 544.896ZM143.818 538.064C141.514 538.064 139.882 539.808 139.882 542.144C139.882 544.496 141.514 546.24 143.818 546.24C146.122 546.24 147.754 544.496 147.754 542.144C147.754 539.808 146.122 538.064 143.818 538.064ZM150.523 542.128C150.523 540.544 151.419 539.424 152.795 539.424C154.171 539.424 155.003 540.512 155.003 542.096C155.003 543.68 154.155 544.88 152.779 544.88C151.339 544.88 150.523 543.712 150.523 542.128ZM155.019 544.96C155.019 545.424 155.067 545.824 155.099 546H156.555C156.539 545.872 156.475 545.312 156.475 544.576V534.416H154.987V539.392C154.731 538.768 153.995 538.096 152.635 538.096C150.459 538.096 148.987 539.952 148.987 542.128C148.987 544.416 150.379 546.208 152.635 546.208C153.835 546.208 154.651 545.568 155.019 544.832V544.96ZM163.801 545.072C163.801 545.392 163.833 545.824 163.865 546H165.305C165.273 545.728 165.225 545.184 165.225 544.576V538.304H163.721V542.944C163.721 544.112 163.113 544.912 161.897 544.912C160.633 544.912 160.153 543.984 160.153 542.928V538.304H158.649V543.152C158.649 544.896 159.737 546.24 161.529 546.24C162.425 546.24 163.385 545.872 163.801 545.072ZM170.834 539.456C172.146 539.456 172.706 540.336 172.898 541.088L174.258 540.512C173.938 539.344 172.882 538.064 170.834 538.064C168.642 538.064 166.962 539.744 166.962 542.144C166.962 544.48 168.61 546.24 170.85 546.24C172.85 546.24 173.954 544.944 174.322 543.84L172.994 543.264C172.818 543.872 172.29 544.848 170.85 544.848C169.602 544.848 168.498 543.904 168.498 542.144C168.498 540.352 169.618 539.456 170.834 539.456ZM176.995 541.36C177.059 540.368 177.827 539.392 179.091 539.392C180.451 539.392 181.171 540.256 181.203 541.36H176.995ZM181.427 543.36C181.139 544.224 180.515 544.912 179.267 544.912C177.971 544.912 176.979 543.952 176.947 542.576H182.739C182.755 542.48 182.771 542.288 182.771 542.096C182.771 539.696 181.443 538.064 179.075 538.064C177.139 538.064 175.395 539.712 175.395 542.128C175.395 544.736 177.203 546.24 179.267 546.24C181.059 546.24 182.291 545.168 182.723 543.808L181.427 543.36ZM188.737 538.224C188.657 538.208 188.449 538.176 188.241 538.176C187.457 538.176 186.497 538.464 185.937 539.648V538.304H184.465V546H185.969V542.144C185.969 540.448 186.817 539.776 188.081 539.776C188.289 539.776 188.513 539.792 188.737 539.824V538.224ZM189.478 544C189.606 544.88 190.502 546.24 192.614 546.24C194.518 546.24 195.43 544.944 195.43 543.856C195.43 542.72 194.694 541.872 193.302 541.568L192.054 541.296C191.462 541.168 191.174 540.832 191.174 540.368C191.174 539.84 191.686 539.344 192.454 539.344C193.67 539.344 193.99 540.224 194.054 540.624L195.382 540.128C195.222 539.44 194.566 538.064 192.454 538.064C190.95 538.064 189.718 539.184 189.718 540.496C189.718 541.584 190.438 542.4 191.638 542.656L192.95 542.944C193.59 543.088 193.942 543.456 193.942 543.936C193.942 544.48 193.478 544.96 192.63 544.96C191.542 544.96 190.934 544.32 190.838 543.52L189.478 544ZM202.813 535.872H201.437V537.12C201.437 537.792 201.085 538.304 200.253 538.304H199.837V539.664H201.309V543.888C201.309 545.28 202.141 546.08 203.453 546.08C203.965 546.08 204.349 545.984 204.477 545.936V544.656C204.349 544.688 204.077 544.72 203.885 544.72C203.101 544.72 202.813 544.368 202.813 543.664V539.664H204.477V538.304H202.813V535.872ZM207.576 541.472C207.608 540.336 208.216 539.44 209.368 539.44C210.712 539.44 211.16 540.304 211.16 541.376V546H212.664V541.12C212.664 539.408 211.752 538.08 209.912 538.08C209.032 538.08 208.136 538.384 207.576 539.2V534.416H206.072V546H207.576V541.472ZM215.906 541.36C215.97 540.368 216.738 539.392 218.002 539.392C219.362 539.392 220.082 540.256 220.114 541.36H215.906ZM220.338 543.36C220.05 544.224 219.426 544.912 218.178 544.912C216.882 544.912 215.89 543.952 215.858 542.576H221.65C221.666 542.48 221.682 542.288 221.682 542.096C221.682 539.696 220.354 538.064 217.986 538.064C216.05 538.064 214.306 539.712 214.306 542.128C214.306 544.736 216.114 546.24 218.178 546.24C219.97 546.24 221.202 545.168 221.634 543.808L220.338 543.36ZM226.703 543.936C226.703 545.152 227.711 546.24 229.279 546.24C230.655 546.24 231.423 545.504 231.759 544.96C231.759 545.52 231.807 545.808 231.839 546H233.311C233.279 545.808 233.215 545.408 233.215 544.736V540.88C233.215 539.376 232.319 538.064 230.015 538.064C228.351 538.064 227.023 539.088 226.863 540.56L228.303 540.896C228.399 540 228.991 539.344 230.047 539.344C231.215 539.344 231.711 539.968 231.711 540.72C231.711 540.992 231.583 541.232 231.119 541.296L229.039 541.6C227.711 541.792 226.703 542.56 226.703 543.936ZM229.487 544.976C228.719 544.976 228.239 544.432 228.239 543.856C228.239 543.168 228.719 542.8 229.359 542.704L231.711 542.352V542.704C231.711 544.384 230.719 544.976 229.487 544.976ZM239.67 538.224C239.59 538.208 239.382 538.176 239.174 538.176C238.39 538.176 237.43 538.464 236.87 539.648V538.304H235.398V546H236.902V542.144C236.902 540.448 237.75 539.776 239.014 539.776C239.222 539.776 239.446 539.792 239.67 539.824V538.224ZM243.115 535.872H241.739V537.12C241.739 537.792 241.387 538.304 240.555 538.304H240.139V539.664H241.611V543.888C241.611 545.28 242.443 546.08 243.755 546.08C244.267 546.08 244.651 545.984 244.779 545.936V544.656C244.651 544.688 244.379 544.72 244.187 544.72C243.403 544.72 243.115 544.368 243.115 543.664V539.664H244.779V538.304H243.115V535.872ZM253.637 544.896C252.357 544.896 251.237 543.936 251.237 542.144C251.237 540.368 252.357 539.408 253.637 539.408C254.917 539.408 256.037 540.368 256.037 542.144C256.037 543.936 254.917 544.896 253.637 544.896ZM253.637 538.064C251.333 538.064 249.701 539.808 249.701 542.144C249.701 544.496 251.333 546.24 253.637 546.24C255.941 546.24 257.573 544.496 257.573 542.144C257.573 539.808 255.941 538.064 253.637 538.064ZM263.193 539.664V538.304H261.337V537.088C261.337 536.032 262.025 535.776 262.553 535.776C262.937 535.776 263.129 535.84 263.209 535.872V534.528C263.145 534.48 262.825 534.368 262.313 534.368C260.921 534.368 259.785 535.296 259.785 537.008V538.304H258.361V539.664H259.785V546H261.337V539.664H263.193ZM269.531 546V541.36C269.531 540.208 270.251 539.408 271.323 539.408C272.475 539.408 272.955 540.176 272.955 541.168V546H274.459V541.344C274.459 540.24 275.179 539.408 276.235 539.408C277.371 539.408 277.867 540.16 277.867 541.168V546H279.355V541.008C279.355 538.992 278.043 538.08 276.699 538.08C275.723 538.08 274.731 538.432 274.123 539.536C273.707 538.544 272.779 538.08 271.819 538.08C270.923 538.08 269.963 538.48 269.483 539.328V538.304H268.043V546H269.531ZM284.931 544.896C283.651 544.896 282.531 543.936 282.531 542.144C282.531 540.368 283.651 539.408 284.931 539.408C286.211 539.408 287.331 540.368 287.331 542.144C287.331 543.936 286.211 544.896 284.931 544.896ZM284.931 538.064C282.627 538.064 280.995 539.808 280.995 542.144C280.995 544.496 282.627 546.24 284.931 546.24C287.235 546.24 288.867 544.496 288.867 542.144C288.867 539.808 287.235 538.064 284.931 538.064ZM297.179 538.304H295.563L293.355 544.24L291.163 538.304H289.467L292.587 546H294.107L297.179 538.304ZM300.08 546V538.304H298.592V546H300.08ZM298.256 535.392C298.256 535.984 298.736 536.464 299.328 536.464C299.936 536.464 300.416 535.984 300.416 535.392C300.416 534.784 299.936 534.304 299.328 534.304C298.736 534.304 298.256 534.784 298.256 535.392ZM303.41 541.36C303.474 540.368 304.242 539.392 305.506 539.392C306.866 539.392 307.586 540.256 307.618 541.36H303.41ZM307.842 543.36C307.554 544.224 306.93 544.912 305.682 544.912C304.386 544.912 303.394 543.952 303.362 542.576H309.154C309.17 542.48 309.186 542.288 309.186 542.096C309.186 539.696 307.858 538.064 305.49 538.064C303.554 538.064 301.81 539.712 301.81 542.128C301.81 544.736 303.618 546.24 305.682 546.24C307.474 546.24 308.706 545.168 309.138 543.808L307.842 543.36Z" fill="#1A202C"/>
<g filter="url(#filter0_dd_7050_10378)">
<rect x="28" y="149" width="85" height="36" rx="8" fill="white"/>
<path d="M52.116 169.116L49.74 162.492H48.18L51.348 171H52.812L56.028 162.492H54.504L52.116 169.116ZM58.3757 171V165.156H56.9957V171H58.3757ZM56.7797 163.104C56.7797 163.608 57.1877 164.004 57.6797 164.004C58.1837 164.004 58.5917 163.608 58.5917 163.104C58.5917 162.6 58.1837 162.192 57.6797 162.192C57.1877 162.192 56.7797 162.6 56.7797 163.104ZM61.1092 167.436C61.1572 166.812 61.6612 166.14 62.5372 166.14C63.4972 166.14 63.9532 166.752 63.9772 167.436H61.1092ZM64.1332 168.96C63.9412 169.536 63.5092 169.98 62.6692 169.98C61.8052 169.98 61.1092 169.344 61.0732 168.456H65.3452C65.3572 168.432 65.3812 168.24 65.3812 168.012C65.3812 166.164 64.3252 164.976 62.5252 164.976C61.0492 164.976 59.6812 166.2 59.6812 168.048C59.6812 170.028 61.0852 171.18 62.6692 171.18C64.0732 171.18 64.9972 170.352 65.3092 169.332L64.1332 168.96ZM70.0111 165.156L68.6311 169.2L67.4431 165.156H65.9551L67.8511 171H69.2791L70.6951 166.8L72.1471 171H73.5391L75.4111 165.156H73.9951L72.8311 169.2L71.4511 165.156H70.0111ZM84.8001 171H86.3721L83.0601 162.492H81.3921L78.0801 171H79.6041L80.3961 168.864H83.9961L84.8001 171ZM82.1961 164.052L83.4921 167.532H80.9001L82.1961 164.052ZM88.7336 171V162.312H87.3416V171H88.7336ZM91.8028 171V162.312H90.4108V171H91.8028Z" fill="#1A202C"/>
</g>
<defs>
<filter id="filter0_dd_7050_10378" x="22" y="146" width="97" height="48" filterUnits="userSpaceOnUse" color-interpolation-filters="sRGB">
<feFlood flood-opacity="0" result="BackgroundImageFix"/>
<feColorMatrix in="SourceAlpha" type="matrix" values="0 0 0 0 0 0 0 0 0 0 0 0 0 0 0 0 0 0 127 0" result="hardAlpha"/>
<feOffset dy="2"/>
<feGaussianBlur stdDeviation="2"/>
<feColorMatrix type="matrix" values="0 0 0 0 0.0352941 0 0 0 0 0.117647 0 0 0 0 0.258824 0 0 0 0.08 0"/>
<feBlend mode="normal" in2="BackgroundImageFix" result="effect1_dropShadow_7050_10378"/>
<feColorMatrix in="SourceAlpha" type="matrix" values="0 0 0 0 0 0 0 0 0 0 0 0 0 0 0 0 0 0 127 0" result="hardAlpha"/>
<feOffset dy="3"/>
<feGaussianBlur stdDeviation="3"/>
<feColorMatrix type="matrix" values="0 0 0 0 0.0352941 0 0 0 0 0.117647 0 0 0 0 0.258824 0 0 0 0.03 0"/>
<feBlend mode="normal" in2="effect1_dropShadow_7050_10378" result="effect2_dropShadow_7050_10378"/>
<feBlend mode="normal" in="SourceGraphic" in2="effect2_dropShadow_7050_10378" result="shape"/>
</filter>
</defs>
</svg>
